<?xml version="1.0" encoding="utf-8"?>
<!-- Generator: Adobe Illustrator 18.1.1, SVG Export Plug-In . SVG Version: 6.00 Build 0)  -->
<svg version="1.1" id="Ebene_1" xmlns="http://www.w3.org/2000/svg" xmlns:xlink="http://www.w3.org/1999/xlink" x="0px" y="0px"
	 viewBox="0 0 26 26" enable-background="new 0 0 26 26" xml:space="preserve">
<g>
	<rect x="8.2" y="4.8" fill="#74787B" width="9.5" height="1"/>
	<path fill="#74787B" d="M17.7,19.8v-0.9h-1.1v-6h-1c-0.3,0.3-0.9,0.4-1.5,0.5v0.8h1.2v4.7h-1.1v0.9H17.7z M9,16.7
		c0.8,0,2.1,0,2.1,1.2c0,0.7-0.6,1-1.2,1c-0.7,0-1.1-0.3-1.4-0.9l-1,0.6C8,19.5,9,19.9,9.9,19.9c1.2,0,2.4-0.6,2.4-2.1
		c0-0.9-0.4-1.5-1.3-1.7c0.7-0.3,1-0.8,1-1.5c0-1.2-1-1.8-2.3-1.8c-0.7,0-1.4,0.3-2.1,1l0.8,0.7c0.3-0.4,0.7-0.7,1.3-0.7
		c0.6,0,1,0.3,1,0.8c0,0.8-0.8,1-1.8,1V16.7z"/>
	<rect x="1.9" y="9.4" fill="#74787B" width="21.8" height="1"/>
	<path fill="#74787B" d="M5,23.4c-2.9,0-3.6-2.4-3.6-3.7V8.5c0-2.9,2.4-3.6,3.6-3.6h0.4v1H5c-0.3,0-2.7,0.1-2.7,2.7v11.3
		c0,0.1,0,2.7,2.7,2.7H21c0.3,0,2.7-0.1,2.7-2.7V8.5c0-0.1,0-2.7-2.7-2.7h-0.4v-1H21c2.9,0,3.6,2.4,3.6,3.6v11.3
		c0,2.8-2.3,3.6-3.6,3.7H5z"/>
	<rect x="6.3" y="2.6" fill="#74787B" width="1" height="4"/>
	<rect x="18.7" y="2.6" fill="#74787B" width="1" height="4"/>
</g>
<rect x="0" y="0" fill="none" width="26" height="26"/>
</svg>
