<?xml version="1.0" encoding="utf-8"?>
<!-- Generator: Adobe Illustrator 16.0.0, SVG Export Plug-In . SVG Version: 6.00 Build 0)  -->
<!DOCTYPE svg PUBLIC "-//W3C//DTD SVG 1.1//EN" "http://www.w3.org/Graphics/SVG/1.1/DTD/svg11.dtd">
<svg version="1.1" id="Ebene_1" xmlns="http://www.w3.org/2000/svg" xmlns:xlink="http://www.w3.org/1999/xlink" x="0px" y="0px"
	 width="27.571px" height="19.538px" viewBox="0 0 27.571 19.538" enable-background="new 0 0 27.571 19.538" xml:space="preserve">
<polygon fill="none" stroke="#87888A" stroke-width="1.15" stroke-miterlimit="10" points="11.108,5.898 11.108,13.088 17.92,9.503 
	"/>
<path fill="none" stroke="#87888A" stroke-width="1.15" stroke-miterlimit="10" d="M26.996,9.768
	c-0.023-2.245-0.175-4.105-0.175-4.105c-0.109-4.567-3.06-4.719-3.06-4.719c-4.474-0.391-9.729-0.367-9.729-0.367
	c-0.08,0-0.16-0.001-0.239-0.002c-0.003,0-0.006,0-0.009,0c-0.003,0-0.006,0-0.009,0c-0.079,0.001-0.159,0.002-0.239,0.002
	c0,0-5.255-0.024-9.727,0.367c0,0-2.952,0.151-3.061,4.719c0,0-0.149,1.84-0.174,4.067v0.079c0.025,2.228,0.174,4.066,0.174,4.066
	c0.109,4.568,3.061,4.72,3.061,4.72c4.472,0.391,9.727,0.365,9.727,0.365c0.08,0.002,0.16,0.002,0.239,0.004
	c0.003,0,0.006,0,0.009,0c0.003,0,0.006,0,0.009,0c0.079-0.002,0.159-0.002,0.239-0.004c0,0,5.255,0.025,9.729-0.365
	c0,0,2.95-0.152,3.06-4.72c0,0,0.151-1.859,0.175-4.104"/>
</svg>
