<?xml version="1.0" encoding="utf-8"?>
<!-- Generator: Adobe Illustrator 18.1.1, SVG Export Plug-In . SVG Version: 6.00 Build 0)  -->
<svg version="1.1" id="Ebene_1" xmlns="http://www.w3.org/2000/svg" xmlns:xlink="http://www.w3.org/1999/xlink" x="0px" y="0px"
	 viewBox="0 0 26 26" enable-background="new 0 0 26 26" xml:space="preserve">
<g>
	<path fill="#74787B" d="M20.3,10.6V6.4c0-0.1-0.1-6.1-7.3-6.1c-7.2,0-7.3,6-7.3,6.1v4.3c-1.3,0.2-3,1.2-3,3.6V22
		c0,1.3,0.8,3.7,3.7,3.7h13.2c1.3,0,3.7-0.8,3.7-3.7v-7.8C23.3,13.1,22.6,11,20.3,10.6z M13,1.3c6.2,0,6.3,4.9,6.3,5.1v4.2H6.7V6.4
		C6.7,6.2,6.8,1.3,13,1.3z M22.3,22c0,2.6-2.4,2.7-2.7,2.7H6.4c-2.6,0-2.7-2.4-2.7-2.7v-7.8c0-2.6,2.4-2.7,2.7-2.7h13.2
		c2.6,0,2.7,2.4,2.7,2.7V22z"/>
	<path fill="#74787B" d="M15.3,15.6c0-1.3-1-2.3-2.3-2.3s-2.3,1-2.3,2.3c0,0.7,0.3,1.3,0.9,1.8l-1,5.5h4.8l-1-5.5
		C15,17,15.3,16.3,15.3,15.6z M14.3,22h-2.5l0.9-5l-0.3-0.2c-0.4-0.3-0.7-0.7-0.7-1.1c0-0.7,0.6-1.3,1.3-1.3c0.7,0,1.3,0.6,1.3,1.3
		c0,0.5-0.3,0.9-0.7,1.1l-0.3,0.2L14.3,22z"/>
</g>
<rect x="0" y="0" fill="none" width="26" height="26"/>
</svg>
