<?xml version="1.0" encoding="utf-8"?>
<!-- Generator: Adobe Illustrator 18.1.1, SVG Export Plug-In . SVG Version: 6.00 Build 0)  -->
<svg version="1.1" id="Ebene_1" xmlns="http://www.w3.org/2000/svg" xmlns:xlink="http://www.w3.org/1999/xlink" x="0px" y="0px"
	 viewBox="0 0 26 26" enable-background="new 0 0 26 26" xml:space="preserve">
<g>
	<path fill="#74787B" d="M13,9.3c-2.6,0-4.8,2.2-4.8,4.8c0,2.6,2.2,4.8,4.8,4.8c2.6,0,4.8-2.2,4.8-4.8C17.8,11.4,15.6,9.3,13,9.3z
		 M13,17.9c-2.1,0-3.8-1.7-3.8-3.8c0-2.1,1.7-3.8,3.8-3.8c2.1,0,3.8,1.7,3.8,3.8C16.8,16.2,15.1,17.9,13,17.9z"/>
	<path fill="#74787B" d="M18.1,10.3h4.9V8.1h-4.9V10.3z M19.1,9.1h3v0.2h-3V9.1z"/>
	<path fill="#74787B" d="M22.6,6h-5.3l-1.1-2.1H9.8L8.7,6H3.4C2.5,6,0.8,6.5,0.8,8.6v10.9c0,0.9,0.5,2.6,2.6,2.6h19.2
		c0.9,0,2.6-0.5,2.6-2.6V8.6C25.2,7.7,24.7,6,22.6,6z M24.2,19.5c0,1.6-1.5,1.6-1.7,1.6H3.4c-1.6,0-1.6-1.5-1.6-1.6V8.6
		C1.8,7,3.2,7,3.4,7h5.9l1.1-2.1h5.2L16.7,7h5.9c1.6,0,1.6,1.5,1.6,1.6V19.5z"/>
</g>
<rect y="0" fill="none" width="26" height="26"/>
</svg>
