<?xml version="1.0" encoding="utf-8"?>
<!-- Generator: Adobe Illustrator 16.0.0, SVG Export Plug-In . SVG Version: 6.00 Build 0)  -->
<!DOCTYPE svg PUBLIC "-//W3C//DTD SVG 1.1//EN" "http://www.w3.org/Graphics/SVG/1.1/DTD/svg11.dtd">
<svg version="1.1" id="Ebene_1" xmlns="http://www.w3.org/2000/svg" xmlns:xlink="http://www.w3.org/1999/xlink" x="0px" y="0px"
	 width="24.19px" height="24.105px" viewBox="0 0 24.19 24.105" enable-background="new 0 0 24.19 24.105" xml:space="preserve">
<path fill="none" stroke="#87888A" stroke-width="1.15" stroke-miterlimit="10" d="M22.389,23.529c0,0,1.226,0,1.226-1.221V1.797
	c0,0,0-1.222-1.226-1.222H1.801c0,0-1.226,0-1.226,1.222v20.512c0,0,0,1.221,1.226,1.221l11.043-0.004v-8.947H9.809v-3.475h3.036
	V8.24c0,0-0.103-4.183,4.359-4.349c0,0,0.938-0.048,2.811,0.166v3.121h-1.841c0,0-1.712-0.224-1.712,1.685v2.241h3.456l-0.452,3.475
	h-2.939v8.947L22.389,23.529z"/>
</svg>
