<?xml version="1.0" encoding="utf-8"?>
<!-- Generator: Adobe Illustrator 18.1.1, SVG Export Plug-In . SVG Version: 6.00 Build 0)  -->
<svg version="1.1" id="Ebene_1" xmlns="http://www.w3.org/2000/svg" xmlns:xlink="http://www.w3.org/1999/xlink" x="0px" y="0px"
	 viewBox="0 0 26 26" enable-background="new 0 0 26 26" xml:space="preserve">
<path fill="#74787B" d="M22.1,17.7c-0.4,0-0.8,0.1-1.2,0.2L15,7.5c0.7-0.6,1.2-1.5,1.2-2.6c0-1.9-1.5-3.4-3.3-3.4
	c-1.8,0-3.3,1.5-3.3,3.4c0,1.1,0.5,2,1.3,2.6L5,17.9c-0.4-0.1-0.7-0.2-1.1-0.2c-1.8,0-3.3,1.5-3.3,3.4c0,1.9,1.5,3.4,3.3,3.4
	c1.7,0,3-1.2,3.3-2.8h11.6c0.3,1.6,1.6,2.8,3.3,2.8c1.8,0,3.3-1.5,3.3-3.4C25.5,19.2,24,17.7,22.1,17.7z M10.5,4.9
	c0-1.3,1.1-2.4,2.4-2.4c1.3,0,2.4,1.1,2.4,2.4c0,1.3-1.1,2.4-2.4,2.4C11.6,7.3,10.5,6.2,10.5,4.9z M11.7,8.1
	c0.4,0.1,0.8,0.2,1.2,0.2c0.5,0,0.9-0.1,1.3-0.3l5.9,10.4c-0.7,0.5-1.1,1.3-1.3,2.2H7.2c-0.1-0.9-0.6-1.7-1.3-2.2L11.7,8.1z
	 M3.9,23.5c-1.3,0-2.4-1.1-2.4-2.4c0-1.3,1.1-2.4,2.4-2.4c1.3,0,2.4,1.1,2.4,2.4C6.3,22.4,5.2,23.5,3.9,23.5z M22.1,23.5
	c-1.3,0-2.4-1.1-2.4-2.4c0-1.3,1.1-2.4,2.4-2.4c1.3,0,2.4,1.1,2.4,2.4C24.5,22.4,23.4,23.5,22.1,23.5z"/>
<rect x="0" y="0" fill="none" width="26" height="26"/>
</svg>
