<?xml version="1.0" encoding="utf-8"?>
<!-- Generator: Adobe Illustrator 18.1.1, SVG Export Plug-In . SVG Version: 6.00 Build 0)  -->
<svg version="1.1" id="Ebene_1" xmlns="http://www.w3.org/2000/svg" xmlns:xlink="http://www.w3.org/1999/xlink" x="0px" y="0px"
	 viewBox="0 0 26 26" enable-background="new 0 0 26 26" xml:space="preserve">
<g>
	<path fill="#74787B" d="M13.7,19.9c-0.1-0.2-0.4-0.4-0.6-0.3c-0.2,0.1-0.4,0.4-0.3,0.6l0.9,2.4H7.1l1.5-4.2c0.1-0.2,0-0.5-0.3-0.6
		c-0.3-0.1-0.5,0-0.6,0.3l-2.5,6.9c-0.1,0.2,0,0.5,0.3,0.6c0.1,0,0.1,0,0.2,0c0.2,0,0.4-0.1,0.4-0.3l0.6-1.8H14l0.7,1.8
		c0.1,0.2,0.3,0.3,0.4,0.3c0.1,0,0.1,0,0.2,0c0.2-0.1,0.4-0.4,0.3-0.6L13.7,19.9z"/>
	<path fill="#74787B" d="M22.4,17.4l-8-8l2.9-2.9c0.4,0.1,0.9,0.1,1.2-0.3c0.4-0.4,0.4-1.2,0-1.6c-0.4-0.4-1.2-0.4-1.6,0
		c-0.3,0.3-0.4,0.8-0.3,1.2l-2.9,2.9L5.4,0.4C5.3,0.3,5.1,0.2,5,0.3c-0.2,0-0.3,0.1-0.4,0.3c0,0.1-4,8.4,2.6,15
		c2.3,2.3,5.5,3.5,9.3,3.5l0,0c3.2,0,5.6-0.8,5.7-0.9c0.2-0.1,0.3-0.2,0.3-0.3C22.6,17.7,22.6,17.5,22.4,17.4z M16.5,18.1
		c-3.6,0-6.5-1.1-8.6-3.2C2.7,9.7,4.5,3.5,5.2,1.6l16,16C20.3,17.8,18.5,18.1,16.5,18.1z"/>
</g>
<rect x="0" y="0" fill="none" width="26" height="26"/>
</svg>
