<?xml version="1.0" encoding="utf-8"?>
<!-- Generator: Adobe Illustrator 18.1.1, SVG Export Plug-In . SVG Version: 6.00 Build 0)  -->
<svg version="1.1" id="Ebene_1" xmlns="http://www.w3.org/2000/svg" xmlns:xlink="http://www.w3.org/1999/xlink" x="0px" y="0px"
	 viewBox="0 0 26 26" enable-background="new 0 0 26 26" xml:space="preserve">
<path fill="#74787B" d="M25.2,2.4l-2.3-2.2l-2.6,2.6c-0.5-0.2-1.1-0.3-1.8-0.3H5.7c0,0-4.9,0.1-4.9,4.9v7.3c0,0,0.1,4.9,4.9,4.9h0.5
	l-1,6.3l6.3-6.3h7.1c0,0,4.9-0.1,4.9-4.9V7.3c0-0.1,0-1.3-0.7-2.5L25.2,2.4z M23.9,2.4l-9.1,9.1l-1.7,0.9l0.8-1.8l9.1-9.1L23.9,2.4z
	 M22.5,7.3v7.3c0,3.9-3.8,3.9-3.9,3.9h-7.5l-4.5,4.6l0.7-4.6H5.7c-3.9,0-3.9-3.8-3.9-3.9V7.3c0-3.9,3.8-3.9,3.9-3.9h12.9
	c0.4,0,0.7,0,1,0.1l-6.5,6.5l-1.9,4.4l4.1-2l6.8-6.8C22.5,6.4,22.5,7.3,22.5,7.3z"/>
<rect x="0" y="0" fill="none" width="26" height="26"/>
</svg>
