<?xml version="1.0" encoding="utf-8"?>
<!-- Generator: Adobe Illustrator 16.0.0, SVG Export Plug-In . SVG Version: 6.00 Build 0)  -->
<!DOCTYPE svg PUBLIC "-//W3C//DTD SVG 1.1//EN" "http://www.w3.org/Graphics/SVG/1.1/DTD/svg11.dtd">
<svg version="1.1" id="Ebene_1" xmlns="http://www.w3.org/2000/svg" xmlns:xlink="http://www.w3.org/1999/xlink" x="0px" y="0px"
	 width="24.665px" height="30.438px" viewBox="0 0 24.665 30.438" enable-background="new 0 0 24.665 30.438" xml:space="preserve">
<path fill="none" stroke="#FFFFFF" stroke-width="1.15" d="M4.394,12.87c0,0-3.818,0-3.818,3.818v9.357c0,0,0,3.818,3.818,3.818
	h15.878c0,0,3.818,0,3.818-3.818v-9.357c0,0,0-3.818-3.818-3.818H4.394z"/>
<path fill="none" stroke="#FFFFFF" stroke-width="1.15" d="M14.52,18.391c0-1.209-0.979-2.188-2.188-2.188
	c-1.207,0-2.188,0.979-2.188,2.188c0,0.797,0.448,1.463,1.086,1.846l-1.086,6.293h4.375l-1.085-6.293
	C14.071,19.854,14.52,19.188,14.52,18.391z"/>
<path fill="none" stroke="#FFFFFF" stroke-width="1.15" d="M4.166,12.798V7.256c0,0,0-6.681,8.166-6.681s8.166,6.681,8.166,6.681
	v5.542"/>
</svg>
