<svg xmlns="http://www.w3.org/2000/svg" width="160.746" height="85.563" viewBox="0 0 160.746 85.563"><g fill="#FFF"><path d="M67.616 38.596c-.447 0-.48 0-.955.023l-.05-.057c.025-.892.05-1.854.043-2.674-.195 0-.406-.01-.795-.01-.66 0-1.387.01-1.97.017-.008 1.512.018 2.046.06 2.643l-.042.056c-.465 0-.49 0-.955.023l-.05-.057c.033-.78.042-1.186.042-3.598 0-1.074-.024-1.457-.05-1.935l.05-.056c.432-.008.533-.008.938-.023l.043.056c-.01.47-.025 1.123-.025 2.214.44.008.676.017 1.225.017.777 0 1.133-.01 1.53-.025-.018-1.512-.018-1.688-.06-2.18l.042-.057c.456-.008.523-.008.938-.023l.043.055c-.025.773-.034 1.274-.034 2.667 0 1.545.034 2.134.085 2.866l-.05.056zM72.458 36.168c0-.334 0-.772-.06-.995-.176-.62-.785-.82-1.41-.82-.498 0-.988.104-1.463.263l-.05.048c-.008.167-.008.215-.025.58l.067.04c.355-.143.735-.302 1.285-.302.422 0 .616.15.702.295.075.128.075.278.075.493l-.146.017c-1.52.167-2.467.51-2.467 1.576 0 .787.592 1.328 1.437 1.328.642 0 1.022-.284 1.184-.404l-.01.287.034.047c.39-.016.457-.023.854-.03l.043-.04c-.044-.52-.053-.605-.053-1.593v-.79zm-.87.19v1.33c-.092.08-.396.35-.92.35-.804 0-.804-.684-.804-.724 0-.71.795-.82 1.647-.94l.08-.016zM77.75 34.48c-.018.604-.026 1.17-.026 1.815 0 .98.025 1.567.044 1.91 0 .11.007.223.016.334l-.034.048c-.405.007-.474.015-.86.03l-.052-.047.008-.333c-.186.127-.634.452-1.326.452-.33 0-.693-.072-.963-.272-.542-.413-.542-1.09-.55-1.71v-.495c-.018-1.138-.018-1.266-.043-1.694l.042-.058c.397-.008.474-.008.87-.04l.052.057-.034 1.742c0 .215-.01.375 0 .756.008.335.025 1.05.88 1.05.498 0 .853-.262 1.056-.413.01-.43.01-.796.01-1.258 0-1.106-.01-1.33-.062-1.847l.052-.056c.39-.008.48-.008.87-.03l.05.056zM81.256 37.967c-.025.263-.025.318-.033.55l-.042.047c-.177.04-.32.072-.634.072-.202 0-.735 0-.996-.414-.152-.23-.152-.422-.152-1.36l.017-1.752c-.296 0-.305.007-.608.016l-.033-.048c.016-.255.016-.318.016-.573l.05-.048c.188 0 .297.008.576 0-.01-.167-.01-.342-.01-.51l-.023-.454.042-.055c.38-.088.474-.11.862-.223l.06.04c-.026.525-.035.628-.035 1.21.355-.01.456-.01.938-.024l.042.05c-.017.206-.026.293-.026.564l-.04.048c-.423-.01-.476-.017-.922-.017l-.017 1.48c.008.096.008.55.008.662 0 .58.075.763.5.763.176 0 .312-.04.404-.07l.056.047zM85.786 37.585c-.11.087-.296.23-.61.35-.234.08-.488.12-.733.12-.263 0-.745-.04-1.09-.43-.288-.326-.313-.717-.32-.995 1.384-.01 1.613-.01 2.933 0l.057-.048c.01-.35.027-1.14-.455-1.68-.255-.287-.718-.55-1.387-.55-1.105 0-2.052.725-2.052 2.205 0 1.386.87 2.133 2.256 2.133.752 0 1.208-.23 1.354-.3l.05-.058c.017-.31.025-.39.066-.708l-.068-.04zm-.634-1.568c-.778.008-1.1.017-2.12.008.084-.796.64-1.1 1.114-1.1.38 0 .752.185.922.622.067.182.077.358.084.47zM93.85 37.943c-.027.27-.027.326-.044.597l-.06.056c-1.646 0-1.908.008-3.515.023l-.042-.057c.026-.63.052-1.06.052-2.516 0-1.337 0-2.1-.06-3.017l.05-.056c1.665-.008 1.996-.008 3.55-.023l.052.056c-.026.24-.043.335-.06.62l-.05.057c-1.09-.03-1.455-.03-2.527-.04-.025.733-.025.964-.025 1.696 1.04.008 1.36 0 2.39-.017l.044.055c-.033.28-.033.36-.043.614l-.05.055c-.98-.023-1.19-.023-2.34-.023-.018.924-.01 1.146 0 1.902 1.275 0 1.537 0 2.627-.04l.052.057zM98.294 37.647c-.034.343-.043.383-.068.71l-.06.056c-.244.11-.573.27-1.165.27-1.275 0-2.103-.868-2.103-2.11 0-1.265.81-2.22 2.12-2.22.55 0 .94.167 1.158.254l.033.056c-.033.286-.042.39-.06.63l-.067.03c-.276-.19-.598-.31-.937-.31-.7 0-1.317.51-1.317 1.528 0 1.084.65 1.474 1.31 1.474.575 0 .93-.278 1.09-.398l.068.03zM103.33 36.463c-.018-.558-.128-1.114-.516-1.537-.37-.397-.938-.572-1.513-.572-.844 0-1.334.325-1.57.557-.566.534-.584 1.314-.584 1.617 0 .262.008 1.074.584 1.623.27.264.752.535 1.513.535.59 0 1.09-.137 1.462-.486.28-.265.457-.574.55-.965.058-.24.075-.503.075-.772zm-.92.03c.007.168 0 .702-.196 1.06-.244.438-.65.533-.964.533-.168 0-.346-.03-.497-.104-.668-.318-.677-1.122-.677-1.44 0-.335.026-.797.253-1.122.295-.446.77-.462.93-.462.473 0 .743.207.904.453.21.352.245.886.245 1.084zM105.586 38.59c-.406.006-.488.014-.888.03l-.04-.057c.016-.564.04-1.28.04-2.81 0-1.1 0-2.276-.083-3.295l.042-.05c.413-.062.5-.078.922-.166l.05.055c-.06 1.044-.06 2.095-.06 3.138 0 1.743.023 2.348.066 3.104l-.05.05zM110.606 37.585c-.11.087-.296.23-.608.35-.236.08-.49.12-.735.12-.263 0-.743-.04-1.09-.43-.288-.326-.313-.717-.32-.995 1.384-.01 1.614-.01 2.932 0l.06-.048c.01-.35.023-1.14-.457-1.68-.254-.287-.718-.55-1.387-.55-1.105 0-2.052.725-2.052 2.205 0 1.386.87 2.133 2.256 2.133.753 0 1.208-.23 1.352-.3l.052-.058c.017-.31.026-.39.066-.708l-.068-.04zm-.635-1.568c-.775.008-1.096.017-2.118.008.083-.796.642-1.1 1.115-1.1.38 0 .752.185.922.622.066.182.075.358.08.47zM117.19 35.41c.615.257 1.437.59 1.437 1.61 0 .89-.703 1.694-2.174 1.694-.896 0-1.47-.254-1.673-.35l-.033-.056c.033-.28.042-.43.066-.733l.086-.03c.21.135.7.47 1.486.47.87 0 1.235-.423 1.235-.9 0-.558-.492-.772-1.04-.972l-.423-.175c-.6-.263-1.402-.605-1.402-1.576 0-.295.084-.598.262-.836.39-.525 1.09-.7 1.775-.7.668 0 1.07.12 1.52.255l.044.064c-.035.304-.044.414-.068.702l-.067.03c-.362-.175-.76-.365-1.393-.365-.702 0-1.142.31-1.142.78 0 .358.253.525.43.63.11.063.144.08.652.287l.422.174zM120.856 34.448l-.06-.048c-.38.072-.472.096-.886.16l-.043.047c.103.908.103 1.465.11 2.698 0 .47.008.94.008 1.41 0 .812-.016 1.312-.033 1.8l.043.046.886-.022.053-.048c-.043-.748-.06-.955-.066-1.91.117.01.22.016.38.016 1.78 0 2.65-1.06 2.65-2.292 0-1.123-.75-1.95-1.824-1.95-.657 0-1.063.302-1.232.43l.016-.336zm0 3.534c-.01-.46-.016-.93-.016-1.4 0-.406.007-.813.016-1.227.195-.127.516-.335.973-.335.676 0 1.14.51 1.14 1.338 0 .98-.643 1.648-1.757 1.648-.145 0-.246-.016-.357-.024zM128.684 37.585c-.11.087-.296.23-.61.35-.235.08-.488.12-.734.12-.262 0-.743-.04-1.09-.43-.288-.326-.312-.717-.322-.995 1.387-.01 1.615-.01 2.934 0l.06-.048c.008-.35.024-1.14-.458-1.68-.253-.287-.716-.55-1.385-.55-1.107 0-2.055.725-2.055 2.205 0 1.386.87 2.133 2.258 2.133.75 0 1.207-.23 1.352-.3l.05-.058c.02-.31.026-.39.067-.708l-.068-.04zm-.677-4.897c-.16.01-.32.01-.482.01s-.313 0-.497-.01l-.052.04c-.186.518-.43 1.026-.516 1.22l.034.054c.296 0 .39 0 .616.01l.06-.033c.38-.582.456-.693.87-1.226l-.033-.066zm.042 3.33c-.778.007-1.1.016-2.123.007.085-.796.644-1.1 1.117-1.1.38 0 .75.185.92.622.068.182.076.358.085.47zM133.382 37.647c-.034.343-.042.383-.067.71l-.06.056c-.245.11-.574.27-1.167.27-1.276 0-2.104-.868-2.104-2.11 0-1.265.812-2.22 2.12-2.22.552 0 .94.167 1.158.254l.034.056c-.034.286-.04.39-.06.63l-.066.03c-.28-.19-.6-.31-.938-.31-.702 0-1.318.51-1.318 1.528 0 1.084.65 1.474 1.31 1.474.573 0 .928-.278 1.09-.398l.068.03zM135.393 33.294c-.43.017-.524.023-.937.063l-.052-.047c.01-.104.01-.216.01-.318 0-.144-.01-.27-.02-.432l.062-.046c.438-.032.515-.04.937-.08l.052.048c-.01.326-.01.406 0 .756l-.052.056zm-.01 5.295c-.438.006-.506.006-.92.03l-.04-.057c.023-.42.05-.787.05-1.67 0-1.522-.026-1.81-.084-2.278l.04-.056c.362-.057.49-.072.913-.16l.083.048c-.023.415-.05.844-.05 1.87 0 1.48.017 1.68.05 2.222l-.042.05zM140.176 36.168c0-.334 0-.772-.06-.995-.176-.62-.785-.82-1.41-.82-.5 0-.99.104-1.462.263l-.052.048c-.008.167-.008.215-.023.58l.065.04c.355-.143.734-.302 1.285-.302.423 0 .617.15.7.295.076.128.076.278.076.493l-.144.017c-1.52.167-2.466.51-2.466 1.576 0 .787.59 1.328 1.435 1.328.643 0 1.023-.284 1.185-.404l-.01.287.035.047c.39-.016.457-.023.854-.03l.042-.04c-.042-.52-.05-.605-.05-1.593v-.79zm-.87.19v1.33c-.094.08-.397.35-.922.35-.803 0-.803-.684-.803-.724 0-.71.796-.82 1.65-.94l.076-.016zM142.645 38.59c-.406.006-.49.014-.888.03l-.043-.057c.018-.564.043-1.28.043-2.81 0-1.1 0-2.276-.086-3.295l.044-.05c.416-.062.5-.078.92-.166l.05.055c-.058 1.044-.058 2.095-.058 3.138 0 1.743.025 2.348.07 3.104l-.05.05zM145.162 33.294c-.432.017-.523.023-.938.063l-.05-.047c.008-.104.008-.216.008-.318 0-.144-.008-.27-.016-.432l.058-.046c.44-.032.516-.04.938-.08l.05.048c-.007.326-.007.406 0 .756l-.05.056zm-.01 5.295c-.437.006-.507.006-.92.03l-.042-.057c.025-.42.05-.787.05-1.67 0-1.522-.024-1.81-.084-2.278l.043-.056c.362-.057.49-.072.912-.16l.083.048c-.023.415-.05.844-.05 1.87 0 1.48.017 1.68.05 2.222l-.042.05zM148.5 36.176c.34.104 1.108.35 1.108 1.193 0 .318-.127.677-.474.94-.448.356-1.05.38-1.354.38-.455 0-.836-.078-1.156-.2-.043-.014-.086-.03-.127-.045l-.042-.072c.033-.31.033-.35.05-.67l.086-.022c.152.112.522.383 1.175.383.668 0 .913-.35.913-.597 0-.366-.362-.486-.88-.646l-.27-.088c-.348-.103-1.106-.333-1.106-1.154 0-.82.76-1.225 1.706-1.225.623 0 1.064.167 1.217.223l.042.056c-.034.294-.042.326-.066.628l-.075.032c-.213-.127-.542-.318-1.09-.318-.118 0-.237.008-.365.04-.255.063-.464.23-.464.478 0 .343.347.446.872.598l.302.086zM154.23 37.585c-.11.087-.295.23-.607.35-.236.08-.49.12-.736.12-.262 0-.742-.04-1.092-.43-.286-.326-.313-.717-.32-.995 1.386-.01 1.614-.01 2.933 0l.06-.048c.01-.35.025-1.14-.457-1.68-.252-.287-.717-.55-1.384-.55-1.107 0-2.053.725-2.053 2.205 0 1.386.87 2.133 2.255 2.133.753 0 1.21-.23 1.354-.3l.05-.058c.016-.31.025-.39.068-.708l-.07-.04zm-.675-4.897c-.16.01-.32.01-.482.01-.16 0-.313 0-.498-.01l-.05.04c-.187.518-.433 1.026-.517 1.22l.034.054c.296 0 .39 0 .616.01l.06-.033c.38-.582.456-.693.87-1.226l-.033-.066zm.04 3.33c-.775.007-1.097.016-2.12.007.086-.796.643-1.1 1.115-1.1.38 0 .752.185.922.622.068.182.077.358.084.47zM159.19 37.585c-.108.087-.296.23-.607.35-.238.08-.49.12-.735.12-.263 0-.744-.04-1.09-.43-.287-.326-.313-.717-.32-.995 1.385-.01 1.614-.01 2.932 0l.06-.048c.007-.35.025-1.14-.458-1.68-.253-.287-.72-.55-1.386-.55-1.106 0-2.053.725-2.053 2.205 0 1.386.87 2.133 2.257 2.133.752 0 1.207-.23 1.353-.3l.05-.058c.017-.31.024-.39.068-.708l-.07-.04zm-.632-1.568c-.778.008-1.1.017-2.12.008.083-.796.64-1.1 1.112-1.1.383 0 .755.185.923.622.068.182.076.358.085.47zM74.53 41.967c.04.46.084.94.075 1.927-.23-.017-.313-.017-.49-.017-.438 0-1.242.024-1.86.55-.354.294-.743.844-.743 1.71 0 1.21.777 2.047 1.902 2.047.617 0 .963-.255 1.165-.397l-.018.294.06.05c.39-.018.49-.024.862-.024l.042-.056c-.035-.55-.068-1.14-.068-2.372 0-.796.01-2.77.068-3.877l-.06-.048c-.38.08-.465.096-.895.168l-.04.047zm.04 5.157c-.117.096-.43.352-.945.352-.44 0-.72-.19-.87-.358-.178-.2-.314-.525-.314-.98 0-.707.306-1.082.492-1.25.406-.357.964-.372 1.226-.372.18 0 .28.015.422.022.008 1.306.008 1.544-.01 2.586zM80.487 47.093c-.11.088-.296.23-.608.35-.238.08-.49.12-.737.12-.26 0-.742-.04-1.09-.43-.285-.326-.312-.717-.32-.995 1.386-.008 1.614-.008 2.933 0l.06-.047c.008-.35.023-1.138-.458-1.68-.253-.286-.717-.55-1.385-.55-1.107 0-2.054.726-2.054 2.206 0 1.386.87 2.134 2.256 2.134.752 0 1.208-.23 1.352-.303l.05-.056c.02-.31.026-.39.068-.707l-.07-.04zm-.633-1.57c-.777.01-1.1.018-2.12.01.083-.797.64-1.1 1.114-1.1.38 0 .752.185.92.62.07.185.077.36.086.47zM87.07 44.92c.617.255 1.438.59 1.438 1.608 0 .89-.702 1.695-2.173 1.695-.896 0-1.47-.254-1.673-.352l-.033-.054c.032-.278.04-.43.065-.732l.085-.032c.21.136.702.47 1.487.47.87 0 1.234-.42 1.234-.898 0-.558-.49-.772-1.04-.972l-.422-.175c-.6-.263-1.403-.605-1.403-1.576 0-.294.086-.598.263-.836.39-.524 1.09-.7 1.775-.7.667 0 1.072.12 1.52.255l.043.062c-.034.303-.042.414-.068.7l-.067.032c-.362-.175-.76-.365-1.394-.365-.7 0-1.14.31-1.14.778 0 .358.252.525.43.63.11.063.144.078.65.286l.424.176zM93.553 43.988c-.017.604-.026 1.17-.026 1.815 0 .98.026 1.568.044 1.91 0 .112.01.224.017.335l-.033.048c-.405.008-.475.015-.862.03l-.05-.047.008-.335c-.187.126-.635.454-1.326.454-.33 0-.693-.073-.965-.272-.54-.414-.54-1.09-.55-1.71v-.495c-.017-1.138-.017-1.266-.043-1.695l.044-.056c.397-.008.473-.008.87-.04l.052.056-.034 1.743c0 .217-.01.375 0 .757.008.335.025 1.052.878 1.052.5 0 .854-.264 1.058-.416.01-.43.01-.795.01-1.257 0-1.107-.01-1.33-.062-1.847l.052-.056c.39-.008.48-.008.87-.032l.05.056zM96.063 42.802c-.433.017-.525.024-.94.064l-.05-.048c.01-.104.01-.215.01-.318 0-.144-.01-.27-.018-.43l.06-.048c.44-.03.516-.04.938-.08l.05.05c-.008.324-.008.404 0 .754l-.05.056zm-.01 5.295c-.438.008-.507.008-.92.03l-.042-.055c.025-.422.05-.788.05-1.672 0-1.52-.024-1.808-.083-2.276l.043-.056c.363-.056.49-.072.912-.16l.084.05c-.025.412-.05.843-.05 1.87 0 1.48.018 1.68.05 2.22l-.042.05zM99.4 45.685c.34.103 1.107.35 1.107 1.193 0 .318-.127.677-.473.94-.45.357-1.05.382-1.354.382-.456 0-.836-.08-1.157-.2-.042-.016-.085-.03-.126-.047l-.043-.07c.034-.313.034-.352.05-.67l.086-.024c.15.11.523.38 1.175.38.667 0 .912-.35.912-.596 0-.365-.363-.486-.88-.645l-.27-.088c-.346-.104-1.107-.335-1.107-1.155s.762-1.226 1.708-1.226c.625 0 1.064.168 1.217.224l.042.056c-.033.295-.042.327-.067.63l-.076.03c-.21-.127-.54-.317-1.09-.317-.118 0-.237.008-.364.04-.253.063-.465.23-.465.477 0 .343.347.446.872.597l.304.088zM103.474 45.685c.338.103 1.106.35 1.106 1.193 0 .318-.125.677-.474.94-.446.357-1.048.382-1.35.382-.458 0-.84-.08-1.158-.2-.043-.016-.086-.03-.127-.047l-.04-.07c.032-.313.032-.352.05-.67l.084-.024c.152.11.523.38 1.174.38.667 0 .912-.35.912-.596 0-.365-.362-.486-.878-.645l-.27-.088c-.35-.104-1.108-.335-1.108-1.155s.76-1.226 1.708-1.226c.625 0 1.063.168 1.217.224l.04.056c-.033.295-.04.327-.066.63l-.076.03c-.21-.127-.542-.317-1.09-.317-.12 0-.237.008-.363.04-.255.063-.466.23-.466.477 0 .343.347.446.87.597l.304.088zM109.203 47.093c-.11.088-.296.23-.61.35-.234.08-.488.12-.732.12-.262 0-.743-.04-1.09-.43-.286-.326-.313-.717-.32-.995 1.385-.008 1.613-.008 2.932 0l.06-.047c.01-.35.026-1.138-.456-1.68-.255-.286-.72-.55-1.387-.55-1.107 0-2.056.726-2.056 2.206 0 1.386.87 2.134 2.257 2.134.754 0 1.21-.23 1.354-.303l.05-.056c.018-.31.027-.39.068-.707l-.07-.04zm-.633-1.57c-.778.01-1.1.018-2.12.01.083-.797.64-1.1 1.114-1.1.38 0 .75.185.92.62.07.185.077.36.086.47zM117.535 45.97c-.016-.556-.126-1.112-.515-1.535-.37-.398-.938-.573-1.513-.573-.846 0-1.336.326-1.57.558-.568.533-.584 1.313-.584 1.615 0 .263.01 1.075.583 1.625.27.262.752.532 1.512.532.59 0 1.09-.135 1.463-.485.28-.263.456-.572.55-.963.06-.24.075-.502.075-.773zm-.92.033c.008.167 0 .7-.195 1.06-.244.437-.65.532-.963.532-.17 0-.346-.03-.498-.104-.67-.317-.678-1.12-.678-1.44 0-.334.026-.796.255-1.12.295-.447.768-.463.93-.463.472 0 .743.206.904.453.21.35.245.884.245 1.083zM122.058 47.157c-.033.342-.043.382-.066.708l-.06.056c-.247.112-.575.272-1.167.272-1.275 0-2.105-.867-2.105-2.11 0-1.265.812-2.22 2.12-2.22.55 0 .94.167 1.16.255l.033.056c-.034.286-.042.39-.06.63l-.067.03c-.277-.19-.6-.31-.938-.31-.702 0-1.318.51-1.318 1.527 0 1.084.65 1.474 1.31 1.474.575 0 .93-.28 1.092-.4l.066.033zM126.31 47.157c-.036.342-.042.382-.07.708l-.058.056c-.244.112-.575.272-1.165.272-1.277 0-2.106-.867-2.106-2.11 0-1.265.814-2.22 2.123-2.22.55 0 .938.167 1.158.255l.034.056c-.033.286-.042.39-.06.63l-.067.03c-.278-.19-.6-.31-.938-.31-.7 0-1.32.51-1.32 1.527 0 1.084.652 1.474 1.31 1.474.576 0 .932-.28 1.092-.4l.068.033zM128.32 42.802c-.432.017-.525.024-.938.064l-.053-.048c.008-.104.008-.215.008-.318 0-.144-.01-.27-.016-.43l.06-.048c.438-.03.515-.04.938-.08l.05.05c-.01.324-.01.404 0 .754l-.05.056zm-.008 5.295c-.438.008-.507.008-.92.03l-.044-.055c.025-.422.05-.788.05-1.672 0-1.52-.024-1.808-.084-2.276l.044-.056c.362-.056.488-.072.91-.16l.086.05c-.026.412-.053.843-.053 1.87 0 1.48.02 1.68.054 2.22l-.042.05zM132.664 41.967c.042.46.084.94.075 1.927-.23-.017-.313-.017-.49-.017-.44 0-1.244.024-1.86.55-.354.294-.744.844-.744 1.71 0 1.21.777 2.047 1.902 2.047.617 0 .963-.255 1.168-.397l-.02.294.06.05c.39-.018.49-.024.863-.024l.04-.056c-.034-.55-.067-1.14-.067-2.372 0-.796.01-2.77.067-3.877l-.06-.048c-.378.08-.463.096-.895.168l-.04.047zm.042 5.157c-.118.096-.432.352-.947.352-.44 0-.72-.19-.87-.358-.18-.2-.314-.525-.314-.98 0-.707.307-1.082.49-1.25.406-.357.963-.372 1.227-.372.177 0 .278.015.424.022.006 1.306.006 1.544-.01 2.586zM138.622 47.093c-.11.088-.296.23-.608.35-.238.08-.49.12-.735.12-.264 0-.745-.04-1.09-.43-.29-.326-.314-.717-.323-.995 1.386-.008 1.614-.008 2.932 0l.06-.047c.008-.35.026-1.138-.456-1.68-.254-.286-.72-.55-1.387-.55-1.107 0-2.054.726-2.054 2.206 0 1.386.87 2.134 2.257 2.134.75 0 1.21-.23 1.352-.303l.052-.056c.016-.31.024-.39.067-.707l-.068-.04zm-.635-1.57c-.776.01-1.098.018-2.12.01.085-.797.642-1.1 1.116-1.1.378 0 .75.185.92.62.067.185.077.36.084.47zM143.888 48.097c-.408.008-.458.008-.848.03l-.058-.055c0-.088.01-.175.01-.263.007-.392.007-.78.007-1.172 0-1.225-.01-1.305-.052-1.472-.16-.604-.643-.604-.76-.604-.51 0-.896.277-1.124.445-.01 1.385.008 2.11.066 3.04l-.05.05c-.414.007-.483.007-.888.03l-.042-.056c.01-.445.024-.875.024-1.463 0-1.274-.06-1.95-.1-2.484l.05-.056c.422-.072.497-.088.895-.16l.06.057-.01.414c.22-.144.745-.494 1.488-.494.212 0 .474.032.702.15.218.12.397.304.488.52.11.237.118.477.128.97v.933c.023.93.033 1.29.06 1.592l-.048.047zM147.385 47.476c-.024.262-.024.318-.033.55l-.043.047c-.178.04-.32.072-.634.072-.204 0-.735 0-1-.414-.15-.23-.15-.42-.15-1.36l.017-1.75c-.296 0-.303.006-.608.015l-.033-.048c.017-.256.017-.32.017-.573l.05-.048c.186 0 .298.008.574 0-.008-.167-.008-.343-.008-.51l-.026-.454.043-.056c.38-.087.474-.11.86-.223l.06.04c-.023.525-.032.63-.032 1.21.355-.008.456-.008.94-.023l.043.047c-.018.208-.026.295-.026.566l-.042.047c-.423-.008-.474-.017-.92-.017l-.02 1.48c.01.097.01.55.01.662 0 .58.076.764.498.764.18 0 .314-.04.406-.072l.055.048zM151.703 45.677c0-.335 0-.773-.06-.996-.176-.62-.785-.818-1.41-.818-.5 0-.988.104-1.462.263l-.05.048c-.01.167-.01.215-.026.58l.068.04c.356-.143.735-.302 1.283-.302.423 0 .618.152.7.296.08.127.08.278.08.493l-.146.015c-1.522.167-2.47.51-2.47 1.577 0 .788.593 1.33 1.44 1.33.64 0 1.02-.288 1.18-.407l-.006.286.033.05c.39-.018.456-.024.853-.032l.044-.04c-.044-.518-.052-.604-.052-1.592v-.79zm-.87.19v1.33c-.094.08-.397.35-.92.35-.805 0-.805-.685-.805-.725 0-.708.795-.82 1.65-.94l.074-.015zM154.172 48.097c-.407.008-.49.015-.89.03l-.04-.055c.017-.564.04-1.282.04-2.81 0-1.1 0-2.277-.082-3.296l.04-.048c.416-.063.5-.08.923-.168l.05.057c-.06 1.043-.06 2.094-.06 3.136 0 1.744.025 2.35.07 3.105l-.05.05zM159.19 47.093c-.108.088-.296.23-.607.35-.238.08-.49.12-.735.12-.263 0-.744-.04-1.09-.43-.287-.326-.313-.717-.32-.995 1.385-.008 1.614-.008 2.932 0l.06-.047c.007-.35.025-1.138-.458-1.68-.253-.286-.72-.55-1.386-.55-1.106 0-2.053.726-2.053 2.206 0 1.386.87 2.134 2.257 2.134.752 0 1.207-.23 1.353-.303l.05-.056c.017-.31.024-.39.068-.707l-.07-.04zm-.632-1.57c-.778.01-1.1.018-2.12.01.083-.797.64-1.1 1.112-1.1.383 0 .755.185.923.62.068.185.076.36.085.47zM43.848 59.583c-.837-.023-1.005-.023-2.01-.032-.018.344-.018 1.563.05 2.43l-.042.057c-.465 0-.532.006-.98.022l-.043-.057c.034-.605.05-1.066.05-3.415 0-1.13-.023-1.63-.05-2.116l.043-.057c.584.008 2.822-.008 3.405-.024l.043.057c-.032.287-.032.327-.05.637l-.052.05c-1.046-.025-1.333-.033-2.364-.033-.01.328-.025 1.13-.025 1.602v.183c.965-.008 1.252-.017 2.097-.04l.042.048c-.035.366-.035.405-.06.637l-.052.053zM48.287 59.608c0-.335 0-.773-.06-.996-.178-.62-.785-.82-1.41-.82-.5 0-.99.104-1.463.264l-.05.047c-.01.168-.01.216-.027.58l.068.04c.355-.142.735-.302 1.285-.302.423 0 .617.15.7.296.076.127.076.278.076.493l-.143.015c-1.52.167-2.468.51-2.468 1.576 0 .79.59 1.33 1.437 1.33.643 0 1.022-.285 1.183-.406l-.01.287.036.05c.39-.018.457-.023.854-.032l.043-.04c-.043-.518-.05-.604-.05-1.592v-.788zm-.87.19v1.33c-.094.08-.397.35-.922.35-.804 0-.804-.685-.804-.725 0-.708.796-.82 1.65-.938l.076-.017zM53.02 61.087c-.034.342-.043.383-.067.71l-.06.056c-.244.11-.574.27-1.166.27-1.276 0-2.104-.867-2.104-2.108 0-1.267.812-2.222 2.12-2.222.55 0 .94.167 1.158.256l.036.054c-.035.287-.042.39-.06.63l-.067.03c-.28-.19-.6-.31-.94-.31-.7 0-1.317.51-1.317 1.528 0 1.082.65 1.473 1.31 1.473.575 0 .93-.278 1.09-.398l.067.03zM57.836 62.027c-.405.01-.455.01-.845.03l-.06-.055.01-.262c.01-.414.01-.837.01-1.25l-.01-.85c0-.184 0-.366-.042-.542-.093-.366-.33-.604-.76-.604-.482 0-.854.254-1.134.445-.008 1.384.01 2.108.06 3.04l-.042.048c-.388.01-.49.01-.904.03l-.042-.055c.017-.564.042-1.28.042-2.81 0-.67-.01-1.338-.018-2.006-.017-.7-.042-.932-.066-1.29l.042-.048c.405-.064.54-.09.92-.168l.053.056c-.053.853-.053 1.712-.053 2.57.27-.166.803-.493 1.513-.493.194 0 .39.024.566.097.38.144.61.43.692.755.043.16.043.256.06.79v.93l.008.375c.018.667.018.78.052 1.218l-.052.047zM63.145 62.027c-.407.01-.457.01-.847.03l-.06-.055.01-.262c.008-.414.008-.837.008-1.25l-.008-.852c0-.184 0-.366-.042-.542-.093-.366-.33-.604-.76-.604-.483 0-.855.254-1.134.445-.01 1.385.01 2.11.06 3.04l-.042.05c-.39.008-.49.008-.905.03L59.383 62c.018-.563.042-1.28.042-2.81 0-.668-.007-1.337-.017-2.005-.017-.7-.043-.932-.067-1.29l.043-.048c.406-.063.54-.088.92-.167l.053.056c-.052.853-.052 1.712-.052 2.57.27-.166.804-.493 1.513-.493.194 0 .39.024.566.097.38.144.608.43.693.755.042.16.042.256.06.79v.93l.01.375c.015.667.015.78.048 1.218l-.05.05zM68.67 59.9c-.016-.556-.126-1.112-.515-1.535-.372-.397-.938-.573-1.514-.573-.843 0-1.334.326-1.57.558-.565.533-.582 1.313-.582 1.616 0 .262.008 1.075.582 1.623.27.263.753.533 1.514.533.59 0 1.09-.136 1.46-.486.28-.262.458-.573.55-.962.06-.24.077-.503.077-.774zm-.92.033c.008.168 0 .702-.194 1.06-.245.437-.65.534-.964.534-.17 0-.348-.032-.498-.104-.668-.318-.677-1.123-.677-1.44 0-.335.025-.798.253-1.122.296-.447.77-.463.93-.463.475 0 .743.208.905.454.212.352.245.884.245 1.083zM73.192 61.087c-.034.342-.043.383-.068.71l-.058.056c-.246.11-.576.27-1.168.27-1.275 0-2.104-.867-2.104-2.108 0-1.267.813-2.222 2.122-2.222.55 0 .938.167 1.157.256l.034.054c-.034.287-.04.39-.06.63l-.066.03c-.28-.19-.6-.31-.937-.31-.702 0-1.318.51-1.318 1.528 0 1.082.65 1.473 1.31 1.473.574 0 .93-.278 1.09-.398l.067.03zM78.01 62.027c-.406.01-.457.01-.846.03l-.06-.055.01-.262c.01-.414.01-.837.01-1.25l-.01-.852c0-.184 0-.366-.043-.542-.093-.366-.328-.604-.76-.604-.482 0-.854.254-1.132.445-.01 1.385.007 2.11.06 3.04l-.043.05c-.39.008-.49.008-.905.03L74.248 62c.017-.563.042-1.28.042-2.81 0-.668-.007-1.337-.017-2.005-.017-.7-.043-.932-.067-1.29l.042-.048c.405-.063.542-.088.922-.167l.05.056c-.05.853-.05 1.712-.05 2.57.27-.166.802-.493 1.512-.493.194 0 .39.024.567.097.38.144.606.43.69.755.043.16.043.256.06.79v.93l.01.375c.017.667.017.78.05 1.218l-.05.05zM81.355 59.614c.338.104 1.107.352 1.107 1.195 0 .317-.127.675-.473.938-.45.358-1.05.382-1.355.382-.455 0-.836-.08-1.157-.2l-.126-.046-.044-.072c.035-.312.035-.35.052-.668l.085-.024c.15.11.523.38 1.174.38.667 0 .912-.35.912-.596 0-.366-.363-.485-.88-.644l-.27-.09c-.347-.103-1.107-.332-1.107-1.152s.76-1.227 1.708-1.227c.624 0 1.063.168 1.216.224l.042.057c-.034.295-.043.326-.067.63l-.075.03c-.21-.126-.54-.318-1.09-.318-.12 0-.237.01-.364.042-.254.063-.464.23-.464.476 0 .344.345.446.87.598l.303.086zM86.824 61.087c-.035.342-.043.383-.068.71l-.06.056c-.244.11-.574.27-1.165.27-1.276 0-2.104-.867-2.104-2.108 0-1.267.812-2.222 2.12-2.222.55 0 .94.167 1.16.256l.033.054c-.035.287-.045.39-.06.63l-.07.03c-.277-.19-.598-.31-.937-.31-.7 0-1.318.51-1.318 1.528 0 1.082.65 1.473 1.31 1.473.575 0 .93-.278 1.09-.398l.07.03zM91.64 62.027c-.404.01-.455.01-.844.03l-.06-.055.008-.262c.01-.414.01-.837.01-1.25l-.01-.852c0-.184 0-.366-.042-.542-.093-.366-.33-.604-.76-.604-.48 0-.854.254-1.134.445-.008 1.385.01 2.11.06 3.04l-.042.05c-.39.008-.49.008-.904.03L87.88 62c.017-.563.042-1.28.042-2.81 0-.668-.01-1.337-.018-2.005-.016-.7-.04-.932-.066-1.29l.042-.048c.405-.063.54-.088.92-.167l.053.056c-.052.853-.052 1.712-.052 2.57.272-.166.804-.493 1.514-.493.194 0 .39.024.567.097.38.144.61.43.692.755.043.16.043.256.06.79v.93l.008.375c.02.667.02.78.052 1.218l-.052.05zM96.94 57.92c-.018.604-.027 1.17-.027 1.814 0 .98.026 1.568.043 1.91 0 .112.01.223.018.335l-.034.047c-.406.01-.473.015-.862.03l-.05-.047.008-.334c-.186.127-.635.454-1.326.454-.33 0-.692-.072-.965-.27-.54-.415-.54-1.092-.55-1.712v-.495c-.017-1.138-.017-1.265-.04-1.695l.04-.055c.4-.01.475-.01.872-.04l.05.055-.034 1.744c0 .215-.008.374 0 .756.01.334.027 1.05.88 1.05.5 0 .853-.262 1.056-.413.01-.43.01-.795.01-1.258 0-1.106-.01-1.33-.06-1.846l.05-.056c.39-.01.48-.01.87-.03l.05.055zM99.424 62.027c-.405.01-.49.015-.887.03l-.043-.055c.018-.564.043-1.28.043-2.81 0-1.1 0-2.276-.084-3.296l.04-.048c.415-.063.5-.08.923-.167l.05.057c-.06 1.043-.06 2.094-.06 3.137 0 1.743.025 2.348.068 3.104l-.05.05zM104.444 61.023c-.11.09-.298.23-.61.352-.235.08-.488.12-.734.12-.262 0-.743-.04-1.09-.432-.288-.326-.312-.716-.32-.995 1.386-.007 1.613-.007 2.932 0l.06-.047c.01-.35.024-1.138-.457-1.68-.253-.285-.72-.55-1.386-.55-1.107 0-2.054.726-2.054 2.205 0 1.387.87 2.135 2.256 2.135.752 0 1.207-.23 1.352-.303l.052-.056c.016-.31.024-.39.066-.708l-.068-.04zm-.632-1.567c-.778.008-1.1.016-2.122.008.083-.797.642-1.1 1.114-1.1.38 0 .752.185.922.622.067.183.075.36.086.47zM114.196 62.036c-.575 0-.66 0-1.217.022l-.06-.056c-.137-.796-.188-1.027-.306-1.607l-.693-3.432-.7 3.248c-.042.217-.085.44-.135.654-.068.342-.193.924-.23 1.114l-.05.057c-.608 0-.642.006-1.226.022l-.06-.056c-.15-.716-.853-3.73-1.31-5.53l.042-.057c.474 0 .55-.008.963-.024l.05.055c.053.28.104.534.18.932.067.358.134.71.202 1.06l.616 3.04.71-3.525c.118-.582.137-.677.288-1.48l.052-.057c.642-.008.753-.008 1.343-.024l.052.057.024.2c.035.206.23 1.226.28 1.496l.668 3.358.658-3.143c.313-1.537.322-1.57.365-1.886l.05-.056c.39 0 .474-.008.83-.024l.04.056c-.193.62-.242.836-.71 2.77-.21.87-.437 1.73-.623 2.597-.01.055-.027.112-.034.167l-.057.056zM119.86 61.023c-.11.09-.297.23-.61.352-.235.08-.488.12-.733.12-.262 0-.744-.04-1.09-.432-.287-.326-.313-.716-.32-.995 1.384-.007 1.613-.007 2.932 0l.058-.047c.008-.35.026-1.138-.456-1.68-.253-.285-.72-.55-1.386-.55-1.106 0-2.055.726-2.055 2.205 0 1.387.873 2.135 2.258 2.135.752 0 1.208-.23 1.353-.303l.05-.056c.02-.31.027-.39.068-.708l-.07-.04zm-.633-1.567c-.777.008-1.1.016-2.12.008.083-.797.64-1.1 1.114-1.1.38 0 .753.185.922.622.067.183.076.36.085.47zM123.164 59.614c.338.104 1.108.352 1.108 1.195 0 .317-.127.675-.474.938-.448.358-1.05.382-1.353.382-.455 0-.836-.08-1.157-.2-.043-.015-.086-.03-.127-.046l-.04-.072c.032-.312.032-.35.05-.668l.084-.024c.152.11.522.38 1.175.38.667 0 .91-.35.91-.596 0-.366-.363-.485-.878-.644l-.27-.09c-.348-.103-1.106-.332-1.106-1.152s.76-1.227 1.706-1.227c.624 0 1.065.168 1.217.224l.042.057c-.033.295-.043.326-.068.63l-.075.03c-.213-.126-.543-.318-1.09-.318-.12 0-.238.01-.366.042-.253.063-.463.23-.463.476 0 .344.347.446.87.598l.304.086zM127.39 61.406c-.026.263-.026.317-.032.55l-.044.047c-.178.04-.32.072-.633.072-.203 0-.734 0-.997-.414-.152-.23-.152-.42-.152-1.36l.02-1.75c-.3 0-.305.006-.61.016l-.032-.05c.016-.254.016-.317.016-.572l.052-.048c.185 0 .296.01.575 0-.01-.167-.01-.343-.01-.51l-.024-.454.043-.055c.38-.09.474-.11.86-.224l.06.04c-.024.526-.035.63-.035 1.21.356-.008.458-.008.94-.023l.04.048c-.016.207-.024.294-.024.565l-.04.047c-.424-.008-.475-.016-.923-.016l-.016 1.48c.01.096.01.55.01.66 0 .582.075.764.498.764.178 0 .312-.04.404-.07l.06.048zM130.263 59.614c.34.104 1.108.352 1.108 1.195 0 .317-.126.675-.474.938-.447.358-1.047.382-1.353.382-.456 0-.835-.08-1.156-.2-.043-.015-.087-.03-.128-.046l-.042-.072c.033-.312.033-.35.05-.668l.085-.024c.15.11.524.38 1.174.38.67 0 .914-.35.914-.596 0-.366-.363-.485-.88-.644l-.27-.09c-.347-.103-1.107-.332-1.107-1.152s.76-1.227 1.708-1.227c.626 0 1.065.168 1.22.224l.04.057c-.034.295-.04.326-.067.63l-.077.03c-.21-.126-.54-.318-1.088-.318-.12 0-.24.01-.365.042-.253.063-.465.23-.465.476 0 .344.348.446.87.598l.305.086zM135.73 61.087c-.033.342-.043.383-.067.71l-.058.056c-.246.11-.576.27-1.168.27-1.275 0-2.104-.867-2.104-2.108 0-1.267.813-2.222 2.123-2.222.548 0 .937.167 1.156.256l.033.054c-.033.287-.04.39-.06.63l-.066.03c-.28-.19-.6-.31-.94-.31-.7 0-1.317.51-1.317 1.528 0 1.082.65 1.473 1.31 1.473.574 0 .93-.278 1.09-.398l.068.03zM140.548 62.027c-.405.01-.456.01-.846.03l-.06-.055.01-.262c.008-.414.008-.837.008-1.25l-.007-.852c0-.184 0-.366-.043-.542-.092-.366-.33-.604-.76-.604-.483 0-.855.254-1.134.445-.01 1.385.008 2.11.06 3.04l-.042.05c-.39.008-.49.008-.904.03l-.043-.056c.018-.563.043-1.28.043-2.81 0-.668-.01-1.337-.018-2.005-.016-.7-.043-.932-.068-1.29l.043-.048c.405-.063.54-.088.92-.167l.053.056c-.052.853-.052 1.712-.052 2.57.272-.166.804-.493 1.513-.493.196 0 .39.024.568.097.38.144.607.43.692.755.043.16.043.256.06.79v.93l.008.375c.017.667.017.78.05 1.218l-.05.05zM146.945 62.027c-.567.01-.633.01-1.148.03l-.06-.055c-.102-.485-.263-1.13-.406-1.695l-.488-1.91-.5 1.96c-.253.96-.337 1.27-.414 1.622l-.05.047c-.592.01-.634.01-1.167.03l-.05-.055c-.37-1.425-1.005-3.51-1.182-4.035l.033-.056c.405-.024.517-.024.92-.063l.053.048c.05.264.11.51.475 1.982l.405 1.64.548-2.142c.256-1.058.272-1.162.322-1.417l.06-.055c.5 0 .642 0 1.2-.024l.05.055c.12.55.32 1.313.474 1.92l.448 1.687.474-1.855c.066-.278.135-.557.202-.836.144-.54.16-.603.212-.906l.06-.048c.135 0 .277.01.413.01.127 0 .253-.01.38-.01l.052.048c-.16.453-.904 2.675-1.252 4.036l-.06.047zM152.625 61.023c-.11.09-.296.23-.608.352-.237.08-.49.12-.735.12-.262 0-.743-.04-1.092-.432-.286-.326-.313-.716-.32-.995 1.386-.007 1.613-.007 2.933 0l.06-.047c.008-.35.025-1.138-.457-1.68-.254-.285-.72-.55-1.385-.55-1.106 0-2.053.726-2.053 2.205 0 1.387.87 2.135 2.256 2.135.753 0 1.21-.23 1.353-.303l.05-.056c.017-.31.025-.39.068-.708l-.07-.04zm-.635-1.567c-.776.008-1.098.016-2.12.008.085-.797.64-1.1 1.116-1.1.38 0 .75.185.92.622.07.183.077.36.084.47zM155.083 56.733c-.43.016-.523.023-.938.064l-.05-.05c.007-.103.007-.213.007-.317 0-.144-.007-.27-.017-.43l.06-.048c.44-.032.515-.04.938-.08l.052.048c-.008.327-.008.407 0 .757l-.052.056zm-.007 5.294c-.44.01-.508.01-.922.03l-.042-.055c.025-.422.05-.788.05-1.67 0-1.522-.024-1.81-.085-2.277l.043-.057c.365-.056.49-.07.913-.16l.083.048c-.023.415-.05.845-.05 1.87 0 1.482.017 1.682.05 2.223l-.04.047zM159.46 62.036l-1.654.006c-.99 0-1.1 0-1.614.017l-.034-.072c.642-1.003 1.665-2.707 2.095-3.47-1.114.007-1.317.007-1.86.03l-.04-.048c.033-.262.04-.325.06-.548l.05-.048c1.42 0 1.58 0 3.05-.024l.045.063c-.754 1.162-1.825 3.058-2.055 3.463.728-.01 1.453-.023 2.028-.05l.043.05c-.034.246-.042.35-.06.59l-.052.04zM134.7 13.867c1.466.45 4.804 1.52 4.804 5.183 0 1.383-.55 2.938-2.055 4.078-1.944 1.556-4.55 1.658-5.87 1.658-1.98 0-3.632-.345-5.024-.863-.185-.068-.367-.138-.55-.207l-.186-.312c.148-1.348.148-1.52.22-2.902l.368-.104c.66.484 2.273 1.66 5.1 1.66 2.897 0 3.962-1.522 3.962-2.593 0-1.59-1.577-2.107-3.815-2.8l-1.175-.38c-1.504-.45-4.805-1.45-4.805-5.01s3.3-5.322 7.41-5.322c2.716 0 4.62.727 5.282.968l.185.243c-.146 1.278-.185 1.416-.296 2.73l-.33.138c-.916-.553-2.346-1.382-4.73-1.382-.514 0-1.027.035-1.578.174-1.1.275-2.018 1-2.018 2.072 0 1.486 1.504 1.937 3.78 2.592l1.32.38zM160.746 15.11c-.074-2.418-.55-4.838-2.238-6.67-1.614-1.728-4.072-2.487-6.566-2.487-3.67 0-5.797 1.417-6.825 2.42-2.455 2.314-2.53 5.7-2.53 7.014 0 1.14.037 4.665 2.53 7.05 1.175 1.14 3.266 2.316 6.567 2.316 2.57 0 4.733-.59 6.347-2.11 1.213-1.14 1.98-2.487 2.385-4.18.257-1.036.33-2.178.33-3.353zm-4 .138c.037.726 0 3.042-.844 4.597-1.063 1.9-2.823 2.315-4.18 2.315-.736 0-1.507-.14-2.167-.45-2.898-1.38-2.935-4.872-2.935-6.254 0-1.45.11-3.455 1.102-4.873 1.283-1.935 3.338-2.004 4.035-2.004 2.055 0 3.228.897 3.925 1.97.92 1.52 1.064 3.836 1.064 4.698zM121.49 15.396c0 1.205-.978 2.184-2.185 2.184-1.206 0-2.184-.98-2.184-2.184 0-1.206.98-2.185 2.185-2.185 1.208 0 2.184.98 2.184 2.186zM71.23.207c-.038 2.66-.074 4.285-.074 6.704 0 5.806.11 11.577.403 17.383l-.185.207c-3.118-.035-3.852 0-6.604.104l-.182-.207c.183-4.872.183-6.013.11-10.677-1.468-.035-2.936-.07-4.402-.07-1.43 0-2.79.035-4.402.105.036 5.01.072 6.254.293 10.54l-.183.205c-3.228-.035-3.89 0-6.566.104l-.184-.207c.074-2.902.147-4.596.147-7.706 0-8.568-.22-12.82-.403-16.38l.22-.206c3.19 0 3.742 0 6.567-.104l.183.207-.072 9.123c1.283 0 2.604.034 3.888.034 1.652 0 3.266-.034 4.88-.07-.036-4.076-.036-5.078-.295-8.984l.185-.206c3.082 0 3.558 0 6.493-.104l.183.207zM92.5 19.387c-1.396.69-3.047 1.485-5.724 1.485-2.2 0-3.706-.657-4.587-1.9-.55-.726-.66-1.418-.807-2.11l11.85-.206.22-.24c-.036-1.693-.073-3.423-.586-5.15-1.285-4.077-4.11-4.906-5.357-5.184-.917-.24-1.76-.31-2.604-.31-5.76 0-9.575 3.56-9.575 9.537 0 1.622.295 3.315.882 4.525 2.128 4.665 7.117 5.08 9.76 5.08 3.044 0 4.365-.52 6.308-1.244l.22-.275.258-3.904-.26-.103zM81.383 13.2c.11-1.07.365-2.52 1.76-3.352.44-.276.956-.38 1.47-.38 1.21 0 1.94.587 2.347 1.21.514.76.55 1.588.55 2.383l-6.126.14zM107.98 13.2c2.018.727 4.842 1.73 4.842 5.528 0 .242 0 .484-.038.762-.66 4.94-6.16 5.425-8.95 5.425-2.676 0-4.218-.553-6.016-1.175l-.184-.312c.147-1.728.184-2.107.257-3.904l.33-.138c.55.414.846.656 1.47.967 1.356.656 2.86.968 3.888.968 2.054 0 2.898-.933 2.898-1.796 0-1.244-1.616-1.764-2.605-2.073l-1.394-.483c-1.724-.622-4.77-1.728-4.77-5.426 0-1.38.515-2.417.99-3.04 1.91-2.59 5.505-2.728 7.302-2.728 2.385 0 3.89.413 5.61.863l.186.207-.366 3.768-.332.104c-.915-.554-2.347-1.45-4.583-1.45-2.275 0-2.57 1.14-2.57 1.554 0 .968.99 1.347 2.24 1.762l1.796.62zM129.068 73.75c-.85.12-1.643.23-1.643.938 0 .04 0 .723.8.723.523 0 .827-.27.92-.348v-1.327l-.077.016zm.946.58c0 .984.008 1.072.05 1.59l-.042.04c-.397.006-.464.014-.852.03l-.033-.048.01-.285c-.16.118-.54.404-1.18.404-.844 0-1.435-.54-1.435-1.324 0-1.065.944-1.407 2.462-1.573l.143-.016c0-.215 0-.365-.075-.492-.085-.144-.28-.294-.7-.294-.548 0-.927.16-1.28.303l-.068-.04c.018-.365.018-.413.025-.58l.05-.047c.472-.16.96-.263 1.458-.263.623 0 1.23.2 1.407.818.06.223.06.66.06.994v.786zM135.164 75.96c-.403.006-.453.006-.842.03l-.06-.056c0-.088.01-.175.01-.263.008-.388.008-.777.008-1.166 0-1.223-.01-1.303-.05-1.47-.16-.603-.642-.603-.758-.603-.506 0-.896.278-1.122.445-.01 1.382.008 2.104.067 3.034l-.05.047c-.413.007-.48.007-.886.03l-.042-.055c.01-.444.027-.873.027-1.46 0-1.272-.06-1.946-.1-2.48l.048-.055c.42-.07.497-.088.893-.16l.06.057-.01.413c.22-.144.743-.492 1.485-.492.21 0 .474.03.7.15.22.12.396.302.49.517.107.238.115.476.125.97v.928c.024.93.033 1.286.058 1.59l-.05.05zM139.323 72.408c-.144-.007-.244-.023-.42-.023-.263 0-.818.017-1.224.374-.185.165-.488.538-.488 1.245 0 .453.135.777.313.977.15.167.428.357.866.357.516 0 .827-.256.944-.35.018-1.04.018-1.28.01-2.582zm-.01-2.612c.433-.072.516-.088.895-.166l.06.047c-.06 1.104-.066 3.073-.066 3.868 0 1.23.033 1.817.065 2.366l-.04.056c-.373 0-.473.008-.86.024l-.06-.048.017-.294c-.202.144-.547.397-1.163.397-1.12 0-1.894-.834-1.894-2.04 0-.866.387-1.415.74-1.708.617-.524 1.417-.55 1.854-.55.178 0 .262 0 .49.018.008-.985-.035-1.46-.076-1.922l.04-.047zM145.348 73.616c.27 0 .54.008.81.008.286 0 .59-.008.885-.008l-.81-2.685-.885 2.686zm1.668-3.09c.28.874.6 1.858.853 2.613.26.76.682 1.983.935 2.747l-.033.063c-.44.01-.626.016-.98.032l-.06-.056c-.208-.747-.275-.96-.495-1.676-.337 0-.666-.008-1.002-.008-.373 0-.76.008-1.095.008-.247.747-.297.937-.5 1.644l-.057.056c-.363 0-.448 0-.868.023l-.034-.055c.025-.088.058-.167.095-.247.32-.855.63-1.714.935-2.57.504-1.406.69-1.923.934-2.685l.07-.057c.59-.008.664-.008 1.204-.032l.058.057.04.143zM151.705 72.663c-.086-.032-.196-.072-.338-.072-.16 0-.278.058-.354.105-.346.23-.346.58-.346 1.406 0 .898.026 1.366.06 1.812l-.043.055c-.396 0-.487.008-.892.024l-.044-.047c.01-.604.02-1.15.02-1.89 0-1.27-.027-1.597-.077-2.057l.05-.056c.32-.057.524-.096.877-.16l.05.05-.04.674c.1-.254.31-.763 1.03-.763.105 0 .166.01.232.025l.034.048c-.086.38-.102.46-.162.81l-.057.04zM155.155 75.34c-.026.262-.026.317-.036.548l-.042.047c-.176.04-.32.07-.63.07-.205 0-.733 0-.996-.412-.15-.23-.15-.42-.15-1.357l.017-1.747c-.298 0-.305.007-.607.015l-.036-.048c.017-.254.017-.318.017-.572l.053-.047c.183 0 .294.008.573 0-.01-.167-.01-.342-.01-.508l-.024-.453.04-.056c.38-.086.473-.11.86-.222l.06.04c-.024.523-.034.628-.034 1.207.353-.008.456-.008.936-.024l.043.05c-.016.206-.025.293-.025.563l-.043.047c-.42-.008-.47-.016-.916-.016l-.02 1.478c.01.096.01.548.01.66 0 .578.076.76.496.76.18 0 .313-.038.406-.07l.057.047zM158.144 73.552c.335.104 1.102.35 1.102 1.19 0 .32-.127.676-.473.94-.445.356-1.045.38-1.35.38-.452 0-.83-.08-1.15-.198l-.126-.048-.044-.072c.033-.31.033-.348.05-.666l.083-.024c.153.11.524.382 1.173.382.665 0 .91-.35.91-.596 0-.365-.362-.484-.878-.645l-.27-.086c-.344-.105-1.104-.335-1.104-1.152 0-.82.76-1.224 1.7-1.224.624 0 1.064.167 1.217.223l.04.055c-.034.295-.04.326-.067.628l-.075.03c-.21-.126-.54-.315-1.086-.315-.12 0-.236.008-.362.04-.253.062-.464.23-.464.476 0 .343.345.446.867.597l.307.085zM4.56 70.392c-.02.723-.026.914-.026 1.54 0 .342 0 .597.008 1.19l.01.716c0 .477 0 1.16-.49 1.66-.404.413-1.052.587-1.735.587-1.087 0-1.625-.413-1.845-.643-.455-.492-.455-.97-.455-1.897v-.81c0-1.152 0-1.288-.025-2.32l.06-.056c.463-.01.52-.01.942-.024l.043.056c-.033.825-.033 2.264-.033 3.033 0 .794.017 1.28.312 1.604.143.166.472.388 1.053.388.21 0 .875-.016 1.196-.603.185-.334.185-.787.185-1.406 0-.922-.008-2.09-.066-2.994l.042-.057c.388-.01.438-.01.775-.024l.05.056zM9.9 75.96c-.403.006-.455.006-.842.03L9 75.935c0-.088.008-.175.008-.263.01-.39.01-.778.01-1.167 0-1.223-.01-1.303-.052-1.47-.16-.603-.64-.603-.76-.603-.505 0-.892.277-1.12.444-.008 1.382.01 2.104.067 3.034l-.05.048c-.412.007-.48.007-.885.03l-.042-.055c.01-.444.025-.873.025-1.46 0-1.272-.06-1.946-.1-2.48l.05-.055c.42-.07.498-.088.894-.16l.06.057-.008.415c.22-.144.74-.492 1.483-.492.21 0 .47.03.697.15.22.12.396.302.49.517.108.238.117.476.125.97v.928c.025.93.034 1.286.06 1.59l-.05.046zM12.407 70.678c-.43.015-.522.024-.936.063l-.05-.048c.01-.103.01-.213.01-.316 0-.144-.01-.27-.018-.43l.06-.048c.437-.03.513-.04.935-.08l.05.05c-.008.325-.008.404 0 .754l-.05.056zm-.01 5.28c-.437.008-.505.008-.917.032l-.043-.056c.025-.42.05-.786.05-1.668 0-1.517-.024-1.803-.084-2.27l.043-.057c.362-.058.49-.072.91-.16l.084.048c-.025.412-.05.84-.05 1.866 0 1.478.017 1.676.05 2.216l-.042.05zM15.82 75.96c-.472.006-.59.006-1.078.03l-.05-.056c-.414-1.35-.852-2.692-1.35-4.02l.034-.062c.413-.023.506-.032.92-.072l.065.04c.313 1.176.66 2.352 1.004 3.52.085-.287.506-1.67.6-1.978.277-.914.353-1.24.42-1.51l.06-.04c.396.017.464.008.79 0l.044.057c-.515 1.332-.97 2.683-1.407 4.04l-.05.05zM20.932 72.925c-.168-.437-.538-.62-.918-.62-.472 0-1.027.303-1.11 1.097 1.02.008 1.338 0 2.113-.008-.008-.112-.017-.287-.085-.47zm.785 2.073c-.043.316-.05.397-.068.706l-.05.056c-.145.07-.6.302-1.35.302-1.382 0-2.25-.747-2.25-2.13 0-1.476.944-2.198 2.048-2.198.666 0 1.13.263 1.382.548.48.54.463 1.327.455 1.676l-.06.048c-1.313-.01-1.542-.01-2.923 0 .01.278.032.667.32.993.346.387.825.428 1.086.428.244 0 .497-.04.733-.12.313-.12.498-.262.607-.35l.07.04zM25.14 72.663c-.082-.032-.192-.072-.335-.072-.16 0-.278.058-.354.105-.345.23-.345.58-.345 1.406 0 .898.026 1.366.06 1.812l-.043.055c-.396 0-.488.008-.893.024l-.043-.047c.008-.604.017-1.15.017-1.89 0-1.27-.025-1.597-.076-2.057l.05-.056c.32-.057.523-.096.878-.16l.05.05-.042.674c.1-.254.312-.763 1.028-.763.11 0 .168.01.236.025l.033.048c-.084.38-.1.46-.16.81l-.06.04zM28.15 73.552c.338.104 1.105.35 1.105 1.19 0 .32-.126.676-.473.94-.445.356-1.044.38-1.348.38-.454 0-.834-.08-1.153-.198-.04-.017-.083-.032-.126-.048l-.042-.072c.033-.31.033-.348.05-.666l.085-.024c.15.11.523.382 1.17.382.667 0 .91-.35.91-.596 0-.365-.362-.484-.875-.645l-.27-.086c-.346-.105-1.104-.335-1.104-1.152 0-.82.76-1.224 1.703-1.224.624 0 1.062.167 1.214.223l.04.055c-.032.295-.04.326-.065.628l-.077.03c-.21-.126-.54-.315-1.087-.315-.117 0-.236.008-.362.04-.252.062-.463.23-.463.476 0 .343.346.446.868.597l.303.085zM31.38 70.678c-.43.015-.523.024-.936.063l-.052-.048c.01-.103.01-.213.01-.316 0-.144-.01-.27-.018-.43l.06-.048c.438-.03.513-.04.935-.08l.05.05c-.01.325-.01.404 0 .754l-.05.056zm-.01 5.28c-.437.008-.505.008-.92.032l-.04-.056c.024-.42.05-.786.05-1.668 0-1.517-.025-1.803-.084-2.27l.042-.057c.363-.058.49-.072.91-.16l.084.048c-.024.412-.05.84-.05 1.866 0 1.478.017 1.676.05 2.216l-.04.05zM34.867 75.34c-.024.262-.024.317-.033.548l-.042.047c-.177.04-.32.07-.632.07-.202 0-.733 0-.995-.412-.15-.23-.15-.42-.15-1.357l.017-1.747c-.295 0-.304.007-.606.015l-.034-.048c.017-.254.017-.318.017-.572l.05-.047c.185 0 .295.008.573 0-.01-.167-.01-.342-.01-.508L33 70.877l.04-.056c.38-.086.474-.11.86-.222l.06.04c-.025.523-.034.628-.034 1.207.354-.008.455-.008.936-.024l.043.05c-.017.206-.026.293-.026.563l-.043.047c-.42-.008-.472-.016-.92-.016l-.016 1.478c.01.096.01.548.01.66 0 .578.075.76.497.76.177 0 .312-.038.404-.07l.057.047zM39.272 71.884c-.48 1.12-1.29 3.217-1.5 3.773-.26.723-.514 1.445-.69 2.184l-.076.064c-.42.008-.497.008-.894.023l-.033-.056.032-.055c.152-.293.278-.604.422-.913.118-.262.26-.516.354-.794.01-.016.018-.04.025-.063 0-.096-1.256-3.296-1.618-4.105l.034-.07c.42-.033.504-.033.935-.08l.05.047c.23.715.338 1.05.523 1.564l.53 1.518.48-1.397c.177-.548.387-1.198.522-1.65l.06-.05c.21 0 .437 0 .816-.006l.026.07zM45.854 72.79c-.16-.247-.43-.453-.9-.453-.16 0-.633.017-.927.46-.228.326-.253.787-.253 1.12 0 .318.007 1.12.673 1.438.153.072.33.104.498.104.312 0 .716-.097.96-.533.194-.356.202-.89.194-1.056 0-.2-.035-.73-.246-1.08zm1.088 1.818c-.094.39-.27.7-.548.96-.37.35-.868.485-1.46.485-.756 0-1.237-.27-1.507-.532-.57-.547-.58-1.357-.58-1.62 0-.3.016-1.08.58-1.61.236-.23.726-.557 1.567-.557.573 0 1.138.175 1.51.572.387.42.496.977.513 1.532 0 .27-.016.533-.075.77zM49.373 75.966c-.39 0-.464 0-.91.024l-.043-.056c.043-.834.043-1.69.043-2.533 0-.42 0-.563-.01-.912-.21.008-.42.008-.59.008l-.05-.048c.017-.222.026-.302.033-.572l.052-.047c.252.007.42.015.538.015l-.006-.525c0-.396 0-.492.024-.636.193-.92 1.238-.92 1.475-.92.125 0 .21.007.32.016l.04.055c-.032.224-.04.326-.06.572l-.06.04c-.074-.017-.133-.03-.226-.03-.177 0-.37.03-.505.236-.137.2-.137.422-.128.953v.238c.018 0 .75-.016.835-.016l.042.047c-.02.255-.027.318-.036.564l-.05.047c-.362-.01-.438-.01-.774-.01 0 1.058.007 2.122.066 3.18 0 .078.01.165.017.253l-.04.056zM55.14 73.616c.27 0 .54.008.81.008.286 0 .59-.008.885-.008l-.81-2.685-.884 2.686zm1.668-3.09c.278.874.6 1.858.852 2.613.26.76.683 1.983.936 2.747l-.034.063c-.438.01-.624.016-.978.032l-.06-.056c-.21-.747-.277-.96-.496-1.676-.337 0-.666-.008-1.003-.008-.37 0-.76.008-1.095.008-.245.747-.295.937-.498 1.644l-.06.056c-.36 0-.445 0-.867.023l-.034-.055c.027-.088.06-.167.095-.247.32-.855.632-1.714.935-2.57.506-1.406.69-1.923.936-2.685l.067-.057c.59-.008.666-.008 1.205-.032l.06.057.04.143zM60.828 75.38c1.112 0 1.752-.668 1.752-1.646 0-.825-.463-1.333-1.137-1.333-.456 0-.775.207-.97.334-.01.413-.017.817-.017 1.223 0 .468.008.937.017 1.397.11.008.212.025.355.025zm-.37-3.218c.168-.127.57-.43 1.23-.43 1.07 0 1.818.827 1.818 1.947 0 1.23-.868 2.285-2.646 2.285-.16 0-.262-.007-.38-.016.01.952.025 1.16.068 1.905l-.05.048-.885.023-.043-.048c.017-.483.033-.984.033-1.795 0-.47-.01-.937-.01-1.405-.007-1.23-.007-1.786-.107-2.692l.04-.047c.415-.065.508-.09.887-.16l.06.048-.016.334zM66.138 75.38c1.112 0 1.753-.668 1.753-1.646 0-.825-.462-1.333-1.137-1.333-.455 0-.774.207-.97.334-.008.413-.016.817-.016 1.223 0 .468.008.937.017 1.397.11.008.21.025.354.025zm-.37-3.218c.168-.127.573-.43 1.23-.43 1.07 0 1.818.827 1.818 1.947 0 1.23-.867 2.285-2.645 2.285-.16 0-.26-.007-.38-.016.01.952.026 1.16.07 1.905l-.052.048-.885.023-.042-.048c.017-.483.035-.984.035-1.795 0-.47-.01-.937-.01-1.405-.01-1.23-.01-1.786-.11-2.692l.043-.047c.413-.065.506-.09.886-.16l.06.048-.016.334zM71.075 75.96c-.405.006-.49.014-.886.03l-.042-.056c.017-.563.04-1.28.04-2.804 0-1.096 0-2.27-.083-3.287l.043-.048c.412-.063.497-.08.918-.166l.05.054c-.06 1.04-.06 2.09-.06 3.13 0 1.738.025 2.342.068 3.097l-.05.05zM73.594 70.678c-.432.015-.523.024-.937.063l-.05-.048c.008-.103.008-.213.008-.316 0-.144-.01-.27-.017-.43l.06-.048c.437-.03.513-.04.936-.08l.05.05c-.01.325-.01.404 0 .754l-.05.056zm-.01 5.28c-.438.008-.505.008-.918.032l-.042-.056c.025-.42.05-.786.05-1.668 0-1.517-.024-1.803-.084-2.27l.042-.057c.362-.058.49-.072.91-.16l.085.048c-.025.412-.052.84-.052 1.866 0 1.478.02 1.676.052 2.216l-.043.05zM77.866 72.925c-.168-.437-.538-.62-.918-.62-.472 0-1.027.303-1.112 1.097 1.02.008 1.34 0 2.115-.008-.007-.112-.015-.287-.084-.47zm.784 2.073c-.042.316-.05.397-.066.706l-.053.056c-.14.07-.596.302-1.347.302-1.38 0-2.25-.747-2.25-2.13 0-1.476.944-2.198 2.05-2.198.665 0 1.128.263 1.38.548.48.54.466 1.327.457 1.676l-.06.048c-1.315-.01-1.542-.01-2.925 0 .01.278.035.667.32.993.346.387.826.428 1.087.428.245 0 .498-.04.733-.12.313-.12.497-.262.607-.35l.068.04zM82.946 72.408c-.144-.007-.243-.023-.42-.023-.262 0-.818.017-1.223.374-.185.165-.488.538-.488 1.245 0 .453.136.777.312.977.152.167.43.357.867.357.515 0 .826-.256.943-.35.018-1.04.018-1.28.01-2.582zm-.008-2.612c.432-.072.515-.088.895-.166l.06.047c-.06 1.104-.068 3.073-.068 3.868 0 1.23.033 1.817.067 2.366l-.042.056c-.37 0-.472.008-.86.024l-.06-.048.018-.294c-.2.144-.548.397-1.16.397-1.122 0-1.897-.834-1.897-2.04 0-.866.39-1.415.74-1.708.617-.524 1.418-.55 1.855-.55.178 0 .262 0 .49.018.008-.985-.036-1.46-.077-1.922l.04-.047zM90.48 72.79c.612.254 1.43.588 1.43 1.604 0 .89-.698 1.69-2.166 1.69-.892 0-1.465-.253-1.668-.348l-.033-.056c.033-.278.043-.43.067-.73l.085-.032c.21.135.7.468 1.482.468.87 0 1.23-.42 1.23-.896 0-.557-.487-.77-1.037-.97l-.42-.174c-.6-.262-1.397-.604-1.397-1.572 0-.294.082-.596.26-.834.39-.523 1.088-.698 1.77-.698.666 0 1.068.118 1.515.254l.043.063c-.032.3-.042.412-.066.698l-.07.03c-.36-.173-.754-.363-1.387-.363-.7 0-1.14.31-1.14.778 0 .357.254.524.43.627.11.063.144.08.65.286l.422.174zM96.4 75.02c-.034.342-.043.382-.068.708l-.06.055c-.244.11-.572.27-1.163.27-1.272 0-2.098-.865-2.098-2.103 0-1.263.81-2.216 2.113-2.216.548 0 .936.167 1.155.254l.033.057c-.033.285-.04.39-.06.626l-.066.033c-.277-.19-.598-.31-.936-.31-.698 0-1.313.508-1.313 1.524 0 1.08.648 1.47 1.306 1.47.574 0 .928-.278 1.088-.397l.07.03zM98.413 70.678c-.43.015-.522.024-.936.063l-.05-.048c.007-.103.007-.213.007-.316 0-.144-.007-.27-.017-.43l.06-.048c.44-.03.514-.04.936-.08l.05.05c-.007.325-.007.404 0 .754l-.05.056zm-.01 5.28c-.437.008-.506.008-.918.032l-.04-.056c.022-.42.05-.786.05-1.668 0-1.517-.027-1.803-.084-2.27l.042-.057c.362-.058.49-.072.91-.16l.085.048c-.026.412-.05.84-.05 1.866 0 1.478.016 1.676.05 2.216l-.044.05zM102.69 72.925c-.17-.437-.54-.62-.92-.62-.473 0-1.028.303-1.11 1.097 1.017.008 1.337 0 2.112-.008-.006-.112-.016-.287-.083-.47zm.782 2.073c-.04.316-.05.397-.066.706l-.05.056c-.144.07-.6.302-1.35.302-1.38 0-2.25-.747-2.25-2.13 0-1.476.945-2.198 2.048-2.198.666 0 1.128.263 1.382.548.48.54.465 1.327.455 1.676l-.058.048c-1.315-.01-1.542-.01-2.923 0 .01.278.03.667.317.993.347.387.826.428 1.09.428.242 0 .495-.04.73-.12.314-.12.497-.262.607-.35l.068.04zM108.67 75.96c-.404.006-.454.006-.842.03l-.06-.056c0-.088.008-.175.008-.263.008-.388.008-.777.008-1.166 0-1.223-.008-1.303-.05-1.47-.16-.603-.64-.603-.76-.603-.503 0-.892.278-1.12.445-.007 1.382.01 2.104.07 3.034l-.053.047c-.41.007-.478.007-.883.03l-.043-.055c.01-.444.026-.873.026-1.46 0-1.272-.06-1.946-.1-2.48l.048-.055c.42-.07.498-.088.895-.16l.058.057-.007.413c.22-.144.74-.492 1.483-.492.21 0 .472.03.698.15.22.12.396.302.49.517.108.238.116.476.126.97v.928c.024.93.033 1.286.058 1.59l-.048.05zM113.41 75.02c-.033.342-.04.382-.067.708l-.06.055c-.243.11-.572.27-1.162.27-1.27 0-2.097-.865-2.097-2.103 0-1.263.81-2.216 2.115-2.216.546 0 .935.167 1.155.254l.033.057c-.033.285-.043.39-.06.626l-.067.033c-.28-.19-.6-.31-.937-.31-.7 0-1.314.508-1.314 1.524 0 1.08.647 1.47 1.303 1.47.576 0 .93-.278 1.09-.397l.067.03zM117.207 72.925c-.167-.437-.54-.62-.918-.62-.472 0-1.028.303-1.114 1.097 1.02.008 1.34 0 2.116-.008-.01-.112-.016-.287-.085-.47zm.784 2.073c-.04.316-.05.397-.066.706l-.05.056c-.146.07-.598.302-1.35.302-1.383 0-2.25-.747-2.25-2.13 0-1.476.945-2.198 2.05-2.198.665 0 1.128.263 1.38.548.48.54.464 1.327.456 1.676l-.06.048c-1.313-.01-1.54-.01-2.925 0 .01.278.036.667.322.993.343.387.825.428 1.085.428.246 0 .5-.04.732-.12.313-.12.5-.262.608-.35l.07.04zM121.232 73.552c.338.104 1.104.35 1.104 1.19 0 .32-.127.676-.473.94-.446.356-1.045.38-1.348.38-.455 0-.834-.08-1.154-.198-.04-.017-.084-.032-.125-.048l-.043-.072c.035-.31.035-.348.05-.666l.085-.024c.152.11.52.382 1.17.382.666 0 .91-.35.91-.596 0-.365-.362-.484-.876-.645l-.268-.086c-.346-.105-1.104-.335-1.104-1.152 0-.82.76-1.224 1.703-1.224.623 0 1.063.167 1.214.223l.042.055c-.033.295-.042.326-.066.628l-.078.03c-.21-.126-.538-.315-1.086-.315-.117 0-.236.008-.363.04-.252.062-.462.23-.462.476 0 .343.346.446.868.597l.304.085zM82.487 85.443c-.572 0-.657 0-1.214.023l-.058-.055c-.136-.793-.187-1.023-.305-1.603l-.69-3.424-.7 3.24c-.04.215-.083.438-.134.65-.067.343-.193.922-.227 1.113l-.053.055c-.606 0-.64.01-1.222.024l-.058-.055c-.153-.716-.853-3.726-1.307-5.52l.04-.057c.473 0 .55-.008.962-.024l.052.056c.05.278.1.53.176.93l.202 1.056.615 3.033.707-3.518c.118-.58.135-.675.286-1.477l.052-.057c.64-.008.75-.008 1.34-.024l.05.056c.01.063.018.127.025.198.034.207.23 1.223.278 1.493l.665 3.35.658-3.135c.313-1.533.32-1.564.36-1.882l.052-.057c.39 0 .473-.008.825-.024l.044.056c-.196.62-.246.833-.71 2.763-.21.864-.437 1.724-.623 2.59-.008.054-.024.11-.033.166l-.057.057zM87.447 82.4c-.168-.436-.54-.618-.917-.618-.472 0-1.028.302-1.114 1.097 1.02.007 1.34 0 2.116-.01-.01-.11-.016-.285-.085-.47zm.784 2.075c-.042.317-.05.397-.065.706l-.052.057c-.145.07-.598.303-1.35.303-1.38 0-2.247-.747-2.247-2.13 0-1.477.942-2.198 2.047-2.198.666 0 1.13.263 1.382.548.48.54.463 1.326.456 1.676l-.06.047c-1.313-.008-1.54-.008-2.925 0 .01.278.036.667.322.993.344.39.825.43 1.086.43.245 0 .498-.04.732-.12.313-.12.5-.26.608-.35l.068.04zM91.472 83.03c.337.103 1.104.35 1.104 1.19 0 .317-.126.675-.472.937-.446.357-1.046.38-1.35.38-.454 0-.834-.078-1.153-.198-.042-.016-.083-.033-.126-.048l-.043-.07c.037-.312.037-.35.054-.668l.084-.024c.152.11.52.38 1.17.38.667 0 .91-.35.91-.595 0-.365-.362-.483-.875-.644l-.27-.085c-.347-.104-1.105-.335-1.105-1.15 0-.82.76-1.225 1.704-1.225.622 0 1.062.167 1.212.223l.043.055c-.033.294-.043.325-.066.628l-.076.03c-.21-.126-.54-.316-1.087-.316-.118 0-.237.008-.363.04-.254.063-.463.23-.463.477 0 .342.347.444.87.596l.302.086zM95.696 84.815c-.026.263-.026.318-.034.55l-.042.047c-.177.04-.32.072-.632.072-.2 0-.732 0-.994-.415-.15-.23-.15-.42-.15-1.357l.016-1.748c-.295 0-.303.007-.606.017l-.034-.05c.017-.252.017-.316.017-.57l.052-.047c.184 0 .293.008.57 0-.008-.167-.008-.343-.008-.51l-.024-.45.042-.057c.38-.087.473-.11.86-.223l.06.04c-.026.523-.035.627-.035 1.207.353-.008.454-.008.936-.024l.043.05c-.018.204-.025.292-.025.562l-.043.048c-.42-.007-.47-.017-.917-.017l-.017 1.48c.01.095.01.548.01.658 0 .58.073.763.495.763.178 0 .313-.038.404-.07l.056.045zM99.51 82.4c-.17-.436-.54-.618-.92-.618-.473 0-1.028.302-1.114 1.097 1.02.007 1.34 0 2.116-.01-.01-.11-.016-.285-.083-.47zm.78 2.075c-.04.317-.05.397-.065.706l-.053.057c-.143.07-.596.303-1.35.303-1.38 0-2.247-.747-2.247-2.13 0-1.477.943-2.198 2.048-2.198.666 0 1.13.263 1.382.548.48.54.463 1.326.455 1.676l-.06.047c-1.314-.008-1.54-.008-2.925 0 .01.278.035.667.322.993.344.39.825.43 1.085.43.247 0 .5-.04.733-.12.313-.12.5-.26.608-.35l.068.04zM103.718 82.14c-.086-.03-.195-.072-.34-.072-.16 0-.275.057-.353.104-.346.23-.346.58-.346 1.405 0 .897.025 1.365.058 1.812l-.042.054c-.396 0-.486.01-.893.023l-.042-.047c.01-.604.02-1.15.02-1.89 0-1.27-.026-1.598-.076-2.057l.05-.056c.32-.057.522-.096.876-.16l.05.048-.04.676c.1-.253.31-.762 1.027-.762.108 0 .167.008.234.024l.037.047c-.086.38-.104.46-.162.81l-.057.04zM108.683 85.436c-.402.008-.453.008-.842.03l-.06-.054c0-.087.01-.176.01-.263.008-.39.008-.78.008-1.17 0-1.222-.008-1.3-.05-1.468-.16-.604-.64-.604-.76-.604-.503 0-.892.278-1.118.444-.01 1.383.008 2.105.067 3.035l-.05.047c-.414.008-.48.008-.886.03l-.043-.054c.01-.444.026-.874.026-1.462 0-1.27-.06-1.945-.1-2.477l.05-.055c.42-.07.496-.09.893-.16l.06.057-.01.413c.22-.144.742-.493 1.483-.493.21 0 .473.032.7.15.22.12.395.303.487.517.11.237.117.476.127.968v.93c.024.93.033 1.286.058 1.59l-.05.048zM115.314 82.268c.613.254 1.43.587 1.43 1.604 0 .89-.697 1.69-2.164 1.69-.894 0-1.467-.255-1.67-.35l-.032-.055c.033-.28.042-.43.066-.73l.087-.032c.21.135.7.468 1.482.468.868 0 1.23-.42 1.23-.896 0-.557-.488-.77-1.037-.97l-.42-.175c-.6-.26-1.4-.604-1.4-1.57 0-.296.086-.598.26-.835.39-.523 1.09-.7 1.772-.7.666 0 1.07.12 1.516.255l.043.063c-.033.303-.043.413-.066.7l-.07.03c-.36-.175-.756-.365-1.39-.365-.698 0-1.138.31-1.138.778 0 .357.254.524.43.628.11.063.145.08.65.285l.422.178zM122.89 85.436c-.565.008-.634.008-1.147.03l-.06-.054c-.1-.484-.26-1.13-.402-1.69l-.49-1.908-.495 1.954c-.253.96-.34 1.27-.413 1.62l-.053.048c-.59.008-.63.008-1.163.03l-.05-.054c-.37-1.423-1.002-3.503-1.178-4.026l.03-.057c.405-.024.515-.024.92-.064l.05.048c.05.262.11.51.474 1.977l.402 1.638.55-2.137c.252-1.056.27-1.158.32-1.412l.056-.056c.5 0 .642 0 1.198-.024l.05.056c.12.548.32 1.31.473 1.914l.446 1.684.47-1.85.205-.834c.143-.54.16-.604.21-.906l.06-.047c.133 0 .276.008.412.008.127 0 .252-.008.378-.008l.05.047c-.158.452-.9 2.668-1.246 4.027l-.06.046zM126.07 80.155c-.43.015-.52.023-.935.063l-.05-.048c.007-.103.007-.214.007-.317 0-.144-.008-.27-.016-.43l.06-.046c.437-.032.514-.04.935-.08l.052.048c-.01.325-.01.404 0 .754l-.05.055zm-.007 5.28c-.438.01-.506.01-.918.032l-.042-.055c.024-.422.05-.786.05-1.668 0-1.518-.025-1.804-.083-2.27l.04-.057c.363-.057.49-.07.91-.16l.087.048c-.027.414-.053.842-.053 1.867 0 1.477.018 1.675.053 2.216l-.044.048zM129.56 84.815c-.023.263-.023.318-.033.55l-.044.047c-.176.04-.32.072-.632.072-.2 0-.73 0-.99-.415-.153-.23-.153-.42-.153-1.357l.016-1.748c-.294 0-.303.007-.606.017l-.033-.05c.018-.252.018-.316.018-.57l.05-.047c.186 0 .296.008.572 0-.008-.167-.008-.343-.008-.51l-.026-.45.043-.057c.38-.087.473-.11.86-.223l.06.04c-.027.523-.034.627-.034 1.207.353-.008.452-.008.935-.024l.04.05c-.016.204-.022.292-.022.562l-.043.048c-.423-.007-.473-.017-.92-.017l-.017 1.48c.01.095.01.548.01.658 0 .58.075.763.496.763.177 0 .313-.038.403-.07l.057.045zM133.47 85.443c-.233 0-1.39.01-1.65.01-.986 0-1.095 0-1.608.014l-.033-.07c.638-1 1.656-2.7 2.087-3.464-1.113.008-1.313.008-1.853.032l-.042-.047c.033-.262.042-.326.06-.548l.05-.048c1.415 0 1.574 0 3.043-.024l.04.063c-.75 1.16-1.82 3.05-2.048 3.455.725-.007 1.45-.023 2.023-.048l.04.048c-.032.247-.04.35-.056.588l-.054.04zM137.443 82.4c-.167-.436-.54-.618-.917-.618-.472 0-1.028.302-1.112 1.097 1.02.007 1.34 0 2.115-.01-.01-.11-.018-.285-.087-.47zm.786 2.075c-.044.317-.052.397-.07.706l-.05.057c-.143.07-.598.303-1.348.303-1.38 0-2.248-.747-2.248-2.13 0-1.477.942-2.198 2.046-2.198.666 0 1.13.263 1.382.548.48.54.464 1.326.456 1.676l-.06.047c-1.314-.008-1.54-.008-2.924 0 .01.278.034.667.32.993.345.39.825.43 1.088.43.243 0 .496-.04.732-.12.312-.12.497-.26.605-.35l.07.04zM141.654 82.14c-.086-.03-.193-.072-.338-.072-.16 0-.278.057-.354.104-.346.23-.346.58-.346 1.405 0 .897.026 1.365.06 1.812l-.044.054c-.396 0-.487.01-.892.023l-.044-.047c.01-.604.02-1.15.02-1.89 0-1.27-.026-1.598-.076-2.057l.05-.056c.32-.057.522-.096.875-.16l.052.048-.04.676c.1-.253.31-.762 1.028-.762.106 0 .167.008.232.024l.036.047c-.086.38-.102.46-.162.81l-.056.04zM143.793 85.436c-.404.008-.487.017-.884.03l-.043-.054c.017-.564.042-1.278.042-2.804 0-1.096 0-2.27-.086-3.287l.043-.048c.413-.063.496-.078.918-.166l.05.055c-.06 1.042-.06 2.09-.06 3.13 0 1.74.026 2.343.07 3.1l-.052.046zM147.654 83.23c-.85.117-1.643.228-1.643.937 0 .038 0 .722.802.722.52 0 .825-.27.92-.35v-1.327l-.078.016zm.944.58c0 .982.01 1.07.052 1.586l-.043.04c-.396.008-.464.017-.85.03l-.034-.046.01-.286c-.162.12-.54.405-1.182.405-.84 0-1.432-.54-1.432-1.328 0-1.063.944-1.406 2.46-1.57l.145-.017c0-.215 0-.366-.076-.493-.085-.143-.278-.294-.7-.294-.547 0-.927.158-1.28.302l-.067-.04c.017-.365.017-.412.025-.58l.05-.046c.472-.16.96-.263 1.458-.263.624 0 1.23.2 1.408.818.06.223.06.66.06.993v.79h-.002zM153.897 85.436c-.404.008-.454.008-.843.03l-.06-.054c0-.087.01-.176.01-.263.01-.39.01-.78.01-1.17 0-1.222-.01-1.3-.053-1.468-.16-.604-.64-.604-.756-.604-.507 0-.894.278-1.12.444-.01 1.383.007 2.105.066 3.035l-.052.047c-.412.008-.48.008-.884.03l-.043-.054c.01-.444.027-.874.027-1.462 0-1.27-.06-1.945-.102-2.477l.05-.055c.422-.07.497-.09.894-.16l.058.057-.008.413c.22-.144.74-.493 1.482-.493.212 0 .472.032.7.15.22.12.395.303.488.517.11.237.118.476.126.968v.93c.025.93.033 1.286.06 1.59l-.05.048zM158.303 81.887c-.144-.01-.244-.025-.423-.025-.26 0-.816.017-1.222.374-.184.166-.486.54-.486 1.246 0 .454.134.78.31.978.153.167.43.356.868.356.514 0 .826-.254.942-.35.02-1.04.02-1.278.01-2.58zm-.01-2.615c.432-.07.516-.086.894-.166l.06.048c-.06 1.104-.067 3.072-.067 3.867 0 1.23.032 1.82.066 2.368l-.04.055c-.373 0-.474.01-.86.023l-.06-.047.018-.294c-.203.142-.55.396-1.162.396-1.12 0-1.897-.834-1.897-2.04 0-.866.39-1.415.74-1.707.618-.524 1.417-.55 1.855-.55.178 0 .26 0 .49.018.008-.985-.037-1.462-.077-1.922l.04-.048z"/></g></svg>