<svg xmlns="http://www.w3.org/2000/svg" width="268.048" height="43.277" viewBox="0 0 268.048 43.277"><g fill="#F7F7F7"><path d="M.056 13.244V.672h2.16v4.492c.66-.56 1.55-1.148 2.61-1.148 1.812 0 2.683 1.186 2.683 3.03v6.198H5.35V7.36c0-1.22-.384-1.603-1.115-1.603-.94 0-1.654.54-2.02.957v6.53H.055zM14.125 8.908c-1.445.28-3.03.574-3.03 1.846 0 .68.436 1.063 1.045 1.063.68 0 1.533-.574 1.985-.957V8.908zm.227 4.336l-.14-.783c-.87.595-1.688.958-2.82.958-1.637 0-2.456-1.166-2.456-2.402 0-2.055 1.67-3.135 5.19-3.55v-.77c0-.696-.558-1.08-1.324-1.08-1.01 0-1.568.54-1.986 1.116L9.424 5.67c.558-.957 2.054-1.69 3.378-1.654 2.438.053 3.483.94 3.483 3.656v4.268c0 .453.035.904.173 1.305h-2.106zM25.897 4.19v9.054h-1.985v-.974c-.8.56-1.724 1.148-2.787 1.148-1.81 0-2.68-1.184-2.68-3.03v-6.2h2.16v5.886c0 1.22.38 1.604 1.112 1.604.94 0 1.655-.54 2.02-.957V4.19h2.16zM28.474 4.19V1.194h2.16V4.19h1.775v1.74h-1.777v5.12c0 .486.244.627.784.627.33 0 .68-.104.993-.174v1.775c-.593.068-1.115.14-1.707.14-1.602 0-2.23-.802-2.23-2.09V5.933h-1.252V4.19h1.254zM38.87 7.602c-.035-1.252-.696-1.984-1.742-1.984-1.044 0-1.706.732-1.74 1.984h3.482zm-3.483 1.464c.035 1.88.87 2.61 1.88 2.61 1.01 0 1.48-.452 2.02-1.08l1.568.978c-.836 1.287-2.055 1.844-3.796 1.844-2.352 0-3.832-1.828-3.832-4.7s1.48-4.702 3.936-4.702c2.368-.018 3.69 1.984 3.69 4.162v.89h-5.467v-.002zM54.088.498L51.546 3.04H49.77L51.407.5h2.68zm-1.2 7.104c-.036-1.252-.697-1.984-1.742-1.984s-1.706.732-1.74 1.984h3.48zm-3.483 1.464c.035 1.88.87 2.61 1.88 2.61 1.01 0 1.48-.452 2.02-1.08l1.568.978c-.836 1.287-2.055 1.844-3.796 1.844-2.35 0-3.83-1.828-3.83-4.7s1.48-4.702 3.934-4.702c2.37-.018 3.693 1.984 3.693 4.162v.89h-5.468v-.002zM61.664 7.133c-.35-.768-.732-1.375-1.776-1.375-1.202 0-1.776.94-1.776 2.96s.574 2.96 1.846 2.96c.94 0 1.48-.645 1.916-1.443l1.637.92c-.87 1.62-1.967 2.283-3.62 2.264-2.456 0-3.937-1.83-3.937-4.702s1.48-4.7 3.936-4.7c1.705 0 3.063.905 3.568 2.42l-1.794.695zM68.594 5.758c-1.2 0-1.776.94-1.776 2.96s.575 2.96 1.776 2.96c1.202 0 1.777-.94 1.777-2.96s-.575-2.96-1.776-2.96zm0-1.742c2.456 0 3.936 1.828 3.936 4.7s-1.48 4.702-3.936 4.702c-2.455 0-3.935-1.828-3.935-4.7s1.48-4.702 3.934-4.702zM74.288 13.244V.672h2.16v12.572h-2.16M83.848 7.602c-.035-1.252-.697-1.984-1.742-1.984-1.044 0-1.706.732-1.74 1.984h3.482zm-3.483 1.464c.035 1.88.87 2.61 1.88 2.61 1.01 0 1.48-.452 2.022-1.08l1.567.978C85 12.86 83.78 13.418 82.04 13.418c-2.354 0-3.834-1.828-3.834-4.7s1.48-4.702 3.937-4.702c2.367-.018 3.69 1.984 3.69 4.162v.89h-5.468v-.002zM120.225 13.25c0-7.307-5.943-13.25-13.25-13.25-7.305 0-13.248 5.943-13.248 13.25h7.92c0-2.938 2.39-5.328 5.33-5.328 2.925 0 5.306 2.402 5.325 5.324l7.923.004zM150.845 13.25c0-7.307-5.943-13.25-13.25-13.25-7.305 0-13.25 5.943-13.25 13.25h7.922c0-2.938 2.39-5.328 5.327-5.328 2.928 0 5.308 2.402 5.326 5.324l7.925.004zM179.35 13.25C179.35 5.943 173.406 0 166.1 0c-7.305 0-13.248 5.943-13.248 13.25h7.92c0-2.938 2.392-5.328 5.328-5.328 2.93 0 5.307 2.402 5.327 5.324l7.922.004zM106.976 43.168c7.05 0 13.234-5.084 13.234-13.357 0 0 0-9.647-.002-14.308h-7.923v2.418c-1.626-.713-3.42-1.113-5.31-1.113-7.26 0-13.247 5.857-13.247 13.182 0 7.32 5.988 13.178 13.248 13.178zm-.043-6.99c-3.417 0-6.186-2.768-6.186-6.188 0-3.416 2.77-6.186 6.186-6.186 3.417 0 6.187 2.77 6.187 6.186 0 3.42-2.77 6.188-6.187 6.188zM124.348 15.502h7.922v26.834h-7.922V15.502M152.864 15.502l.014 14.316c0 8.24 5.64 13.46 13.237 13.46 7.305 0 13.25-5.944 13.25-13.25h-7.923c0 2.94-2.39 5.327-5.327 5.327s-5.325-2.39-5.325-5.326V15.5h-7.926zM0 24.258v-5.084h.586v.803c.548-.568.997-.9 1.74-.9 1.056 0 1.505.605 1.505 1.71v3.472h-.584v-3.413c0-.84-.254-1.3-1.037-1.3-.626 0-.978.382-1.624.966v3.746H0v-.002zM8.524 21.266c-.117-1.045-.577-1.71-1.466-1.72-1.036-.01-1.477 1.046-1.486 1.72h2.952zm-2.952.468c0 1.154.48 2.15 1.632 2.15.655 0 .978-.225 1.486-1.025l.48.253c-.548.9-1.048 1.242-2.015 1.242-1.33 0-2.17-.852-2.17-2.64 0-1.575.8-2.64 2.09-2.64 1.38 0 2.035 1.086 2.035 2.658H5.572zM14.155 19.174v5.084h-.586v-.803c-.548.566-1 .9-1.74.9-1.057 0-1.506-.605-1.506-1.71v-3.472h.586v3.412c0 .84.254 1.3 1.036 1.3.625 0 .978-.382 1.623-.968v-3.744h.585zM18.82 20.602c-.265-.588-.646-1.057-1.32-1.057-.958 0-1.605.596-1.605 2.17 0 1.3.587 2.17 1.604 2.17.723 0 1.114-.398 1.524-1.055l.47.225c-.43.723-1.028 1.3-1.996 1.3-1.427 0-2.19-1.104-2.19-2.64 0-1.748.88-2.64 2.19-2.64.958 0 1.555.54 1.857 1.378l-.536.15zM20.646 24.258v-7.06h.587v2.778c.547-.568.997-.9 1.74-.9 1.057 0 1.506.605 1.506 1.71v3.472h-.588v-3.412c0-.84-.254-1.3-1.036-1.3-.626 0-.978.382-1.624.966v3.746h-.586zM29.17 18.607h-.645l-.802-.986-.8.987h-.647l1.114-1.35h.666l1.115 1.35zm-.41 2.776c-2.326.51-2.64.988-2.64 1.633 0 .56.382.87.91.87.548 0 1.222-.32 1.73-.84v-1.663zm.098 2.875l-.08-.615c-.605.477-1.064.713-1.847.713-.79 0-1.396-.49-1.396-1.33 0-1.387 1.134-1.643 3.255-2.113v-.35c0-.676-.293-1.018-1.164-1.018-.606 0-1.104.334-1.476.92l-.392-.234c.44-.82 1.066-1.153 1.887-1.153 1.154 0 1.7.47 1.7 1.594v2.66c0 .255.022.587.08.93h-.567v-.002zM31.028 19.174v-1.662h.587v1.662h1.114v.47h-1.115v3.724c0 .342.156.518.518.518.196 0 .41-.047.596-.107v.49c-.196.026-.4.087-.597.087-.83 0-1.104-.273-1.104-.89v-3.823h-.763v-.47h.76zM36.776 21.266c-.117-1.045-.576-1.71-1.466-1.72-1.036-.01-1.477 1.046-1.486 1.72h2.952zm-2.952.468c0 1.154.48 2.15 1.633 2.15.655 0 .977-.225 1.486-1.025l.48.253c-.548.9-1.047 1.242-2.015 1.242-1.33 0-2.17-.852-2.17-2.64 0-1.575.802-2.64 2.092-2.64 1.378 0 2.034 1.086 2.034 2.658h-3.54zM38.565 17.2h.587v7.058h-.587v-7.06M44.93 22.957c.38.53.8.928 1.524.928 1.017 0 1.486-.918 1.486-2.092 0-1.318-.518-2.248-1.574-2.248-.576 0-1.24.566-1.437.908v2.504zM44.34 17.2h.587v2.638c.498-.525.91-.762 1.592-.762 1.183 0 2.004 1.115 2.004 2.61 0 1.73-.724 2.67-2.043 2.67-.693 0-1.26-.237-1.632-.765l-.096.667h-.412V17.2zM52.77 21.266c-.118-1.045-.577-1.71-1.466-1.72-1.037-.01-1.477 1.046-1.486 1.72h2.952zm-2.953.468c0 1.154.48 2.15 1.632 2.15.655 0 .977-.225 1.485-1.025l.48.253c-.548.9-1.047 1.242-2.015 1.242-1.33 0-2.17-.852-2.17-2.64 0-1.575.802-2.64 2.092-2.64 1.378 0 2.034 1.086 2.034 2.658h-3.54zM54.53 24.258v-5.084h.586v.967h.02c.273-.624.82-1.063 1.466-1.063h.264v.566h-.264c-.645 0-1.485.762-1.485 1.74v2.875h-.588zM57.823 24.258v-5.084h.586v.803c.547-.568.997-.9 1.74-.9 1.056 0 1.505.605 1.505 1.71v3.472h-.585v-3.413c0-.84-.254-1.3-1.037-1.3-.626 0-.978.382-1.624.966v3.746h-.587v-.002zM66.35 21.266c-.12-1.045-.578-1.71-1.468-1.72-1.035-.01-1.477 1.046-1.485 1.72h2.952zm-2.954.468c0 1.154.48 2.15 1.632 2.15.654 0 .977-.225 1.485-1.025l.48.253c-.547.9-1.047 1.242-2.014 1.242-1.33 0-2.172-.852-2.172-2.64 0-1.575.802-2.64 2.093-2.64 1.38 0 2.034 1.086 2.034 2.658h-3.538zM71.637 18.06v-.86h.586v.86h-.586zm-.988 7.458c.136.04.283.07.41.07.39 0 .577-.156.577-.53v-5.884h.586v5.895c0 .73-.38.985-1.046.985-.176 0-.39-.02-.528-.057v-.48zM77.65 19.174v5.084h-.587v-.803c-.547.566-.997.9-1.74.9-1.056 0-1.505-.605-1.505-1.71v-3.472h.586v3.412c0 .84.254 1.3 1.036 1.3.627 0 .978-.382 1.624-.968v-3.744h.585zM79.213 24.258v-5.084h.586v.967h.02c.273-.624.82-1.063 1.466-1.063h.264v.566h-.264c-.645 0-1.486.762-1.486 1.74v2.875h-.587zM85.186 21.383c-2.327.51-2.64.988-2.64 1.633 0 .56.38.87.91.87.547 0 1.22-.32 1.73-.84v-1.663zm.097 2.875l-.078-.615c-.606.477-1.065.713-1.847.713-.792 0-1.398-.49-1.398-1.33 0-1.387 1.134-1.643 3.255-2.113v-.35c0-.676-.293-1.018-1.163-1.018-.606 0-1.105.334-1.476.92l-.392-.234c.44-.82 1.066-1.153 1.887-1.153 1.155 0 1.703.47 1.703 1.594v2.66c0 .255.02.587.078.93h-.567v-.002zM186.98 24.258v-5.084h.585v.803c.548-.568.998-.9 1.74-.9 1.057 0 1.505.605 1.505 1.71v3.472h-.585v-3.413c0-.84-.254-1.3-1.04-1.3-.622 0-.974.382-1.62.966v3.746h-.586v-.002zM195.505 21.266c-.12-1.045-.58-1.71-1.468-1.72-1.035-.01-1.477 1.046-1.483 1.72h2.95zm-2.95.468c0 1.154.475 2.15 1.63 2.15.656 0 .98-.225 1.484-1.025l.48.253c-.548.9-1.048 1.242-2.017 1.242-1.328 0-2.168-.852-2.168-2.64 0-1.575.8-2.64 2.092-2.64 1.378 0 2.033 1.086 2.033 2.658h-3.536zM201.136 19.174v5.084h-.587v-.803c-.548.566-1 .9-1.742.9-1.055 0-1.506-.605-1.506-1.71v-3.472h.587v3.412c0 .84.253 1.3 1.034 1.3.626 0 .98-.382 1.625-.968v-3.744h.586zM205.797 20.602c-.264-.588-.646-1.057-1.32-1.057-.957 0-1.6.596-1.6 2.17 0 1.3.585 2.17 1.6 2.17.725 0 1.116-.398 1.525-1.055l.47.225c-.43.723-1.027 1.3-1.995 1.3-1.425 0-2.187-1.104-2.187-2.64 0-1.748.877-2.64 2.187-2.64.96 0 1.555.54 1.86 1.378l-.54.15zM207.626 24.258v-7.06h.586v2.778c.55-.568.998-.9 1.74-.9 1.055 0 1.505.605 1.505 1.71v3.472h-.585v-3.412c0-.84-.254-1.3-1.037-1.3-.625 0-.98.382-1.623.966v3.746h-.586zM216.15 18.607h-.646l-.8-.986-.804.987h-.645l1.114-1.35h.664l1.115 1.35zm-.41 2.776c-2.327.51-2.64.988-2.64 1.633 0 .56.38.87.91.87.546 0 1.22-.32 1.73-.84v-1.663zm.097 2.875l-.078-.615c-.605.477-1.067.713-1.85.713-.79 0-1.396-.49-1.396-1.33 0-1.387 1.134-1.643 3.254-2.113v-.35c0-.676-.292-1.018-1.162-1.018-.606 0-1.105.334-1.475.92l-.39-.234c.438-.82 1.062-1.153 1.884-1.153 1.154 0 1.704.47 1.704 1.594v2.66c0 .255.017.587.077.93h-.568v-.002zM218.007 19.174v-1.662h.588v1.662h1.113v.47h-1.113v3.724c0 .342.156.518.518.518.194 0 .41-.047.596-.107v.49c-.196.026-.402.087-.597.087-.832 0-1.105-.273-1.105-.89v-3.823h-.763v-.47h.762zM223.756 21.266c-.118-1.045-.577-1.71-1.468-1.72-1.037-.01-1.477 1.046-1.485 1.72h2.953zm-2.953.468c0 1.154.48 2.15 1.633 2.15.655 0 .977-.225 1.485-1.025l.48.253c-.547.9-1.046 1.242-2.015 1.242-1.328 0-2.17-.852-2.17-2.64 0-1.575.803-2.64 2.092-2.64 1.38 0 2.034 1.086 2.034 2.658h-3.537zM225.546 17.2h.586v7.058h-.586v-7.06M233.59 20.453c-.196-.342-.86-.908-1.437-.908-1.057 0-1.572.93-1.572 2.248 0 1.174.468 2.092 1.485 2.092.723 0 1.143-.398 1.524-.928v-2.504zm.587 3.805h-.41l-.1-.666c-.37.527-.937.764-1.63.764-1.32 0-2.044-.938-2.044-2.668 0-1.496.82-2.61 2.003-2.61.685 0 1.095.235 1.594.76V17.2h.587v7.058zM238.967 21.266c-.118-1.045-.577-1.71-1.466-1.72-1.034-.01-1.476 1.046-1.485 1.72h2.952zm-2.952.468c0 1.154.48 2.15 1.633 2.15.655 0 .977-.225 1.486-1.025l.48.253c-.547.9-1.048 1.242-2.015 1.242-1.33 0-2.172-.852-2.172-2.64 0-1.575.802-2.64 2.093-2.64 1.378 0 2.032 1.086 2.032 2.658h-3.537zM240.755 17.2h.586v7.058h-.585v-7.06M245.798 17.258l-1.338 1.35h-.5l1.086-1.35h.752zm.226 4.008c-.117-1.045-.576-1.71-1.467-1.72-1.035-.01-1.476 1.046-1.484 1.72h2.95zm-2.95.468c0 1.154.476 2.15 1.63 2.15.655 0 .98-.225 1.486-1.025l.48.253c-.546.9-1.048 1.242-2.016 1.242-1.327 0-2.17-.852-2.17-2.64 0-1.575.803-2.64 2.093-2.64 1.377 0 2.035 1.086 2.035 2.658h-3.54zM247.823 24.258v-5.084h.588v.77c.517-.546.898-.868 1.692-.868.564 0 1.084.36 1.23.93.46-.54.95-.93 1.68-.93.894 0 1.34.49 1.34 1.377v3.805h-.583v-3.863c0-.566-.315-.85-.882-.85-.45 0-1.193.48-1.508.967v3.746h-.584v-3.863c0-.566-.314-.85-.88-.85-.45 0-1.194.48-1.505.967v3.746h-.587zM256.102 21.715c0 1.38.462 2.17 1.507 2.17s1.505-.79 1.505-2.17c0-1.377-.46-2.17-1.506-2.17-1.047 0-1.508.793-1.508 2.17zm3.598 0c0 1.38-.508 2.64-2.092 2.64s-2.092-1.26-2.092-2.64c0-1.377.508-2.64 2.092-2.64s2.092 1.263 2.092 2.64zM260.854 24.258v-5.084h.587v.803c.55-.568 1-.9 1.74-.9 1.057 0 1.51.605 1.51 1.71v3.472h-.59v-3.413c0-.84-.255-1.3-1.036-1.3-.625 0-.977.382-1.623.966v3.746h-.586v-.002zM266.35 19.174v-1.662h.585v1.662h1.113v.47h-1.113v3.724c0 .342.156.518.518.518.196 0 .41-.047.596-.107v.49c-.194.026-.4.087-.597.087-.83 0-1.104-.273-1.104-.89v-3.823h-.764v-.47h.763z"/><path fill-rule="evenodd" clip-rule="evenodd" d="M194.492 4.016c-1.028-.033-1.708.246-2.126.803-.56-.49-1.464-.804-2.23-.804-2.352 0-3.57 1.568-3.57 3.154 0 1.098.592 1.795 1.34 2.404-.4.12-1.41.785-1.41 1.654 0 .975.922 1.2 1.342 1.463v.036c-.785 0-1.64.54-1.64 1.672 0 1.432 1.605 2.162 4.044 2.162 2.893 0 4.2-1.393 4.2-2.684 0-3.623-5.96-1.64-5.96-3.102 0-.52.748-.557 1.69-.557 2.263 0 3.413-1.22 3.413-2.928 0-.696-.21-1.222-.486-1.605.33-.21.89-.21 1.393-.21v-1.46zm-2.893 3.1c0 .837-.662 1.5-1.48 1.5-.925 0-1.57-.663-1.57-1.5s.646-1.5 1.57-1.5c.818 0 1.48.665 1.48 1.5zm-1.882 5.96c2.09 0 2.736.625 2.736 1.043 0 .313-.47 1.01-1.862 1.01-1.815 0-2.405-.312-2.405-1.01 0-.384.346-1.044 1.53-1.044zM203.052 9.068V8.18c0-2.178-1.324-4.182-3.693-4.164-2.457 0-3.937 1.828-3.937 4.705 0 2.874 1.48 4.704 3.832 4.704 1.74 0 2.963-.557 3.797-1.846l-1.567-.977c-.54.628-1.01 1.08-2.02 1.08-1.013 0-1.85-.73-1.88-2.612h5.467zm-5.468-1.463c.032-1.256.695-1.988 1.74-1.988 1.046 0 1.708.732 1.742 1.988h-3.482zM210.762 5.39c-.784-.92-1.986-1.374-3.187-1.374-1.568 0-2.998.94-2.998 2.63 0 3.153 4.53 2.597 4.53 4.147 0 .61-.523 1.027-1.29 1.027-.922 0-1.603-.61-2.107-1.305l-1.447 1.078c.802 1.186 1.986 1.83 3.434 1.83 1.898 0 3.327-.836 3.327-2.717 0-3.313-4.53-2.648-4.53-4.2 0-.54.383-.89 1.22-.89.68 0 1.254.49 1.69.96l1.358-1.185zM211.825 4.19v1.743h1.254v5.398c0 1.292.625 2.093 2.23 2.093.59 0 1.114-.07 1.706-.14v-1.776c-.314.07-.662.174-.993.174-.54 0-.784-.138-.784-.626v-5.12h1.776V4.19h-1.777V1.192h-2.16V4.19h-1.255zM221.132 2.518V.496h-2.158v2.02h2.158v.002zm0 1.67h-2.158v9.062h2.158V4.19zM222.843 8.72c0 2.874 1.482 4.704 3.938 4.704 2.46 0 3.94-1.83 3.94-4.703 0-2.876-1.48-4.704-3.94-4.704-2.455 0-3.937 1.828-3.937 4.705zm5.717 0c0 2.022-.576 2.962-1.78 2.962-1.2 0-1.775-.94-1.775-2.96s.575-2.964 1.776-2.964c1.203 0 1.78.94 1.78 2.963zM234.413 13.25V6.717c.365-.42 1.08-.96 2.02-.96.732 0 1.115.384 1.115 1.603v5.89h2.16v-6.2c0-1.85-.87-3.034-2.685-3.034-1.06 0-1.984.594-2.785 1.15V4.19h-1.987v9.06h2.163z"/></g></svg>