<?xml version="1.0" encoding="utf-8"?>
<!-- Generator: Adobe Illustrator 16.0.3, SVG Export Plug-In . SVG Version: 6.00 Build 0)  -->
<!DOCTYPE svg PUBLIC "-//W3C//DTD SVG 1.1//EN" "http://www.w3.org/Graphics/SVG/1.1/DTD/svg11.dtd">
<svg version="1.1" id="Layer_1" xmlns="http://www.w3.org/2000/svg" xmlns:xlink="http://www.w3.org/1999/xlink" x="0px" y="0px"
	 width="160.746px" height="85.563px" viewBox="0 0 160.746 85.563" enable-background="new 0 0 160.746 85.563"
	 xml:space="preserve">
<g id="Hes-so">
	<path fill="#FFFFFF" d="M67.616,38.596c-0.447,0-0.48,0-0.955,0.023l-0.05-0.056c0.024-0.892,0.05-1.854,0.042-2.674
		c-0.195,0-0.406-0.009-0.795-0.009c-0.659,0-1.387,0.009-1.969,0.017c-0.009,1.512,0.017,2.046,0.058,2.643l-0.041,0.056
		c-0.465,0-0.49,0-0.955,0.023L62.9,38.563c0.033-0.78,0.042-1.186,0.042-3.598c0-1.074-0.024-1.457-0.05-1.935l0.05-0.056
		c0.432-0.008,0.533-0.008,0.938-0.023l0.043,0.055c-0.009,0.471-0.025,1.123-0.025,2.214c0.439,0.008,0.676,0.017,1.225,0.017
		c0.777,0,1.133-0.009,1.53-0.025c-0.018-1.512-0.018-1.688-0.06-2.181l0.042-0.056c0.456-0.008,0.523-0.008,0.938-0.023
		l0.043,0.055c-0.025,0.773-0.034,1.274-0.034,2.667c0,1.545,0.034,2.134,0.085,2.866L67.616,38.596L67.616,38.596z"/>
	<path fill="#FFFFFF" d="M72.458,36.168c0-0.334,0-0.772-0.059-0.995c-0.177-0.621-0.786-0.819-1.411-0.819
		c-0.498,0-0.988,0.103-1.463,0.262l-0.05,0.048c-0.008,0.167-0.008,0.215-0.025,0.581l0.067,0.039
		c0.355-0.143,0.735-0.302,1.285-0.302c0.422,0,0.616,0.151,0.702,0.295c0.075,0.128,0.075,0.278,0.075,0.493l-0.145,0.017
		c-1.521,0.167-2.467,0.51-2.467,1.576c0,0.787,0.592,1.328,1.437,1.328c0.642,0,1.022-0.285,1.184-0.405l-0.009,0.287l0.033,0.047
		c0.39-0.016,0.457-0.023,0.854-0.03l0.043-0.041c-0.043-0.518-0.052-0.604-0.052-1.592V36.168L72.458,36.168z M71.589,36.358v1.33
		c-0.093,0.079-0.397,0.35-0.922,0.35c-0.803,0-0.803-0.684-0.803-0.724c0-0.709,0.795-0.82,1.647-0.939L71.589,36.358
		L71.589,36.358z"/>
	<path fill="#FFFFFF" d="M77.749,34.48c-0.017,0.604-0.025,1.17-0.025,1.815c0,0.979,0.025,1.567,0.044,1.91
		c0,0.111,0.007,0.223,0.016,0.334l-0.034,0.049c-0.405,0.007-0.474,0.015-0.861,0.03l-0.051-0.047l0.008-0.334
		c-0.186,0.127-0.634,0.452-1.326,0.452c-0.33,0-0.693-0.071-0.963-0.271c-0.542-0.413-0.542-1.09-0.551-1.71v-0.495
		c-0.017-1.138-0.017-1.266-0.042-1.694l0.042-0.057c0.397-0.008,0.474-0.008,0.871-0.039l0.051,0.056l-0.034,1.743
		c0,0.215-0.009,0.375,0,0.756c0.008,0.335,0.025,1.051,0.879,1.051c0.499,0,0.854-0.263,1.057-0.414
		c0.009-0.43,0.009-0.796,0.009-1.258c0-1.106-0.009-1.329-0.061-1.847l0.052-0.056c0.389-0.008,0.48-0.008,0.87-0.031L77.749,34.48
		L77.749,34.48z"/>
	<path fill="#FFFFFF" d="M81.256,37.967c-0.025,0.263-0.025,0.318-0.033,0.55l-0.042,0.047c-0.178,0.04-0.321,0.072-0.635,0.072
		c-0.202,0-0.735,0-0.996-0.414c-0.152-0.231-0.152-0.422-0.152-1.361l0.017-1.751c-0.296,0-0.305,0.007-0.608,0.016l-0.033-0.048
		c0.016-0.255,0.016-0.318,0.016-0.573l0.051-0.048c0.187,0,0.296,0.008,0.575,0c-0.009-0.167-0.009-0.342-0.009-0.509
		c-0.008-0.152-0.017-0.303-0.024-0.455l0.042-0.055c0.38-0.088,0.474-0.111,0.862-0.223l0.059,0.039
		c-0.025,0.526-0.034,0.629-0.034,1.21c0.355-0.008,0.456-0.008,0.938-0.023l0.042,0.048c-0.017,0.207-0.026,0.294-0.026,0.565
		l-0.041,0.048c-0.422-0.009-0.475-0.017-0.921-0.017l-0.017,1.481c0.008,0.095,0.008,0.549,0.008,0.661
		c0,0.58,0.075,0.763,0.499,0.763c0.177,0,0.313-0.039,0.405-0.071L81.256,37.967L81.256,37.967z"/>
	<path fill="#FFFFFF" d="M85.786,37.585c-0.11,0.087-0.296,0.23-0.609,0.35c-0.235,0.08-0.489,0.12-0.734,0.12
		c-0.263,0-0.745-0.04-1.09-0.43c-0.288-0.326-0.313-0.717-0.321-0.995c1.385-0.009,1.614-0.009,2.934,0l0.057-0.048
		c0.009-0.351,0.027-1.139-0.455-1.68c-0.255-0.287-0.718-0.549-1.387-0.549c-1.106,0-2.053,0.724-2.053,2.204
		c0,1.386,0.869,2.133,2.256,2.133c0.752,0,1.208-0.229,1.354-0.301l0.05-0.057c0.017-0.311,0.025-0.39,0.066-0.708L85.786,37.585
		L85.786,37.585z M85.152,36.017c-0.778,0.008-1.099,0.017-2.121,0.008c0.085-0.796,0.642-1.099,1.115-1.099
		c0.38,0,0.752,0.184,0.922,0.621C85.135,35.729,85.145,35.905,85.152,36.017L85.152,36.017z"/>
	<path fill="#FFFFFF" d="M93.849,37.943c-0.026,0.271-0.026,0.326-0.043,0.597l-0.06,0.056c-1.646,0-1.908,0.008-3.515,0.023
		l-0.043-0.056c0.026-0.629,0.052-1.059,0.052-2.516c0-1.337,0-2.101-0.061-3.017l0.052-0.056c1.664-0.008,1.995-0.008,3.55-0.023
		l0.051,0.055c-0.026,0.239-0.043,0.335-0.06,0.621l-0.051,0.056c-1.09-0.03-1.454-0.03-2.526-0.039
		c-0.025,0.732-0.025,0.963-0.025,1.695c1.039,0.009,1.36,0,2.391-0.016l0.043,0.055c-0.033,0.279-0.033,0.359-0.043,0.614
		l-0.051,0.055c-0.979-0.023-1.191-0.023-2.34-0.023c-0.018,0.924-0.009,1.146,0,1.902c1.275,0,1.537,0,2.627-0.039L93.849,37.943
		L93.849,37.943z"/>
	<path fill="#FFFFFF" d="M98.294,37.647c-0.034,0.343-0.043,0.383-0.068,0.709l-0.06,0.057c-0.244,0.11-0.573,0.271-1.165,0.271
		c-1.276,0-2.104-0.869-2.104-2.111c0-1.265,0.811-2.22,2.121-2.22c0.549,0,0.938,0.167,1.157,0.254l0.033,0.056
		c-0.033,0.286-0.042,0.391-0.059,0.629l-0.068,0.032c-0.277-0.191-0.599-0.311-0.938-0.311c-0.701,0-1.317,0.509-1.317,1.528
		c0,1.083,0.65,1.473,1.31,1.473c0.575,0,0.929-0.278,1.09-0.398L98.294,37.647L98.294,37.647z"/>
	<path fill="#FFFFFF" d="M103.33,36.463c-0.018-0.558-0.128-1.114-0.516-1.537c-0.371-0.397-0.938-0.572-1.513-0.572
		c-0.845,0-1.335,0.325-1.571,0.557c-0.566,0.533-0.584,1.313-0.584,1.616c0,0.262,0.008,1.074,0.584,1.623
		c0.27,0.264,0.752,0.535,1.513,0.535c0.591,0,1.09-0.137,1.462-0.486c0.279-0.264,0.457-0.573,0.549-0.964
		C103.313,36.995,103.33,36.732,103.33,36.463L103.33,36.463z M102.409,36.494c0.008,0.167,0,0.701-0.195,1.059
		c-0.244,0.438-0.651,0.533-0.964,0.533c-0.168,0-0.346-0.031-0.497-0.104c-0.668-0.318-0.677-1.122-0.677-1.44
		c0-0.335,0.026-0.797,0.253-1.122c0.296-0.446,0.77-0.462,0.931-0.462c0.473,0,0.743,0.207,0.904,0.453
		C102.375,35.762,102.409,36.296,102.409,36.494L102.409,36.494z"/>
	<path fill="#FFFFFF" d="M105.586,38.589c-0.406,0.007-0.488,0.015-0.888,0.03l-0.041-0.056c0.017-0.564,0.041-1.281,0.041-2.81
		c0-1.099,0-2.276-0.083-3.295l0.042-0.049c0.413-0.063,0.499-0.079,0.922-0.167l0.05,0.055c-0.06,1.044-0.06,2.095-0.06,3.138
		c0,1.743,0.024,2.348,0.067,3.104L105.586,38.589L105.586,38.589z"/>
	<path fill="#FFFFFF" d="M110.606,37.585c-0.11,0.087-0.296,0.23-0.608,0.35c-0.236,0.08-0.49,0.12-0.735,0.12
		c-0.263,0-0.743-0.04-1.091-0.43c-0.287-0.326-0.312-0.717-0.32-0.995c1.385-0.009,1.615-0.009,2.933,0l0.059-0.048
		c0.01-0.351,0.024-1.139-0.456-1.68c-0.254-0.287-0.718-0.549-1.387-0.549c-1.106,0-2.053,0.724-2.053,2.204
		c0,1.386,0.869,2.133,2.256,2.133c0.753,0,1.208-0.229,1.352-0.301l0.052-0.057c0.017-0.311,0.026-0.39,0.066-0.708L110.606,37.585
		L110.606,37.585z M109.971,36.017c-0.776,0.008-1.097,0.017-2.119,0.008c0.083-0.796,0.642-1.099,1.115-1.099
		c0.38,0,0.752,0.184,0.922,0.621C109.956,35.729,109.965,35.905,109.971,36.017L109.971,36.017z"/>
	<path fill="#FFFFFF" d="M117.189,35.411c0.616,0.256,1.438,0.59,1.438,1.608c0,0.892-0.703,1.695-2.174,1.695
		c-0.896,0-1.47-0.254-1.673-0.35l-0.033-0.056c0.033-0.279,0.042-0.431,0.066-0.733l0.086-0.031c0.212,0.136,0.701,0.47,1.487,0.47
		c0.87,0,1.235-0.422,1.235-0.899c0-0.558-0.493-0.772-1.041-0.972l-0.423-0.175c-0.601-0.263-1.402-0.605-1.402-1.576
		c0-0.295,0.084-0.598,0.262-0.836c0.389-0.525,1.09-0.701,1.775-0.701c0.668,0,1.071,0.12,1.52,0.256l0.044,0.063
		c-0.035,0.304-0.044,0.414-0.068,0.702l-0.067,0.031c-0.363-0.176-0.76-0.366-1.394-0.366c-0.702,0-1.142,0.31-1.142,0.78
		c0,0.357,0.253,0.524,0.431,0.628c0.109,0.064,0.143,0.08,0.651,0.288L117.189,35.411L117.189,35.411z"/>
	<path fill="#FFFFFF" d="M120.856,34.448l-0.059-0.048c-0.38,0.072-0.473,0.096-0.887,0.159l-0.043,0.048
		c0.103,0.908,0.103,1.465,0.109,2.698c0,0.471,0.009,0.939,0.009,1.409c0,0.813-0.016,1.313-0.033,1.8l0.043,0.047
		c0.295-0.008,0.591-0.016,0.886-0.023l0.052-0.048c-0.043-0.748-0.059-0.955-0.066-1.91c0.117,0.009,0.22,0.016,0.379,0.016
		c1.782,0,2.652-1.059,2.652-2.292c0-1.123-0.75-1.95-1.825-1.95c-0.657,0-1.063,0.302-1.232,0.429L120.856,34.448L120.856,34.448z
		 M120.856,37.982c-0.009-0.461-0.016-0.931-0.016-1.4c0-0.406,0.007-0.813,0.016-1.227c0.195-0.127,0.516-0.335,0.973-0.335
		c0.677,0,1.141,0.511,1.141,1.338c0,0.979-0.643,1.648-1.757,1.648C121.068,38.007,120.967,37.99,120.856,37.982L120.856,37.982z"
		/>
	<path fill="#FFFFFF" d="M128.684,37.585c-0.11,0.087-0.296,0.23-0.609,0.35c-0.236,0.08-0.489,0.12-0.735,0.12
		c-0.262,0-0.743-0.04-1.09-0.43c-0.288-0.326-0.312-0.717-0.322-0.995c1.387-0.009,1.615-0.009,2.934,0l0.061-0.048
		c0.007-0.351,0.023-1.139-0.459-1.68c-0.253-0.287-0.716-0.549-1.385-0.549c-1.106,0-2.054,0.724-2.054,2.204
		c0,1.386,0.87,2.133,2.258,2.133c0.751,0,1.207-0.229,1.352-0.301l0.051-0.057c0.018-0.311,0.025-0.39,0.066-0.708L128.684,37.585
		L128.684,37.585z M128.007,32.688c-0.161,0.009-0.321,0.009-0.482,0.009s-0.313,0-0.497-0.009l-0.052,0.041
		c-0.186,0.517-0.431,1.025-0.516,1.218l0.034,0.055c0.296,0,0.389,0,0.616,0.009l0.059-0.032c0.382-0.581,0.457-0.692,0.871-1.225
		L128.007,32.688L128.007,32.688z M128.049,36.017c-0.777,0.008-1.098,0.017-2.122,0.008c0.085-0.796,0.644-1.099,1.117-1.099
		c0.38,0,0.751,0.184,0.921,0.621C128.032,35.729,128.04,35.905,128.049,36.017L128.049,36.017z"/>
	<path fill="#FFFFFF" d="M133.382,37.647c-0.034,0.343-0.042,0.383-0.067,0.709l-0.059,0.057c-0.246,0.11-0.575,0.271-1.168,0.271
		c-1.276,0-2.104-0.869-2.104-2.111c0-1.265,0.812-2.22,2.121-2.22c0.551,0,0.938,0.167,1.157,0.254l0.034,0.056
		c-0.034,0.286-0.041,0.391-0.059,0.629l-0.067,0.032c-0.28-0.191-0.601-0.311-0.938-0.311c-0.702,0-1.318,0.509-1.318,1.528
		c0,1.083,0.649,1.473,1.31,1.473c0.573,0,0.928-0.278,1.09-0.398L133.382,37.647L133.382,37.647z"/>
	<path fill="#FFFFFF" d="M135.393,33.294c-0.431,0.017-0.524,0.023-0.937,0.063l-0.052-0.047c0.009-0.104,0.009-0.216,0.009-0.318
		c0-0.144-0.009-0.271-0.018-0.432l0.061-0.046c0.438-0.032,0.515-0.04,0.937-0.08l0.052,0.048c-0.009,0.326-0.009,0.406,0,0.756
		L135.393,33.294L135.393,33.294z M135.384,38.589c-0.439,0.007-0.507,0.007-0.92,0.03l-0.042-0.056
		c0.024-0.421,0.05-0.787,0.05-1.671c0-1.521-0.025-1.808-0.083-2.277l0.04-0.056c0.363-0.056,0.491-0.071,0.914-0.159l0.083,0.048
		c-0.023,0.415-0.05,0.844-0.05,1.871c0,1.48,0.017,1.68,0.05,2.221L135.384,38.589L135.384,38.589z"/>
	<path fill="#FFFFFF" d="M140.176,36.168c0-0.334,0-0.772-0.06-0.995c-0.176-0.621-0.785-0.819-1.411-0.819
		c-0.498,0-0.988,0.103-1.461,0.262l-0.052,0.048c-0.008,0.167-0.008,0.215-0.023,0.581l0.066,0.039
		c0.355-0.143,0.734-0.302,1.285-0.302c0.423,0,0.617,0.151,0.7,0.295c0.076,0.128,0.076,0.278,0.076,0.493l-0.144,0.017
		c-1.521,0.167-2.466,0.51-2.466,1.576c0,0.787,0.591,1.328,1.435,1.328c0.642,0,1.022-0.285,1.184-0.405l-0.009,0.287l0.034,0.047
		c0.389-0.016,0.457-0.023,0.854-0.03l0.042-0.041c-0.042-0.518-0.051-0.604-0.051-1.592V36.168L140.176,36.168z M139.306,36.358
		v1.33c-0.094,0.079-0.397,0.35-0.922,0.35c-0.803,0-0.803-0.684-0.803-0.724c0-0.709,0.795-0.82,1.649-0.939L139.306,36.358
		L139.306,36.358z"/>
	<path fill="#FFFFFF" d="M142.645,38.589c-0.406,0.007-0.491,0.015-0.888,0.03l-0.043-0.056c0.018-0.564,0.043-1.281,0.043-2.81
		c0-1.099,0-2.276-0.086-3.295l0.043-0.049c0.416-0.063,0.499-0.079,0.921-0.167l0.05,0.055c-0.059,1.044-0.059,2.095-0.059,3.138
		c0,1.743,0.025,2.348,0.069,3.104L142.645,38.589L142.645,38.589z"/>
	<path fill="#FFFFFF" d="M145.162,33.294c-0.432,0.017-0.523,0.023-0.938,0.063l-0.05-0.047c0.008-0.104,0.008-0.216,0.008-0.318
		c0-0.144-0.008-0.271-0.016-0.432l0.058-0.046c0.44-0.032,0.516-0.04,0.938-0.08l0.051,0.048c-0.008,0.326-0.008,0.406,0,0.756
		L145.162,33.294L145.162,33.294z M145.153,38.589c-0.438,0.007-0.508,0.007-0.921,0.03l-0.042-0.056
		c0.025-0.421,0.051-0.787,0.051-1.671c0-1.521-0.025-1.808-0.085-2.277l0.043-0.056c0.363-0.056,0.491-0.071,0.913-0.159
		l0.083,0.048c-0.023,0.415-0.05,0.844-0.05,1.871c0,1.48,0.017,1.68,0.05,2.221L145.153,38.589L145.153,38.589z"/>
	<path fill="#FFFFFF" d="M148.5,36.176c0.34,0.104,1.108,0.351,1.108,1.193c0,0.319-0.127,0.678-0.474,0.94
		c-0.448,0.357-1.049,0.381-1.354,0.381c-0.455,0-0.836-0.078-1.156-0.199c-0.043-0.015-0.086-0.03-0.127-0.046l-0.042-0.072
		c0.033-0.311,0.033-0.351,0.05-0.669l0.086-0.023c0.151,0.111,0.521,0.382,1.174,0.382c0.668,0,0.913-0.351,0.913-0.597
		c0-0.366-0.362-0.486-0.88-0.646l-0.27-0.088c-0.348-0.103-1.106-0.333-1.106-1.154c0-0.819,0.759-1.225,1.706-1.225
		c0.623,0,1.064,0.167,1.217,0.223l0.042,0.056c-0.034,0.294-0.042,0.326-0.066,0.628l-0.076,0.032
		c-0.213-0.127-0.542-0.318-1.09-0.318c-0.118,0-0.237,0.008-0.365,0.04c-0.255,0.063-0.464,0.23-0.464,0.478
		c0,0.343,0.347,0.446,0.872,0.598L148.5,36.176L148.5,36.176z"/>
	<path fill="#FFFFFF" d="M154.23,37.585c-0.11,0.087-0.295,0.23-0.607,0.35c-0.236,0.08-0.491,0.12-0.736,0.12
		c-0.262,0-0.742-0.04-1.092-0.43c-0.286-0.326-0.313-0.717-0.32-0.995c1.386-0.009,1.614-0.009,2.933,0l0.06-0.048
		c0.009-0.351,0.025-1.139-0.457-1.68c-0.253-0.287-0.718-0.549-1.385-0.549c-1.107,0-2.053,0.724-2.053,2.204
		c0,1.386,0.869,2.133,2.255,2.133c0.753,0,1.21-0.229,1.354-0.301l0.05-0.057c0.016-0.311,0.025-0.39,0.068-0.708L154.23,37.585
		L154.23,37.585z M153.555,32.688c-0.16,0.009-0.321,0.009-0.482,0.009c-0.16,0-0.313,0-0.498-0.009l-0.051,0.041
		c-0.186,0.517-0.432,1.025-0.516,1.218l0.034,0.055c0.296,0,0.389,0,0.616,0.009l0.061-0.032c0.38-0.581,0.455-0.692,0.87-1.225
		L153.555,32.688L153.555,32.688z M153.596,36.017c-0.776,0.008-1.098,0.017-2.121,0.008c0.086-0.796,0.643-1.099,1.115-1.099
		c0.381,0,0.752,0.184,0.922,0.621C153.58,35.729,153.589,35.905,153.596,36.017L153.596,36.017z"/>
	<path fill="#FFFFFF" d="M159.19,37.585c-0.108,0.087-0.296,0.23-0.607,0.35c-0.238,0.08-0.491,0.12-0.735,0.12
		c-0.263,0-0.744-0.04-1.09-0.43c-0.287-0.326-0.313-0.717-0.32-0.995c1.385-0.009,1.614-0.009,2.932,0l0.059-0.048
		c0.008-0.351,0.026-1.139-0.457-1.68c-0.253-0.287-0.719-0.549-1.386-0.549c-1.106,0-2.053,0.724-2.053,2.204
		c0,1.386,0.871,2.133,2.257,2.133c0.752,0,1.207-0.229,1.353-0.301l0.049-0.057c0.018-0.311,0.025-0.39,0.069-0.708L159.19,37.585
		L159.19,37.585z M158.558,36.017c-0.778,0.008-1.1,0.017-2.12,0.008c0.083-0.796,0.64-1.099,1.112-1.099
		c0.383,0,0.755,0.184,0.923,0.621C158.541,35.729,158.549,35.905,158.558,36.017L158.558,36.017z"/>
	<path fill="#FFFFFF" d="M74.529,41.967c0.042,0.461,0.085,0.939,0.076,1.927c-0.229-0.017-0.313-0.017-0.489-0.017
		c-0.439,0-1.243,0.024-1.86,0.549c-0.355,0.295-0.744,0.845-0.744,1.712c0,1.21,0.777,2.046,1.902,2.046
		c0.617,0,0.963-0.255,1.165-0.397l-0.017,0.294l0.061,0.048c0.389-0.017,0.489-0.023,0.861-0.023l0.042-0.056
		c-0.035-0.55-0.068-1.139-0.068-2.372c0-0.796,0.01-2.771,0.068-3.877l-0.059-0.049c-0.381,0.08-0.466,0.096-0.896,0.168
		L74.529,41.967L74.529,41.967z M74.571,47.124c-0.118,0.096-0.43,0.352-0.946,0.352c-0.439,0-0.719-0.191-0.871-0.358
		c-0.177-0.199-0.313-0.525-0.313-0.979c0-0.708,0.305-1.083,0.491-1.25c0.406-0.358,0.964-0.373,1.226-0.373
		c0.179,0,0.279,0.015,0.422,0.022C74.588,45.844,74.588,46.082,74.571,47.124L74.571,47.124z"/>
	<path fill="#FFFFFF" d="M80.487,47.093c-0.109,0.088-0.296,0.231-0.608,0.351c-0.237,0.08-0.49,0.12-0.736,0.12
		c-0.261,0-0.742-0.04-1.089-0.43c-0.286-0.327-0.313-0.718-0.321-0.996c1.386-0.008,1.614-0.008,2.933,0l0.059-0.047
		c0.009-0.351,0.024-1.139-0.457-1.68c-0.253-0.287-0.717-0.55-1.385-0.55c-1.107,0-2.054,0.725-2.054,2.205
		c0,1.386,0.87,2.134,2.257,2.134c0.752,0,1.208-0.23,1.352-0.303l0.051-0.056c0.018-0.311,0.025-0.39,0.067-0.708L80.487,47.093
		L80.487,47.093z M79.854,45.524c-0.777,0.009-1.1,0.017-2.121,0.009c0.084-0.797,0.642-1.099,1.115-1.099
		c0.38,0,0.752,0.184,0.921,0.62C79.837,45.238,79.845,45.414,79.854,45.524L79.854,45.524z"/>
	<path fill="#FFFFFF" d="M87.07,44.92c0.617,0.255,1.438,0.59,1.438,1.608c0,0.891-0.702,1.695-2.173,1.695
		c-0.896,0-1.47-0.254-1.673-0.352l-0.033-0.055c0.033-0.278,0.041-0.43,0.066-0.732l0.085-0.032
		c0.211,0.136,0.702,0.471,1.487,0.471c0.87,0,1.234-0.422,1.234-0.899c0-0.558-0.491-0.772-1.041-0.972l-0.422-0.175
		c-0.6-0.263-1.403-0.605-1.403-1.576c0-0.295,0.086-0.599,0.263-0.837c0.39-0.524,1.09-0.7,1.775-0.7
		c0.667,0,1.072,0.119,1.521,0.255l0.042,0.063c-0.034,0.303-0.042,0.414-0.068,0.701l-0.067,0.031
		c-0.363-0.175-0.761-0.365-1.395-0.365c-0.701,0-1.141,0.31-1.141,0.779c0,0.358,0.253,0.525,0.431,0.629
		c0.109,0.064,0.144,0.079,0.65,0.287L87.07,44.92L87.07,44.92z"/>
	<path fill="#FFFFFF" d="M93.553,43.988c-0.017,0.604-0.026,1.171-0.026,1.815c0,0.979,0.026,1.568,0.044,1.911
		c0,0.111,0.008,0.223,0.016,0.334l-0.033,0.048c-0.405,0.008-0.475,0.015-0.862,0.031l-0.05-0.048l0.008-0.334
		c-0.187,0.126-0.635,0.454-1.326,0.454c-0.33,0-0.693-0.072-0.965-0.271c-0.54-0.414-0.54-1.09-0.548-1.711v-0.494
		c-0.018-1.138-0.018-1.266-0.044-1.695l0.044-0.056c0.396-0.008,0.472-0.008,0.868-0.04l0.053,0.056l-0.034,1.743
		c0,0.216-0.009,0.374,0,0.756c0.008,0.335,0.025,1.052,0.878,1.052c0.499,0,0.854-0.263,1.058-0.415
		c0.009-0.429,0.009-0.795,0.009-1.257c0-1.107-0.009-1.33-0.061-1.847l0.052-0.056c0.39-0.008,0.481-0.008,0.87-0.032
		L93.553,43.988L93.553,43.988z"/>
	<path fill="#FFFFFF" d="M96.063,42.802c-0.433,0.017-0.525,0.024-0.939,0.064l-0.051-0.048c0.01-0.104,0.01-0.215,0.01-0.318
		c0-0.144-0.01-0.271-0.018-0.431l0.059-0.047c0.44-0.031,0.517-0.04,0.939-0.079l0.05,0.048c-0.008,0.325-0.008,0.405,0,0.755
		L96.063,42.802L96.063,42.802z M96.054,48.097c-0.439,0.008-0.508,0.008-0.921,0.031l-0.042-0.056
		c0.024-0.422,0.05-0.788,0.05-1.672c0-1.52-0.025-1.808-0.084-2.276l0.043-0.056c0.363-0.056,0.489-0.072,0.912-0.159l0.084,0.048
		c-0.025,0.413-0.049,0.844-0.049,1.87c0,1.481,0.017,1.681,0.049,2.222L96.054,48.097L96.054,48.097z"/>
	<path fill="#FFFFFF" d="M99.401,45.685c0.338,0.103,1.106,0.35,1.106,1.193c0,0.318-0.127,0.677-0.473,0.939
		c-0.449,0.358-1.049,0.383-1.354,0.383c-0.456,0-0.836-0.08-1.157-0.2c-0.042-0.016-0.085-0.03-0.126-0.047l-0.043-0.071
		c0.034-0.312,0.034-0.351,0.051-0.669l0.085-0.024c0.151,0.111,0.523,0.382,1.175,0.382c0.667,0,0.912-0.351,0.912-0.597
		c0-0.365-0.363-0.486-0.879-0.645l-0.271-0.087c-0.346-0.104-1.107-0.335-1.107-1.155s0.762-1.226,1.708-1.226
		c0.625,0,1.064,0.167,1.217,0.223l0.042,0.056c-0.033,0.295-0.042,0.327-0.067,0.629l-0.076,0.032
		c-0.211-0.128-0.54-0.318-1.091-0.318c-0.117,0-0.236,0.008-0.363,0.04c-0.253,0.063-0.465,0.23-0.465,0.477
		c0,0.343,0.347,0.446,0.872,0.597L99.401,45.685L99.401,45.685z"/>
	<path fill="#FFFFFF" d="M103.474,45.685c0.338,0.103,1.106,0.35,1.106,1.193c0,0.318-0.125,0.677-0.474,0.939
		c-0.446,0.358-1.048,0.383-1.351,0.383c-0.457,0-0.838-0.08-1.157-0.2c-0.043-0.016-0.086-0.03-0.127-0.047l-0.042-0.071
		c0.033-0.312,0.033-0.351,0.05-0.669l0.085-0.024c0.152,0.111,0.523,0.382,1.174,0.382c0.667,0,0.912-0.351,0.912-0.597
		c0-0.365-0.362-0.486-0.878-0.645l-0.27-0.087c-0.349-0.104-1.108-0.335-1.108-1.155s0.76-1.226,1.708-1.226
		c0.625,0,1.063,0.167,1.217,0.223l0.042,0.056c-0.034,0.295-0.042,0.327-0.067,0.629l-0.076,0.032
		c-0.211-0.128-0.542-0.318-1.09-0.318c-0.119,0-0.237,0.008-0.363,0.04c-0.255,0.063-0.466,0.23-0.466,0.477
		c0,0.343,0.348,0.446,0.87,0.597L103.474,45.685L103.474,45.685z"/>
	<path fill="#FFFFFF" d="M109.203,47.093c-0.11,0.088-0.296,0.231-0.609,0.351c-0.235,0.08-0.489,0.12-0.733,0.12
		c-0.263,0-0.744-0.04-1.091-0.43c-0.286-0.327-0.313-0.718-0.32-0.996c1.385-0.008,1.613-0.008,2.932,0l0.059-0.047
		c0.01-0.351,0.027-1.139-0.455-1.68c-0.255-0.287-0.719-0.55-1.387-0.55c-1.106,0-2.055,0.725-2.055,2.205
		c0,1.386,0.871,2.134,2.257,2.134c0.753,0,1.209-0.23,1.353-0.303l0.051-0.056c0.017-0.311,0.026-0.39,0.067-0.708L109.203,47.093
		L109.203,47.093z M108.57,45.524c-0.778,0.009-1.099,0.017-2.121,0.009c0.084-0.797,0.642-1.099,1.115-1.099
		c0.379,0,0.751,0.184,0.921,0.62C108.553,45.238,108.561,45.414,108.57,45.524L108.57,45.524z"/>
	<path fill="#FFFFFF" d="M117.535,45.971c-0.016-0.557-0.126-1.113-0.515-1.536c-0.371-0.398-0.938-0.573-1.513-0.573
		c-0.846,0-1.336,0.326-1.571,0.558c-0.567,0.533-0.583,1.313-0.583,1.615c0,0.263,0.009,1.075,0.583,1.625
		c0.27,0.262,0.752,0.532,1.512,0.532c0.591,0,1.09-0.135,1.463-0.485c0.278-0.263,0.455-0.572,0.55-0.963
		C117.52,46.504,117.535,46.242,117.535,45.971L117.535,45.971z M116.615,46.003c0.008,0.167,0,0.701-0.195,1.059
		c-0.244,0.438-0.65,0.533-0.963,0.533c-0.169,0-0.346-0.031-0.498-0.104c-0.668-0.318-0.677-1.122-0.677-1.441
		c0-0.334,0.026-0.796,0.255-1.121c0.295-0.446,0.768-0.462,0.929-0.462c0.473,0,0.744,0.206,0.905,0.453
		C116.581,45.271,116.615,45.804,116.615,46.003L116.615,46.003z"/>
	<path fill="#FFFFFF" d="M122.058,47.157c-0.033,0.342-0.043,0.382-0.066,0.708l-0.061,0.056c-0.246,0.111-0.574,0.271-1.166,0.271
		c-1.275,0-2.105-0.867-2.105-2.109c0-1.266,0.812-2.221,2.121-2.221c0.55,0,0.939,0.167,1.158,0.255l0.034,0.056
		c-0.034,0.286-0.042,0.391-0.059,0.629l-0.068,0.031c-0.277-0.19-0.6-0.31-0.938-0.31c-0.702,0-1.318,0.509-1.318,1.527
		c0,1.084,0.65,1.474,1.311,1.474c0.574,0,0.929-0.279,1.091-0.399L122.058,47.157L122.058,47.157z"/>
	<path fill="#FFFFFF" d="M126.31,47.157c-0.036,0.342-0.042,0.382-0.069,0.708l-0.059,0.056c-0.244,0.111-0.575,0.271-1.165,0.271
		c-1.277,0-2.106-0.867-2.106-2.109c0-1.266,0.813-2.221,2.122-2.221c0.55,0,0.938,0.167,1.158,0.255l0.033,0.056
		c-0.033,0.286-0.042,0.391-0.06,0.629l-0.067,0.031c-0.278-0.19-0.6-0.31-0.938-0.31c-0.7,0-1.318,0.509-1.318,1.527
		c0,1.084,0.651,1.474,1.31,1.474c0.575,0,0.931-0.279,1.091-0.399L126.31,47.157L126.31,47.157z"/>
	<path fill="#FFFFFF" d="M128.32,42.802c-0.432,0.017-0.525,0.024-0.938,0.064l-0.053-0.048c0.009-0.104,0.009-0.215,0.009-0.318
		c0-0.144-0.009-0.271-0.016-0.431l0.06-0.047c0.438-0.031,0.515-0.04,0.938-0.079l0.05,0.048c-0.009,0.325-0.009,0.405,0,0.755
		L128.32,42.802L128.32,42.802z M128.312,48.097c-0.438,0.008-0.507,0.008-0.921,0.031l-0.043-0.056
		c0.025-0.422,0.051-0.788,0.051-1.672c0-1.52-0.025-1.808-0.085-2.276l0.044-0.056c0.362-0.056,0.488-0.072,0.91-0.159l0.086,0.048
		c-0.026,0.413-0.053,0.844-0.053,1.87c0,1.481,0.02,1.681,0.053,2.222L128.312,48.097L128.312,48.097z"/>
	<path fill="#FFFFFF" d="M132.664,41.967c0.042,0.461,0.084,0.939,0.075,1.927c-0.229-0.017-0.312-0.017-0.49-0.017
		c-0.439,0-1.243,0.024-1.859,0.549c-0.354,0.295-0.744,0.845-0.744,1.712c0,1.21,0.777,2.046,1.902,2.046
		c0.617,0,0.963-0.255,1.168-0.397l-0.02,0.294l0.06,0.048c0.39-0.017,0.489-0.023,0.863-0.023l0.041-0.056
		c-0.034-0.55-0.067-1.139-0.067-2.372c0-0.796,0.009-2.771,0.067-3.877l-0.059-0.049c-0.379,0.08-0.464,0.096-0.896,0.168
		L132.664,41.967L132.664,41.967z M132.706,47.124c-0.118,0.096-0.432,0.352-0.947,0.352c-0.439,0-0.718-0.191-0.87-0.358
		c-0.178-0.199-0.313-0.525-0.313-0.979c0-0.708,0.307-1.083,0.491-1.25c0.405-0.358,0.962-0.373,1.226-0.373
		c0.177,0,0.278,0.015,0.424,0.022C132.723,45.844,132.723,46.082,132.706,47.124L132.706,47.124z"/>
	<path fill="#FFFFFF" d="M138.622,47.093c-0.11,0.088-0.296,0.231-0.608,0.351c-0.238,0.08-0.491,0.12-0.735,0.12
		c-0.263,0-0.744-0.04-1.09-0.43c-0.288-0.327-0.313-0.718-0.322-0.996c1.386-0.008,1.614-0.008,2.932,0l0.06-0.047
		c0.009-0.351,0.027-1.139-0.455-1.68c-0.254-0.287-0.719-0.55-1.387-0.55c-1.107,0-2.054,0.725-2.054,2.205
		c0,1.386,0.87,2.134,2.257,2.134c0.751,0,1.209-0.23,1.352-0.303l0.052-0.056c0.016-0.311,0.024-0.39,0.067-0.708L138.622,47.093
		L138.622,47.093z M137.987,45.524c-0.776,0.009-1.098,0.017-2.121,0.009c0.086-0.797,0.643-1.099,1.117-1.099
		c0.378,0,0.751,0.184,0.92,0.62C137.97,45.238,137.98,45.414,137.987,45.524L137.987,45.524z"/>
	<path fill="#FFFFFF" d="M143.888,48.097c-0.408,0.008-0.458,0.008-0.848,0.031l-0.058-0.056c0-0.088,0.009-0.175,0.009-0.263
		c0.008-0.391,0.008-0.78,0.008-1.171c0-1.225-0.008-1.305-0.051-1.472c-0.161-0.604-0.643-0.604-0.76-0.604
		c-0.509,0-0.896,0.277-1.124,0.445c-0.01,1.385,0.008,2.109,0.066,3.041l-0.051,0.048c-0.413,0.008-0.482,0.008-0.887,0.031
		l-0.042-0.056c0.009-0.446,0.024-0.876,0.024-1.464c0-1.274-0.06-1.951-0.101-2.484l0.05-0.056
		c0.423-0.072,0.498-0.088,0.896-0.159l0.06,0.056l-0.008,0.414c0.22-0.144,0.744-0.494,1.487-0.494
		c0.212,0,0.474,0.032,0.702,0.151c0.218,0.119,0.397,0.303,0.488,0.518c0.111,0.238,0.118,0.478,0.128,0.971v0.933
		c0.023,0.931,0.033,1.289,0.06,1.592L143.888,48.097L143.888,48.097z"/>
	<path fill="#FFFFFF" d="M147.385,47.476c-0.024,0.262-0.024,0.318-0.033,0.549l-0.043,0.048c-0.177,0.039-0.32,0.072-0.633,0.072
		c-0.204,0-0.735,0-0.999-0.414c-0.15-0.231-0.15-0.422-0.15-1.361l0.016-1.751c-0.296,0-0.303,0.007-0.608,0.016l-0.033-0.048
		c0.017-0.256,0.017-0.319,0.017-0.573l0.05-0.048c0.187,0,0.299,0.008,0.575,0c-0.008-0.167-0.008-0.343-0.008-0.51
		c-0.008-0.152-0.017-0.302-0.026-0.454l0.043-0.056c0.381-0.087,0.474-0.111,0.861-0.223l0.06,0.04
		c-0.024,0.525-0.033,0.629-0.033,1.21c0.354-0.008,0.455-0.008,0.938-0.023l0.044,0.047c-0.018,0.208-0.026,0.295-0.026,0.566
		l-0.042,0.047c-0.423-0.008-0.474-0.017-0.921-0.017l-0.019,1.481c0.011,0.096,0.011,0.55,0.011,0.661
		c0,0.58,0.075,0.764,0.497,0.764c0.179,0,0.314-0.04,0.406-0.071L147.385,47.476L147.385,47.476z"/>
	<path fill="#FFFFFF" d="M151.703,45.677c0-0.335,0-0.773-0.06-0.996c-0.176-0.621-0.785-0.819-1.411-0.819
		c-0.498,0-0.987,0.104-1.461,0.263l-0.052,0.048c-0.008,0.167-0.008,0.215-0.025,0.581l0.068,0.039
		c0.356-0.143,0.735-0.302,1.283-0.302c0.423,0,0.618,0.151,0.701,0.295c0.078,0.127,0.078,0.278,0.078,0.493l-0.145,0.016
		c-1.521,0.167-2.468,0.51-2.468,1.577c0,0.788,0.592,1.329,1.438,1.329c0.642,0,1.021-0.287,1.182-0.406l-0.007,0.286l0.033,0.048
		c0.39-0.017,0.456-0.023,0.853-0.031l0.044-0.04c-0.044-0.518-0.052-0.604-0.052-1.592V45.677L151.703,45.677z M150.832,45.867
		v1.329c-0.093,0.08-0.396,0.352-0.92,0.352c-0.804,0-0.804-0.686-0.804-0.726c0-0.708,0.795-0.819,1.649-0.939L150.832,45.867
		L150.832,45.867z"/>
	<path fill="#FFFFFF" d="M154.172,48.097c-0.407,0.008-0.491,0.015-0.89,0.031l-0.041-0.056c0.018-0.564,0.041-1.282,0.041-2.81
		c0-1.1,0-2.277-0.082-3.296l0.041-0.048c0.415-0.063,0.499-0.079,0.922-0.168l0.051,0.057c-0.06,1.043-0.06,2.094-0.06,3.136
		c0,1.744,0.024,2.349,0.068,3.105L154.172,48.097L154.172,48.097z"/>
	<path fill="#FFFFFF" d="M159.19,47.093c-0.108,0.088-0.296,0.231-0.607,0.351c-0.238,0.08-0.491,0.12-0.735,0.12
		c-0.263,0-0.744-0.04-1.09-0.43c-0.287-0.327-0.313-0.718-0.32-0.996c1.385-0.008,1.614-0.008,2.932,0l0.059-0.047
		c0.008-0.351,0.026-1.139-0.457-1.68c-0.253-0.287-0.719-0.55-1.386-0.55c-1.106,0-2.053,0.725-2.053,2.205
		c0,1.386,0.871,2.134,2.257,2.134c0.752,0,1.207-0.23,1.353-0.303l0.049-0.056c0.018-0.311,0.025-0.39,0.069-0.708L159.19,47.093
		L159.19,47.093z M158.558,45.524c-0.778,0.009-1.1,0.017-2.12,0.009c0.083-0.797,0.64-1.099,1.112-1.099
		c0.383,0,0.755,0.184,0.923,0.62C158.541,45.238,158.549,45.414,158.558,45.524L158.558,45.524z"/>
	<path fill="#FFFFFF" d="M43.848,59.583c-0.837-0.023-1.005-0.023-2.011-0.032c-0.017,0.343-0.017,1.562,0.051,2.429l-0.042,0.057
		c-0.465,0-0.532,0.006-0.98,0.022l-0.043-0.056c0.034-0.605,0.051-1.066,0.051-3.415c0-1.13-0.024-1.631-0.051-2.116l0.043-0.057
		c0.584,0.008,2.822-0.008,3.405-0.024l0.042,0.056c-0.032,0.287-0.032,0.327-0.051,0.637l-0.051,0.049
		c-1.047-0.024-1.334-0.032-2.365-0.032c-0.009,0.327-0.025,1.13-0.025,1.601v0.183c0.964-0.008,1.251-0.017,2.096-0.04l0.042,0.048
		c-0.034,0.366-0.034,0.405-0.059,0.637L43.848,59.583L43.848,59.583z"/>
	<path fill="#FFFFFF" d="M48.287,59.608c0-0.335,0-0.773-0.06-0.996c-0.178-0.621-0.785-0.82-1.411-0.82
		c-0.499,0-0.989,0.104-1.462,0.264l-0.051,0.047c-0.01,0.168-0.01,0.216-0.026,0.581l0.068,0.04
		c0.355-0.143,0.735-0.303,1.285-0.303c0.423,0,0.617,0.15,0.701,0.295c0.075,0.127,0.075,0.278,0.075,0.493l-0.143,0.016
		c-1.521,0.167-2.468,0.51-2.468,1.576c0,0.788,0.591,1.33,1.437,1.33c0.643,0,1.022-0.286,1.183-0.407l-0.009,0.287l0.035,0.048
		c0.388-0.017,0.456-0.022,0.853-0.031l0.043-0.04c-0.043-0.518-0.051-0.604-0.051-1.592V59.608L48.287,59.608z M47.416,59.798v1.33
		c-0.093,0.079-0.396,0.35-0.921,0.35c-0.804,0-0.804-0.685-0.804-0.725c0-0.708,0.795-0.82,1.648-0.938L47.416,59.798
		L47.416,59.798z"/>
	<path fill="#FFFFFF" d="M53.02,61.087c-0.034,0.342-0.043,0.383-0.067,0.709l-0.059,0.057c-0.245,0.111-0.575,0.271-1.167,0.271
		c-1.276,0-2.104-0.868-2.104-2.109c0-1.267,0.812-2.222,2.121-2.222c0.55,0,0.938,0.167,1.157,0.256l0.035,0.055
		c-0.035,0.287-0.042,0.391-0.061,0.629l-0.066,0.031c-0.279-0.191-0.6-0.309-0.938-0.309c-0.702,0-1.318,0.508-1.318,1.527
		c0,1.082,0.651,1.473,1.31,1.473c0.575,0,0.93-0.278,1.091-0.398L53.02,61.087L53.02,61.087z"/>
	<path fill="#FFFFFF" d="M57.836,62.027c-0.405,0.009-0.455,0.009-0.845,0.031l-0.06-0.056l0.009-0.262
		c0.009-0.414,0.009-0.837,0.009-1.25L56.94,59.64c0-0.184,0-0.366-0.042-0.542c-0.093-0.366-0.329-0.604-0.761-0.604
		c-0.481,0-0.853,0.254-1.133,0.445c-0.008,1.385,0.009,2.109,0.061,3.041l-0.043,0.048c-0.388,0.009-0.49,0.009-0.904,0.031
		l-0.042-0.056c0.017-0.564,0.042-1.281,0.042-2.81c0-0.669-0.009-1.338-0.018-2.006c-0.017-0.701-0.042-0.932-0.066-1.29
		l0.042-0.048c0.405-0.063,0.54-0.088,0.921-0.167l0.052,0.056c-0.052,0.853-0.052,1.712-0.052,2.571
		c0.271-0.167,0.803-0.494,1.513-0.494c0.194,0,0.389,0.024,0.566,0.097c0.381,0.144,0.609,0.429,0.692,0.755
		c0.043,0.16,0.043,0.256,0.06,0.789v0.932l0.008,0.374c0.018,0.667,0.018,0.78,0.052,1.218L57.836,62.027L57.836,62.027z"/>
	<path fill="#FFFFFF" d="M63.145,62.027c-0.407,0.009-0.457,0.009-0.847,0.031l-0.059-0.056l0.009-0.262
		c0.008-0.414,0.008-0.837,0.008-1.25l-0.008-0.852c0-0.184,0-0.366-0.042-0.542c-0.093-0.366-0.33-0.604-0.761-0.604
		c-0.482,0-0.854,0.254-1.133,0.445c-0.009,1.385,0.009,2.109,0.06,3.041l-0.042,0.048c-0.389,0.009-0.491,0.009-0.905,0.031
		l-0.042-0.056c0.018-0.564,0.042-1.281,0.042-2.81c0-0.669-0.007-1.338-0.017-2.006c-0.017-0.701-0.043-0.932-0.067-1.29
		l0.042-0.048c0.406-0.063,0.541-0.088,0.921-0.167l0.052,0.056c-0.052,0.853-0.052,1.712-0.052,2.571
		c0.271-0.167,0.804-0.494,1.513-0.494c0.194,0,0.39,0.024,0.566,0.097c0.381,0.144,0.608,0.429,0.693,0.755
		c0.042,0.16,0.042,0.256,0.059,0.789v0.932l0.01,0.374c0.016,0.667,0.016,0.78,0.049,1.218L63.145,62.027L63.145,62.027z"/>
	<path fill="#FFFFFF" d="M68.671,59.901c-0.017-0.557-0.127-1.113-0.516-1.536c-0.372-0.397-0.938-0.573-1.514-0.573
		c-0.844,0-1.335,0.326-1.571,0.558c-0.565,0.533-0.582,1.313-0.582,1.616c0,0.262,0.008,1.075,0.582,1.623
		c0.271,0.264,0.753,0.534,1.514,0.534c0.591,0,1.089-0.136,1.461-0.486c0.279-0.262,0.457-0.573,0.55-0.962
		C68.654,60.435,68.671,60.172,68.671,59.901L68.671,59.901z M67.75,59.933c0.008,0.168,0,0.702-0.194,1.06
		c-0.245,0.437-0.65,0.534-0.964,0.534c-0.169,0-0.348-0.032-0.498-0.104c-0.668-0.318-0.677-1.123-0.677-1.441
		c0-0.334,0.025-0.797,0.253-1.121c0.296-0.448,0.77-0.464,0.931-0.464c0.474,0,0.742,0.208,0.904,0.454
		C67.717,59.202,67.75,59.734,67.75,59.933L67.75,59.933z"/>
	<path fill="#FFFFFF" d="M73.192,61.087c-0.034,0.342-0.043,0.383-0.068,0.709l-0.058,0.057c-0.246,0.111-0.576,0.271-1.168,0.271
		c-1.275,0-2.104-0.868-2.104-2.109c0-1.267,0.813-2.222,2.122-2.222c0.551,0,0.938,0.167,1.157,0.256l0.034,0.055
		c-0.034,0.287-0.041,0.391-0.059,0.629l-0.067,0.031c-0.28-0.191-0.601-0.309-0.938-0.309c-0.702,0-1.318,0.508-1.318,1.527
		c0,1.082,0.65,1.473,1.31,1.473c0.574,0,0.931-0.278,1.09-0.398L73.192,61.087L73.192,61.087z"/>
	<path fill="#FFFFFF" d="M78.01,62.027c-0.406,0.009-0.457,0.009-0.846,0.031l-0.06-0.056l0.009-0.262
		c0.01-0.414,0.01-0.837,0.01-1.25l-0.01-0.852c0-0.184,0-0.366-0.042-0.542c-0.094-0.366-0.329-0.604-0.761-0.604
		c-0.482,0-0.854,0.254-1.132,0.445c-0.009,1.385,0.007,2.109,0.059,3.041l-0.042,0.048c-0.39,0.009-0.491,0.009-0.905,0.031
		l-0.042-0.056c0.017-0.564,0.042-1.281,0.042-2.81c0-0.669-0.007-1.338-0.017-2.006c-0.017-0.701-0.043-0.932-0.067-1.29
		l0.042-0.048c0.405-0.063,0.542-0.088,0.922-0.167l0.05,0.056c-0.05,0.853-0.05,1.712-0.05,2.571
		c0.271-0.167,0.802-0.494,1.512-0.494c0.194,0,0.39,0.024,0.567,0.097c0.38,0.144,0.607,0.429,0.692,0.755
		c0.042,0.16,0.042,0.256,0.059,0.789v0.932l0.01,0.374c0.017,0.667,0.017,0.78,0.05,1.218L78.01,62.027L78.01,62.027z"/>
	<path fill="#FFFFFF" d="M81.355,59.614c0.338,0.104,1.107,0.352,1.107,1.195c0,0.318-0.127,0.676-0.473,0.939
		c-0.449,0.358-1.049,0.382-1.354,0.382c-0.455,0-0.836-0.08-1.157-0.199c-0.042-0.016-0.085-0.032-0.126-0.047l-0.044-0.072
		c0.035-0.312,0.035-0.351,0.052-0.668l0.085-0.024c0.151,0.111,0.523,0.381,1.174,0.381c0.668,0,0.913-0.35,0.913-0.597
		c0-0.366-0.363-0.485-0.879-0.644l-0.27-0.089c-0.348-0.104-1.108-0.333-1.108-1.153s0.761-1.227,1.708-1.227
		c0.624,0,1.063,0.167,1.216,0.223l0.043,0.057c-0.034,0.294-0.043,0.325-0.067,0.629L82.1,58.731
		c-0.211-0.127-0.541-0.319-1.091-0.319c-0.118,0-0.236,0.009-0.363,0.042c-0.254,0.063-0.464,0.229-0.464,0.476
		c0,0.344,0.345,0.446,0.87,0.598L81.355,59.614L81.355,59.614z"/>
	<path fill="#FFFFFF" d="M86.824,61.087c-0.035,0.342-0.043,0.383-0.068,0.709l-0.061,0.057c-0.243,0.111-0.573,0.271-1.164,0.271
		c-1.277,0-2.105-0.868-2.105-2.109c0-1.267,0.812-2.222,2.121-2.222c0.55,0,0.938,0.167,1.158,0.256l0.034,0.055
		c-0.034,0.287-0.044,0.391-0.06,0.629l-0.068,0.031c-0.278-0.191-0.599-0.309-0.938-0.309c-0.701,0-1.318,0.508-1.318,1.527
		c0,1.082,0.651,1.473,1.311,1.473c0.574,0,0.929-0.278,1.09-0.398L86.824,61.087L86.824,61.087z"/>
	<path fill="#FFFFFF" d="M91.64,62.027c-0.404,0.009-0.455,0.009-0.844,0.031l-0.06-0.056l0.008-0.262
		c0.01-0.414,0.01-0.837,0.01-1.25l-0.01-0.852c0-0.184,0-0.366-0.042-0.542c-0.093-0.366-0.329-0.604-0.759-0.604
		c-0.482,0-0.855,0.254-1.135,0.445c-0.008,1.385,0.01,2.109,0.06,3.041l-0.042,0.048c-0.389,0.009-0.489,0.009-0.904,0.031
		l-0.042-0.056c0.017-0.564,0.042-1.281,0.042-2.81c0-0.669-0.009-1.338-0.018-2.006c-0.016-0.701-0.041-0.932-0.066-1.29
		l0.042-0.048c0.405-0.063,0.54-0.088,0.921-0.167l0.052,0.056c-0.052,0.853-0.052,1.712-0.052,2.571
		c0.271-0.167,0.803-0.494,1.513-0.494c0.194,0,0.389,0.024,0.567,0.097c0.379,0.144,0.608,0.429,0.691,0.755
		c0.043,0.16,0.043,0.256,0.06,0.789v0.932l0.008,0.374c0.019,0.667,0.019,0.78,0.052,1.218L91.64,62.027L91.64,62.027z"/>
	<path fill="#FFFFFF" d="M96.939,57.919c-0.017,0.605-0.026,1.172-0.026,1.815c0,0.979,0.026,1.568,0.043,1.911
		c0,0.111,0.009,0.222,0.018,0.334l-0.034,0.048c-0.406,0.009-0.473,0.015-0.862,0.031l-0.05-0.048l0.008-0.334
		c-0.186,0.127-0.635,0.454-1.326,0.454c-0.331,0-0.692-0.072-0.965-0.271c-0.54-0.414-0.54-1.091-0.549-1.711v-0.495
		c-0.018-1.138-0.018-1.265-0.042-1.695l0.042-0.055c0.398-0.009,0.474-0.009,0.871-0.04l0.051,0.055l-0.035,1.744
		c0,0.215-0.008,0.374,0,0.756c0.009,0.334,0.027,1.051,0.88,1.051c0.499,0,0.853-0.263,1.056-0.414
		c0.01-0.429,0.01-0.795,0.01-1.258c0-1.106-0.01-1.329-0.06-1.846l0.05-0.057c0.39-0.009,0.482-0.009,0.871-0.031L96.939,57.919
		L96.939,57.919z"/>
	<path fill="#FFFFFF" d="M99.424,62.027c-0.405,0.009-0.49,0.015-0.887,0.031l-0.043-0.056c0.018-0.564,0.043-1.281,0.043-2.81
		c0-1.099,0-2.276-0.084-3.296l0.041-0.048c0.414-0.063,0.499-0.079,0.922-0.167l0.049,0.056c-0.059,1.043-0.059,2.094-0.059,3.137
		c0,1.743,0.025,2.348,0.068,3.104L99.424,62.027L99.424,62.027z"/>
	<path fill="#FFFFFF" d="M104.444,61.023c-0.111,0.089-0.298,0.231-0.61,0.352c-0.235,0.079-0.488,0.119-0.734,0.119
		c-0.262,0-0.743-0.04-1.089-0.431c-0.289-0.326-0.313-0.716-0.321-0.995c1.386-0.007,1.613-0.007,2.932,0l0.059-0.047
		c0.01-0.351,0.025-1.139-0.456-1.681c-0.253-0.285-0.719-0.549-1.386-0.549c-1.106,0-2.053,0.725-2.053,2.204
		c0,1.387,0.869,2.135,2.256,2.135c0.752,0,1.207-0.231,1.352-0.303l0.052-0.056c0.016-0.311,0.024-0.39,0.066-0.709L104.444,61.023
		L104.444,61.023z M103.812,59.456c-0.778,0.008-1.1,0.016-2.122,0.008c0.083-0.797,0.642-1.099,1.114-1.099
		c0.381,0,0.752,0.184,0.922,0.621C103.793,59.169,103.801,59.345,103.812,59.456L103.812,59.456z"/>
	<path fill="#FFFFFF" d="M114.196,62.036c-0.575,0-0.66,0-1.217,0.022l-0.06-0.056c-0.136-0.796-0.187-1.027-0.305-1.607
		l-0.693-3.432l-0.701,3.248c-0.042,0.216-0.085,0.438-0.135,0.653c-0.068,0.342-0.193,0.924-0.229,1.114l-0.051,0.057
		c-0.608,0-0.642,0.006-1.226,0.022l-0.059-0.056c-0.151-0.717-0.853-3.732-1.31-5.531l0.042-0.057c0.474,0,0.55-0.008,0.963-0.024
		l0.051,0.056c0.052,0.279,0.103,0.534,0.179,0.932c0.067,0.358,0.134,0.709,0.202,1.059l0.616,3.041l0.711-3.525
		c0.117-0.582,0.136-0.677,0.287-1.48l0.051-0.057c0.642-0.008,0.753-0.008,1.343-0.024l0.052,0.056
		c0.008,0.064,0.016,0.128,0.024,0.199c0.034,0.207,0.229,1.227,0.278,1.497l0.669,3.358l0.658-3.144
		c0.313-1.537,0.322-1.569,0.365-1.886l0.049-0.057c0.389,0,0.474-0.008,0.829-0.024l0.042,0.056
		c-0.194,0.621-0.243,0.836-0.71,2.771c-0.21,0.868-0.438,1.728-0.624,2.596c-0.009,0.055-0.027,0.112-0.034,0.167L114.196,62.036
		L114.196,62.036z"/>
	<path fill="#FFFFFF" d="M119.859,61.023c-0.109,0.089-0.296,0.231-0.608,0.352c-0.236,0.079-0.489,0.119-0.734,0.119
		c-0.262,0-0.744-0.04-1.09-0.431c-0.287-0.326-0.313-0.716-0.321-0.995c1.385-0.007,1.614-0.007,2.933,0l0.059-0.047
		c0.008-0.351,0.026-1.139-0.456-1.681c-0.253-0.285-0.719-0.549-1.386-0.549c-1.106,0-2.055,0.725-2.055,2.204
		c0,1.387,0.872,2.135,2.257,2.135c0.752,0,1.208-0.231,1.353-0.303l0.05-0.056c0.018-0.311,0.026-0.39,0.067-0.709L119.859,61.023
		L119.859,61.023z M119.227,59.456c-0.777,0.008-1.1,0.016-2.121,0.008c0.084-0.797,0.642-1.099,1.115-1.099
		c0.38,0,0.752,0.184,0.921,0.621C119.209,59.169,119.218,59.345,119.227,59.456L119.227,59.456z"/>
	<path fill="#FFFFFF" d="M123.164,59.614c0.338,0.104,1.108,0.352,1.108,1.195c0,0.318-0.127,0.676-0.474,0.939
		c-0.448,0.358-1.05,0.382-1.353,0.382c-0.455,0-0.836-0.08-1.157-0.199c-0.043-0.016-0.086-0.032-0.127-0.047l-0.042-0.072
		c0.033-0.312,0.033-0.351,0.05-0.668l0.085-0.024c0.152,0.111,0.522,0.381,1.175,0.381c0.668,0,0.912-0.35,0.912-0.597
		c0-0.366-0.364-0.485-0.879-0.644l-0.27-0.089c-0.348-0.104-1.106-0.333-1.106-1.153s0.759-1.227,1.706-1.227
		c0.624,0,1.065,0.167,1.217,0.223l0.043,0.057c-0.033,0.294-0.043,0.325-0.068,0.629l-0.075,0.031
		c-0.212-0.127-0.542-0.319-1.09-0.319c-0.12,0-0.237,0.009-0.365,0.042c-0.253,0.063-0.463,0.229-0.463,0.476
		c0,0.344,0.346,0.446,0.869,0.598L123.164,59.614L123.164,59.614z"/>
	<path fill="#FFFFFF" d="M127.391,61.406c-0.027,0.263-0.027,0.317-0.033,0.55l-0.044,0.047c-0.178,0.039-0.32,0.072-0.633,0.072
		c-0.204,0-0.735,0-0.998-0.414c-0.152-0.232-0.152-0.422-0.152-1.361l0.019-1.751c-0.299,0-0.305,0.007-0.61,0.017l-0.032-0.049
		c0.016-0.255,0.016-0.318,0.016-0.573l0.052-0.048c0.185,0,0.296,0.009,0.575,0c-0.011-0.167-0.011-0.343-0.011-0.509
		c-0.008-0.152-0.016-0.304-0.024-0.455l0.043-0.055c0.381-0.089,0.475-0.111,0.862-0.224l0.058,0.04
		c-0.023,0.526-0.034,0.63-0.034,1.211c0.356-0.009,0.458-0.009,0.94-0.024l0.041,0.048c-0.017,0.207-0.025,0.294-0.025,0.565
		l-0.041,0.047c-0.424-0.008-0.475-0.016-0.923-0.016l-0.016,1.48c0.008,0.096,0.008,0.55,0.008,0.661
		c0,0.581,0.076,0.763,0.499,0.763c0.178,0,0.312-0.039,0.404-0.071L127.391,61.406L127.391,61.406z"/>
	<path fill="#FFFFFF" d="M130.263,59.614c0.34,0.104,1.108,0.352,1.108,1.195c0,0.318-0.127,0.676-0.475,0.939
		c-0.447,0.358-1.047,0.382-1.353,0.382c-0.456,0-0.835-0.08-1.156-0.199c-0.043-0.016-0.087-0.032-0.128-0.047l-0.041-0.072
		c0.033-0.312,0.033-0.351,0.049-0.668l0.086-0.024c0.151,0.111,0.524,0.381,1.174,0.381c0.669,0,0.914-0.35,0.914-0.597
		c0-0.366-0.364-0.485-0.881-0.644l-0.27-0.089c-0.347-0.104-1.107-0.333-1.107-1.153s0.761-1.227,1.708-1.227
		c0.625,0,1.064,0.167,1.218,0.223l0.041,0.057c-0.034,0.294-0.041,0.325-0.067,0.629l-0.077,0.031
		c-0.21-0.127-0.54-0.319-1.088-0.319c-0.12,0-0.239,0.009-0.365,0.042c-0.253,0.063-0.465,0.229-0.465,0.476
		c0,0.344,0.348,0.446,0.871,0.598L130.263,59.614L130.263,59.614z"/>
	<path fill="#FFFFFF" d="M135.731,61.087c-0.034,0.342-0.044,0.383-0.068,0.709l-0.058,0.057c-0.246,0.111-0.576,0.271-1.168,0.271
		c-1.275,0-2.104-0.868-2.104-2.109c0-1.267,0.813-2.222,2.123-2.222c0.548,0,0.937,0.167,1.156,0.256l0.033,0.055
		c-0.033,0.287-0.04,0.391-0.059,0.629l-0.067,0.031c-0.279-0.191-0.6-0.309-0.938-0.309c-0.701,0-1.318,0.508-1.318,1.527
		c0,1.082,0.649,1.473,1.311,1.473c0.573,0,0.93-0.278,1.089-0.398L135.731,61.087L135.731,61.087z"/>
	<path fill="#FFFFFF" d="M140.548,62.027c-0.405,0.009-0.456,0.009-0.846,0.031l-0.059-0.056l0.01-0.262
		c0.007-0.414,0.007-0.837,0.007-1.25l-0.007-0.852c0-0.184,0-0.366-0.043-0.542c-0.092-0.366-0.331-0.604-0.761-0.604
		c-0.482,0-0.854,0.254-1.133,0.445c-0.009,1.385,0.008,2.109,0.059,3.041l-0.041,0.048c-0.389,0.009-0.49,0.009-0.904,0.031
		l-0.043-0.056c0.018-0.564,0.043-1.281,0.043-2.81c0-0.669-0.01-1.338-0.018-2.006c-0.016-0.701-0.043-0.932-0.068-1.29
		l0.043-0.048c0.405-0.063,0.541-0.088,0.921-0.167l0.052,0.056c-0.052,0.853-0.052,1.712-0.052,2.571
		c0.272-0.167,0.804-0.494,1.513-0.494c0.195,0,0.39,0.024,0.567,0.097c0.38,0.144,0.607,0.429,0.692,0.755
		c0.043,0.16,0.043,0.256,0.059,0.789v0.932l0.009,0.374c0.017,0.667,0.017,0.78,0.05,1.218L140.548,62.027L140.548,62.027z"/>
	<path fill="#FFFFFF" d="M146.945,62.027c-0.567,0.009-0.633,0.009-1.148,0.031l-0.06-0.056c-0.102-0.485-0.263-1.131-0.406-1.695
		l-0.489-1.911l-0.499,1.96c-0.254,0.962-0.338,1.272-0.415,1.623l-0.05,0.048c-0.592,0.009-0.634,0.009-1.167,0.031l-0.05-0.056
		c-0.371-1.425-1.006-3.51-1.183-4.035l0.033-0.056c0.404-0.025,0.516-0.025,0.92-0.064l0.052,0.048
		c0.051,0.264,0.109,0.51,0.475,1.982l0.405,1.64l0.548-2.142c0.255-1.058,0.271-1.162,0.321-1.417l0.059-0.055
		c0.5,0,0.643,0,1.201-0.024l0.05,0.056c0.119,0.549,0.321,1.313,0.474,1.919l0.448,1.688l0.474-1.855
		c0.066-0.278,0.135-0.557,0.202-0.836c0.144-0.541,0.159-0.604,0.212-0.907l0.059-0.048c0.136,0,0.278,0.009,0.414,0.009
		c0.127,0,0.253-0.009,0.38-0.009l0.052,0.048c-0.161,0.453-0.904,2.675-1.252,4.036L146.945,62.027L146.945,62.027z"/>
	<path fill="#FFFFFF" d="M152.625,61.023c-0.11,0.089-0.296,0.231-0.608,0.352c-0.237,0.079-0.49,0.119-0.735,0.119
		c-0.262,0-0.743-0.04-1.092-0.431c-0.286-0.326-0.313-0.716-0.32-0.995c1.386-0.007,1.613-0.007,2.933,0l0.059-0.047
		c0.009-0.351,0.026-1.139-0.456-1.681c-0.254-0.285-0.719-0.549-1.385-0.549c-1.107,0-2.054,0.725-2.054,2.204
		c0,1.387,0.87,2.135,2.256,2.135c0.753,0,1.209-0.231,1.353-0.303l0.051-0.056c0.016-0.311,0.024-0.39,0.067-0.709L152.625,61.023
		L152.625,61.023z M151.99,59.456c-0.776,0.008-1.098,0.016-2.121,0.008c0.086-0.797,0.642-1.099,1.117-1.099
		c0.379,0,0.751,0.184,0.92,0.621C151.975,59.169,151.983,59.345,151.99,59.456L151.99,59.456z"/>
	<path fill="#FFFFFF" d="M155.083,56.733c-0.431,0.016-0.523,0.023-0.938,0.064l-0.05-0.049c0.007-0.104,0.007-0.214,0.007-0.318
		c0-0.144-0.007-0.271-0.017-0.43l0.06-0.048c0.439-0.032,0.515-0.039,0.938-0.079l0.052,0.047c-0.008,0.327-0.008,0.407,0,0.757
		L155.083,56.733L155.083,56.733z M155.076,62.027c-0.439,0.009-0.508,0.009-0.922,0.031l-0.042-0.056
		c0.025-0.422,0.051-0.788,0.051-1.671c0-1.521-0.025-1.808-0.086-2.276l0.043-0.057c0.365-0.056,0.49-0.071,0.913-0.159
		l0.083,0.047c-0.023,0.415-0.05,0.845-0.05,1.871c0,1.481,0.017,1.681,0.05,2.222L155.076,62.027L155.076,62.027z"/>
	<path fill="#FFFFFF" d="M159.461,62.036c-0.236,0-1.394,0.006-1.655,0.006c-0.99,0-1.099,0-1.614,0.017l-0.034-0.071
		c0.642-1.003,1.665-2.707,2.095-3.471c-1.114,0.008-1.317,0.008-1.859,0.032l-0.04-0.049c0.032-0.262,0.04-0.325,0.059-0.548
		l0.05-0.048c1.42,0,1.581,0,3.051-0.024l0.044,0.063c-0.754,1.162-1.825,3.058-2.055,3.463c0.728-0.009,1.453-0.023,2.028-0.049
		l0.042,0.049c-0.034,0.246-0.042,0.351-0.06,0.59L159.461,62.036L159.461,62.036z"/>
	<path fill="#FFFFFF" d="M134.699,13.867c1.467,0.449,4.805,1.52,4.805,5.183c0,1.383-0.55,2.938-2.055,4.078
		c-1.943,1.556-4.549,1.658-5.868,1.658c-1.981,0-3.633-0.345-5.025-0.863c-0.185-0.068-0.367-0.138-0.551-0.207l-0.185-0.312
		c0.148-1.348,0.148-1.521,0.221-2.902l0.367-0.104c0.66,0.484,2.273,1.659,5.099,1.659c2.898,0,3.963-1.521,3.963-2.592
		c0-1.59-1.577-2.107-3.815-2.8l-1.175-0.38c-1.504-0.449-4.805-1.45-4.805-5.01s3.301-5.322,7.409-5.322
		c2.717,0,4.622,0.727,5.283,0.968l0.185,0.242c-0.146,1.278-0.185,1.416-0.296,2.729l-0.329,0.139
		c-0.917-0.554-2.347-1.383-4.731-1.383c-0.514,0-1.027,0.035-1.578,0.174c-1.101,0.275-2.018,1.001-2.018,2.072
		c0,1.486,1.504,1.937,3.779,2.592L134.699,13.867L134.699,13.867z"/>
	<path fill="#FFFFFF" d="M160.746,15.11c-0.074-2.418-0.55-4.838-2.238-6.669c-1.614-1.729-4.072-2.488-6.566-2.488
		c-3.67,0-5.797,1.417-6.825,2.42c-2.455,2.314-2.53,5.701-2.53,7.014c0,1.141,0.037,4.665,2.53,7.05
		c1.175,1.141,3.266,2.316,6.567,2.316c2.569,0,4.733-0.589,6.347-2.109c1.212-1.14,1.98-2.488,2.384-4.182
		C160.672,17.427,160.746,16.285,160.746,15.11L160.746,15.11z M156.746,15.248c0.037,0.726,0,3.042-0.844,4.597
		c-1.063,1.901-2.823,2.315-4.181,2.315c-0.735,0-1.506-0.139-2.166-0.449c-2.898-1.382-2.935-4.873-2.935-6.255
		c0-1.451,0.111-3.455,1.102-4.873c1.283-1.935,3.338-2.004,4.035-2.004c2.055,0,3.228,0.898,3.925,1.97
		C156.601,12.07,156.746,14.386,156.746,15.248L156.746,15.248z"/>
	<path fill="#FFFFFF" d="M121.489,15.396c0,1.205-0.977,2.184-2.184,2.184c-1.206,0-2.184-0.979-2.184-2.184
		c0-1.206,0.978-2.185,2.184-2.185C120.513,13.211,121.489,14.189,121.489,15.396L121.489,15.396z"/>
	<path fill="#FFFFFF" d="M71.229,0.207c-0.037,2.661-0.073,4.285-0.073,6.704c0,5.805,0.11,11.576,0.403,17.382L71.375,24.5
		c-3.118-0.035-3.852,0-6.604,0.104l-0.183-0.207c0.183-4.872,0.183-6.013,0.11-10.677c-1.468-0.035-2.936-0.069-4.402-0.069
		c-1.431,0-2.789,0.034-4.402,0.104c0.036,5.01,0.072,6.254,0.293,10.539L56.004,24.5c-3.228-0.035-3.889,0-6.566,0.104
		l-0.184-0.207c0.074-2.902,0.147-4.596,0.147-7.706c0-8.569-0.221-12.82-0.404-16.381l0.221-0.206c3.19,0,3.741,0,6.566-0.104
		l0.183,0.207L55.895,9.33c1.283,0,2.604,0.034,3.888,0.034c1.652,0,3.266-0.034,4.879-0.069c-0.035-4.077-0.035-5.079-0.294-8.985
		l0.185-0.206c3.082,0,3.558,0,6.493-0.104L71.229,0.207L71.229,0.207z"/>
	<path fill="#FFFFFF" d="M92.499,19.387c-1.395,0.69-3.046,1.485-5.723,1.485c-2.201,0-3.706-0.657-4.587-1.901
		c-0.55-0.725-0.659-1.417-0.806-2.108l11.849-0.207l0.221-0.241c-0.036-1.692-0.073-3.422-0.586-5.148
		c-1.285-4.078-4.11-4.907-5.357-5.185c-0.917-0.24-1.761-0.31-2.604-0.31c-5.761,0-9.575,3.559-9.575,9.537
		c0,1.623,0.294,3.316,0.881,4.526c2.128,4.665,7.117,5.08,9.759,5.08c3.045,0,4.366-0.519,6.309-1.244l0.221-0.276l0.257-3.904
		L92.499,19.387L92.499,19.387z M81.384,13.2c0.109-1.071,0.365-2.521,1.761-3.352c0.44-0.276,0.955-0.381,1.468-0.381
		c1.211,0,1.942,0.588,2.348,1.211c0.513,0.76,0.55,1.588,0.55,2.383L81.384,13.2L81.384,13.2z"/>
	<path fill="#FFFFFF" d="M107.979,13.2c2.019,0.727,4.843,1.729,4.843,5.528c0,0.242,0,0.484-0.038,0.762
		c-0.659,4.94-6.161,5.425-8.95,5.425c-2.676,0-4.218-0.553-6.016-1.175l-0.184-0.312c0.147-1.728,0.184-2.107,0.257-3.904
		l0.33-0.138c0.55,0.414,0.845,0.656,1.468,0.967c1.357,0.656,2.861,0.968,3.889,0.968c2.054,0,2.898-0.934,2.898-1.797
		c0-1.244-1.616-1.764-2.605-2.073l-1.395-0.484c-1.724-0.622-4.769-1.728-4.769-5.426c0-1.382,0.514-2.418,0.99-3.04
		c1.908-2.592,5.504-2.729,7.301-2.729c2.385,0,3.89,0.413,5.611,0.863l0.185,0.207l-0.366,3.768l-0.332,0.104
		c-0.915-0.554-2.347-1.451-4.583-1.451c-2.275,0-2.569,1.14-2.569,1.555c0,0.968,0.989,1.347,2.238,1.762L107.979,13.2
		L107.979,13.2z"/>
	<path fill="#FFFFFF" d="M129.068,73.751c-0.85,0.119-1.643,0.23-1.643,0.937c0,0.04,0,0.723,0.801,0.723
		c0.522,0,0.826-0.27,0.919-0.349v-1.327L129.068,73.751L129.068,73.751z M130.014,74.33c0,0.984,0.008,1.072,0.05,1.589
		l-0.042,0.04c-0.397,0.007-0.464,0.015-0.852,0.031l-0.033-0.048l0.009-0.285c-0.159,0.118-0.539,0.404-1.18,0.404
		c-0.843,0-1.434-0.54-1.434-1.325c0-1.065,0.944-1.407,2.462-1.573l0.143-0.016c0-0.215,0-0.365-0.075-0.492
		c-0.085-0.144-0.279-0.294-0.7-0.294c-0.548,0-0.927,0.158-1.281,0.302l-0.067-0.04c0.018-0.365,0.018-0.413,0.025-0.579
		l0.052-0.048c0.471-0.159,0.96-0.263,1.457-0.263c0.623,0,1.23,0.199,1.407,0.818c0.06,0.222,0.06,0.659,0.06,0.993V74.33
		L130.014,74.33z"/>
	<path fill="#FFFFFF" d="M135.164,75.959c-0.403,0.007-0.453,0.007-0.842,0.031l-0.06-0.056c0-0.088,0.009-0.175,0.009-0.263
		c0.009-0.389,0.009-0.778,0.009-1.167c0-1.223-0.009-1.303-0.051-1.469c-0.16-0.604-0.641-0.604-0.757-0.604
		c-0.506,0-0.896,0.277-1.122,0.444c-0.01,1.382,0.008,2.104,0.067,3.034l-0.05,0.048c-0.413,0.007-0.48,0.007-0.886,0.031
		l-0.043-0.056c0.01-0.444,0.027-0.873,0.027-1.461c0-1.271-0.061-1.945-0.101-2.478l0.049-0.056c0.42-0.071,0.497-0.088,0.893-0.16
		l0.061,0.057l-0.01,0.413c0.219-0.144,0.742-0.492,1.484-0.492c0.209,0,0.473,0.031,0.699,0.15
		c0.219,0.119,0.396,0.302,0.489,0.517c0.108,0.238,0.116,0.476,0.126,0.969v0.929c0.024,0.929,0.033,1.286,0.058,1.589
		L135.164,75.959L135.164,75.959z"/>
	<path fill="#FFFFFF" d="M139.323,72.408c-0.144-0.007-0.244-0.023-0.421-0.023c-0.262,0-0.817,0.017-1.223,0.374
		c-0.184,0.166-0.487,0.539-0.487,1.246c0,0.453,0.135,0.777,0.313,0.977c0.151,0.167,0.428,0.357,0.866,0.357
		c0.515,0,0.826-0.255,0.943-0.35C139.332,73.949,139.332,73.711,139.323,72.408L139.323,72.408z M139.314,69.796
		c0.432-0.072,0.515-0.088,0.894-0.166l0.059,0.047c-0.059,1.104-0.065,3.073-0.065,3.868c0,1.23,0.033,1.817,0.065,2.366
		l-0.041,0.055c-0.372,0-0.472,0.008-0.859,0.024l-0.061-0.048l0.018-0.294c-0.202,0.144-0.547,0.397-1.163,0.397
		c-1.121,0-1.895-0.834-1.895-2.041c0-0.865,0.387-1.414,0.74-1.707c0.617-0.524,1.417-0.549,1.854-0.549
		c0.178,0,0.262,0,0.489,0.017c0.009-0.985-0.034-1.461-0.075-1.922L139.314,69.796L139.314,69.796z"/>
	<path fill="#FFFFFF" d="M145.348,73.616c0.271,0,0.539,0.008,0.81,0.008c0.286,0,0.59-0.008,0.885-0.008l-0.809-2.685
		L145.348,73.616L145.348,73.616z M147.016,70.526c0.28,0.874,0.6,1.858,0.853,2.613c0.261,0.762,0.683,1.984,0.936,2.748
		l-0.033,0.063c-0.44,0.009-0.626,0.016-0.979,0.032l-0.06-0.056c-0.209-0.747-0.276-0.961-0.496-1.676
		c-0.337,0-0.666-0.008-1.002-0.008c-0.373,0-0.759,0.008-1.095,0.008c-0.247,0.747-0.297,0.937-0.5,1.644l-0.057,0.056
		c-0.363,0-0.448,0-0.868,0.023l-0.034-0.055c0.024-0.088,0.057-0.167,0.094-0.247c0.319-0.856,0.63-1.715,0.935-2.572
		c0.504-1.405,0.69-1.922,0.934-2.684l0.07-0.057c0.589-0.008,0.664-0.008,1.204-0.032l0.058,0.057L147.016,70.526L147.016,70.526z"
		/>
	<path fill="#FFFFFF" d="M151.705,72.663c-0.086-0.032-0.196-0.072-0.338-0.072c-0.161,0-0.278,0.057-0.354,0.104
		c-0.346,0.23-0.346,0.579-0.346,1.406c0,0.897,0.026,1.365,0.06,1.811l-0.043,0.055c-0.396,0-0.487,0.008-0.892,0.024l-0.044-0.048
		c0.009-0.604,0.02-1.151,0.02-1.89c0-1.271-0.027-1.597-0.077-2.057l0.05-0.056c0.32-0.057,0.523-0.096,0.876-0.16l0.051,0.049
		l-0.04,0.675c0.1-0.254,0.31-0.763,1.028-0.763c0.106,0,0.167,0.008,0.233,0.024l0.035,0.048c-0.086,0.381-0.102,0.46-0.162,0.81
		L151.705,72.663L151.705,72.663z"/>
	<path fill="#FFFFFF" d="M155.155,75.339c-0.026,0.263-0.026,0.318-0.036,0.549l-0.041,0.047c-0.176,0.039-0.32,0.071-0.631,0.071
		c-0.204,0-0.732,0-0.995-0.413c-0.15-0.23-0.15-0.42-0.15-1.357l0.017-1.747c-0.297,0-0.304,0.008-0.606,0.016l-0.036-0.048
		c0.017-0.254,0.017-0.318,0.017-0.572l0.053-0.047c0.183,0,0.294,0.008,0.573,0c-0.01-0.167-0.01-0.342-0.01-0.508
		c-0.007-0.151-0.017-0.303-0.024-0.453l0.041-0.056c0.38-0.087,0.472-0.111,0.858-0.223l0.06,0.04
		c-0.023,0.523-0.033,0.628-0.033,1.207c0.353-0.008,0.456-0.008,0.936-0.024l0.043,0.049c-0.017,0.206-0.026,0.293-0.026,0.563
		l-0.043,0.047c-0.42-0.008-0.469-0.016-0.916-0.016l-0.02,1.478c0.011,0.096,0.011,0.548,0.011,0.659
		c0,0.579,0.075,0.762,0.495,0.762c0.18,0,0.313-0.039,0.406-0.071L155.155,75.339L155.155,75.339z"/>
	<path fill="#FFFFFF" d="M158.144,73.552c0.335,0.104,1.102,0.35,1.102,1.191c0,0.318-0.127,0.675-0.473,0.938
		c-0.445,0.357-1.045,0.381-1.349,0.381c-0.453,0-0.832-0.079-1.151-0.198c-0.044-0.017-0.086-0.032-0.126-0.048l-0.044-0.072
		c0.033-0.309,0.033-0.348,0.05-0.666l0.083-0.024c0.153,0.111,0.524,0.382,1.173,0.382c0.666,0,0.91-0.351,0.91-0.596
		c0-0.365-0.361-0.484-0.877-0.645l-0.271-0.086c-0.343-0.104-1.103-0.334-1.103-1.151c0-0.819,0.76-1.224,1.701-1.224
		c0.623,0,1.063,0.167,1.216,0.223l0.04,0.055c-0.034,0.295-0.04,0.326-0.067,0.628l-0.075,0.031
		c-0.211-0.127-0.539-0.316-1.086-0.316c-0.12,0-0.236,0.008-0.362,0.039c-0.253,0.063-0.464,0.23-0.464,0.477
		c0,0.342,0.344,0.445,0.866,0.596L158.144,73.552L158.144,73.552z"/>
	<path fill="#FFFFFF" d="M4.559,70.392c-0.018,0.723-0.025,0.914-0.025,1.541c0,0.341,0,0.596,0.008,1.19l0.009,0.715
		c0,0.477,0,1.16-0.489,1.66c-0.404,0.413-1.052,0.587-1.735,0.587c-1.087,0-1.625-0.413-1.845-0.643
		c-0.455-0.492-0.455-0.969-0.455-1.897v-0.811c0-1.151,0-1.287-0.025-2.318l0.059-0.057c0.464-0.008,0.522-0.008,0.943-0.023
		l0.043,0.056c-0.033,0.825-0.033,2.264-0.033,3.033c0,0.794,0.017,1.279,0.312,1.604c0.143,0.167,0.472,0.389,1.053,0.389
		c0.211,0,0.876-0.016,1.197-0.603c0.185-0.334,0.185-0.787,0.185-1.406c0-0.921-0.009-2.089-0.067-2.993l0.042-0.057
		c0.388-0.008,0.438-0.008,0.775-0.023L4.559,70.392L4.559,70.392z"/>
	<path fill="#FFFFFF" d="M9.901,75.959c-0.404,0.007-0.456,0.007-0.843,0.031L9,75.935c0-0.088,0.008-0.175,0.008-0.263
		c0.009-0.389,0.009-0.778,0.009-1.167c0-1.223-0.009-1.303-0.051-1.469c-0.16-0.604-0.64-0.604-0.759-0.604
		c-0.506,0-0.893,0.277-1.12,0.444c-0.009,1.382,0.009,2.104,0.066,3.034l-0.05,0.048c-0.412,0.007-0.48,0.007-0.885,0.031
		l-0.042-0.056c0.009-0.444,0.025-0.873,0.025-1.461c0-1.271-0.06-1.945-0.101-2.478l0.051-0.056c0.42-0.071,0.497-0.088,0.893-0.16
		l0.059,0.057L7.096,72.25c0.219-0.144,0.741-0.492,1.483-0.492c0.21,0,0.471,0.031,0.698,0.15c0.22,0.119,0.396,0.302,0.489,0.517
		c0.109,0.238,0.118,0.476,0.126,0.969v0.929c0.025,0.929,0.034,1.286,0.059,1.589L9.901,75.959L9.901,75.959z"/>
	<path fill="#FFFFFF" d="M12.407,70.678c-0.43,0.015-0.522,0.024-0.936,0.063l-0.051-0.049c0.009-0.103,0.009-0.213,0.009-0.316
		c0-0.144-0.009-0.271-0.017-0.429l0.059-0.049c0.438-0.031,0.514-0.039,0.936-0.079l0.05,0.048c-0.008,0.326-0.008,0.405,0,0.755
		L12.407,70.678L12.407,70.678z M12.398,75.959c-0.438,0.007-0.506,0.007-0.918,0.031l-0.043-0.056
		c0.025-0.421,0.051-0.786,0.051-1.668c0-1.517-0.025-1.803-0.085-2.271l0.043-0.056c0.362-0.057,0.489-0.071,0.91-0.16l0.084,0.049
		c-0.025,0.412-0.051,0.841-0.051,1.866c0,1.478,0.018,1.676,0.051,2.216L12.398,75.959L12.398,75.959z"/>
	<path fill="#FFFFFF" d="M15.82,75.959c-0.472,0.007-0.589,0.007-1.078,0.031l-0.05-0.056c-0.414-1.35-0.852-2.692-1.349-4.019
		l0.033-0.063c0.413-0.023,0.506-0.032,0.919-0.072l0.066,0.04c0.312,1.176,0.658,2.352,1.003,3.519
		c0.085-0.286,0.506-1.668,0.599-1.977c0.278-0.914,0.354-1.239,0.422-1.51l0.059-0.039c0.396,0.016,0.464,0.007,0.791,0
		l0.043,0.056c-0.515,1.333-0.969,2.684-1.407,4.042L15.82,75.959L15.82,75.959z"/>
	<path fill="#FFFFFF" d="M20.932,72.925c-0.168-0.437-0.538-0.619-0.918-0.619c-0.472,0-1.027,0.302-1.111,1.096
		c1.02,0.008,1.339,0,2.114-0.008C21.009,73.282,21,73.107,20.932,72.925L20.932,72.925z M21.717,74.998
		c-0.043,0.316-0.051,0.397-0.068,0.706l-0.05,0.056c-0.144,0.071-0.599,0.302-1.349,0.302c-1.382,0-2.25-0.747-2.25-2.129
		c0-1.477,0.944-2.199,2.048-2.199c0.666,0,1.13,0.263,1.382,0.548c0.48,0.54,0.463,1.327,0.455,1.676l-0.059,0.048
		c-1.314-0.009-1.543-0.009-2.924,0c0.009,0.278,0.032,0.667,0.32,0.993c0.346,0.388,0.825,0.429,1.086,0.429
		c0.244,0,0.497-0.041,0.733-0.119c0.312-0.12,0.497-0.263,0.606-0.351L21.717,74.998L21.717,74.998z"/>
	<path fill="#FFFFFF" d="M25.141,72.663c-0.083-0.032-0.193-0.072-0.336-0.072c-0.161,0-0.278,0.057-0.354,0.104
		c-0.346,0.23-0.346,0.579-0.346,1.406c0,0.897,0.026,1.365,0.059,1.811l-0.042,0.055c-0.396,0-0.488,0.008-0.893,0.024
		l-0.042-0.048c0.008-0.604,0.017-1.151,0.017-1.89c0-1.271-0.025-1.597-0.076-2.057l0.051-0.056c0.32-0.057,0.522-0.096,0.877-0.16
		l0.05,0.049l-0.042,0.675c0.101-0.254,0.312-0.763,1.028-0.763c0.109,0,0.168,0.008,0.236,0.024l0.033,0.048
		c-0.085,0.381-0.102,0.46-0.16,0.81L25.141,72.663L25.141,72.663z"/>
	<path fill="#FFFFFF" d="M28.151,73.552c0.337,0.104,1.104,0.35,1.104,1.191c0,0.318-0.126,0.675-0.473,0.938
		c-0.445,0.357-1.044,0.381-1.348,0.381c-0.454,0-0.834-0.079-1.153-0.198c-0.042-0.017-0.084-0.032-0.127-0.048l-0.042-0.072
		c0.033-0.309,0.033-0.348,0.051-0.666l0.084-0.024c0.151,0.111,0.523,0.382,1.171,0.382c0.666,0,0.91-0.351,0.91-0.596
		c0-0.365-0.363-0.484-0.876-0.645l-0.27-0.086c-0.346-0.104-1.104-0.334-1.104-1.151c0-0.819,0.759-1.224,1.703-1.224
		c0.623,0,1.061,0.167,1.213,0.223l0.041,0.055c-0.033,0.295-0.041,0.326-0.066,0.628l-0.076,0.031
		c-0.211-0.127-0.539-0.316-1.087-0.316c-0.117,0-0.236,0.008-0.362,0.039c-0.252,0.063-0.463,0.23-0.463,0.477
		c0,0.342,0.345,0.445,0.867,0.596L28.151,73.552L28.151,73.552z"/>
	<path fill="#FFFFFF" d="M31.379,70.678c-0.43,0.015-0.522,0.024-0.935,0.063l-0.052-0.049c0.01-0.103,0.01-0.213,0.01-0.316
		c0-0.144-0.01-0.271-0.018-0.429l0.06-0.049c0.438-0.031,0.513-0.039,0.935-0.079l0.05,0.048c-0.008,0.326-0.008,0.405,0,0.755
		L31.379,70.678L31.379,70.678z M31.371,75.959c-0.438,0.007-0.506,0.007-0.92,0.031l-0.042-0.056
		c0.025-0.421,0.052-0.786,0.052-1.668c0-1.517-0.026-1.803-0.085-2.271l0.042-0.056c0.363-0.057,0.489-0.071,0.91-0.16l0.084,0.049
		c-0.024,0.412-0.05,0.841-0.05,1.866c0,1.478,0.017,1.676,0.05,2.216L31.371,75.959L31.371,75.959z"/>
	<path fill="#FFFFFF" d="M34.867,75.339c-0.024,0.263-0.024,0.318-0.033,0.549l-0.042,0.047c-0.177,0.039-0.32,0.071-0.632,0.071
		c-0.202,0-0.733,0-0.995-0.413c-0.15-0.23-0.15-0.42-0.15-1.357l0.017-1.747c-0.295,0-0.304,0.008-0.606,0.016l-0.034-0.048
		c0.017-0.254,0.017-0.318,0.017-0.572l0.051-0.047c0.185,0,0.295,0.008,0.573,0c-0.009-0.167-0.009-0.342-0.009-0.508
		c-0.008-0.151-0.017-0.303-0.025-0.453l0.042-0.056c0.38-0.087,0.473-0.111,0.859-0.223l0.06,0.04
		c-0.025,0.523-0.034,0.628-0.034,1.207c0.354-0.008,0.455-0.008,0.936-0.024l0.043,0.049c-0.017,0.206-0.026,0.293-0.026,0.563
		l-0.042,0.047c-0.421-0.008-0.472-0.016-0.919-0.016l-0.017,1.478c0.009,0.096,0.009,0.548,0.009,0.659
		c0,0.579,0.075,0.762,0.497,0.762c0.177,0,0.312-0.039,0.404-0.071L34.867,75.339L34.867,75.339z"/>
	<path fill="#FFFFFF" d="M39.272,71.884c-0.479,1.12-1.29,3.217-1.5,3.773c-0.261,0.723-0.514,1.445-0.69,2.184l-0.076,0.063
		c-0.421,0.008-0.497,0.008-0.894,0.023l-0.033-0.056l0.033-0.056c0.152-0.293,0.278-0.604,0.422-0.913
		c0.118-0.262,0.261-0.516,0.354-0.794c0.009-0.016,0.018-0.04,0.025-0.063c0-0.096-1.256-3.296-1.618-4.105l0.034-0.071
		c0.422-0.032,0.505-0.032,0.936-0.08l0.051,0.048c0.228,0.715,0.337,1.049,0.522,1.564l0.531,1.517l0.479-1.397
		c0.177-0.549,0.387-1.199,0.522-1.651l0.059-0.049c0.211,0,0.438,0,0.817-0.007L39.272,71.884L39.272,71.884z"/>
	<path fill="#FFFFFF" d="M45.854,72.79c-0.16-0.247-0.43-0.453-0.9-0.453c-0.161,0-0.633,0.017-0.927,0.461
		c-0.228,0.325-0.253,0.786-0.253,1.119c0,0.318,0.007,1.12,0.673,1.438c0.153,0.072,0.329,0.104,0.498,0.104
		c0.312,0,0.716-0.096,0.96-0.532c0.194-0.356,0.202-0.889,0.194-1.056C46.1,73.671,46.065,73.14,45.854,72.79L45.854,72.79z
		 M46.942,74.608c-0.094,0.39-0.271,0.699-0.548,0.961c-0.37,0.35-0.868,0.484-1.459,0.484c-0.757,0-1.238-0.271-1.508-0.532
		c-0.571-0.548-0.581-1.358-0.581-1.62c0-0.302,0.017-1.08,0.581-1.611c0.236-0.23,0.726-0.557,1.567-0.557
		c0.573,0,1.138,0.175,1.509,0.572c0.388,0.42,0.497,0.977,0.514,1.532C47.018,74.108,47.001,74.37,46.942,74.608L46.942,74.608z"/>
	<path fill="#FFFFFF" d="M49.373,75.966c-0.389,0-0.464,0-0.91,0.024l-0.043-0.056c0.043-0.834,0.043-1.691,0.043-2.533
		c0-0.421,0-0.564-0.009-0.913c-0.211,0.008-0.421,0.008-0.59,0.008l-0.051-0.048c0.017-0.222,0.026-0.302,0.033-0.572l0.052-0.047
		c0.252,0.008,0.421,0.016,0.538,0.016L48.43,71.32c0-0.396,0-0.492,0.024-0.636c0.193-0.921,1.238-0.921,1.475-0.921
		c0.126,0,0.21,0.008,0.32,0.017l0.042,0.055c-0.033,0.224-0.042,0.326-0.06,0.572l-0.06,0.04c-0.075-0.017-0.134-0.031-0.227-0.031
		c-0.177,0-0.371,0.031-0.505,0.237c-0.136,0.199-0.136,0.422-0.127,0.953v0.238c0.018,0,0.75-0.016,0.835-0.016l0.042,0.047
		c-0.019,0.255-0.026,0.318-0.035,0.564l-0.05,0.048c-0.362-0.009-0.438-0.009-0.774-0.009c0,1.057,0.007,2.121,0.066,3.178
		c0,0.079,0.009,0.166,0.017,0.254L49.373,75.966L49.373,75.966z"/>
	<path fill="#FFFFFF" d="M55.141,73.616c0.27,0,0.538,0.008,0.808,0.008c0.287,0,0.59-0.008,0.886-0.008l-0.81-2.685L55.141,73.616
		L55.141,73.616z M56.808,70.526c0.278,0.874,0.599,1.858,0.852,2.613c0.261,0.762,0.683,1.984,0.936,2.748l-0.034,0.063
		c-0.438,0.009-0.624,0.016-0.978,0.032l-0.059-0.056c-0.211-0.747-0.278-0.961-0.497-1.676c-0.337,0-0.666-0.008-1.003-0.008
		c-0.371,0-0.759,0.008-1.095,0.008c-0.245,0.747-0.295,0.937-0.498,1.644l-0.059,0.056c-0.362,0-0.446,0-0.868,0.023l-0.034-0.055
		c0.026-0.088,0.06-0.167,0.094-0.247c0.32-0.856,0.632-1.715,0.935-2.572c0.506-1.405,0.69-1.922,0.936-2.684l0.067-0.057
		c0.59-0.008,0.666-0.008,1.205-0.032l0.059,0.057L56.808,70.526L56.808,70.526z"/>
	<path fill="#FFFFFF" d="M60.828,75.379c1.112,0,1.752-0.667,1.752-1.645c0-0.825-0.463-1.333-1.137-1.333
		c-0.456,0-0.775,0.206-0.97,0.333c-0.009,0.413-0.017,0.817-0.017,1.223c0,0.468,0.008,0.937,0.017,1.397
		C60.583,75.362,60.685,75.379,60.828,75.379L60.828,75.379z M60.457,72.162c0.169-0.127,0.572-0.429,1.23-0.429
		c1.07,0,1.819,0.826,1.819,1.946c0,1.23-0.868,2.286-2.646,2.286c-0.16,0-0.262-0.007-0.38-0.016
		c0.009,0.953,0.025,1.16,0.068,1.906l-0.05,0.048c-0.296,0.008-0.59,0.016-0.885,0.023l-0.043-0.048
		c0.017-0.483,0.033-0.984,0.033-1.795c0-0.469-0.009-0.937-0.009-1.405c-0.008-1.23-0.008-1.786-0.108-2.692l0.041-0.047
		c0.414-0.064,0.507-0.088,0.886-0.16l0.059,0.049L60.457,72.162L60.457,72.162z"/>
	<path fill="#FFFFFF" d="M66.138,75.379c1.112,0,1.753-0.667,1.753-1.645c0-0.825-0.463-1.333-1.138-1.333
		c-0.455,0-0.774,0.206-0.969,0.333c-0.009,0.413-0.017,0.817-0.017,1.223c0,0.468,0.008,0.937,0.017,1.397
		C65.894,75.362,65.994,75.379,66.138,75.379L66.138,75.379z M65.768,72.162c0.168-0.127,0.573-0.429,1.229-0.429
		c1.07,0,1.819,0.826,1.819,1.946c0,1.23-0.867,2.286-2.645,2.286c-0.16,0-0.262-0.007-0.38-0.016
		c0.009,0.953,0.025,1.16,0.068,1.906l-0.051,0.048c-0.295,0.008-0.59,0.016-0.885,0.023l-0.042-0.048
		c0.016-0.483,0.034-0.984,0.034-1.795c0-0.469-0.009-0.937-0.009-1.405c-0.01-1.23-0.01-1.786-0.11-2.692l0.042-0.047
		c0.413-0.064,0.506-0.088,0.886-0.16l0.059,0.049L65.768,72.162L65.768,72.162z"/>
	<path fill="#FFFFFF" d="M71.075,75.959c-0.405,0.007-0.489,0.015-0.886,0.031l-0.041-0.056c0.017-0.563,0.041-1.279,0.041-2.804
		c0-1.096,0-2.271-0.084-3.287l0.043-0.048c0.412-0.063,0.497-0.079,0.918-0.166l0.05,0.055c-0.059,1.041-0.059,2.089-0.059,3.129
		c0,1.739,0.024,2.343,0.067,3.098L71.075,75.959L71.075,75.959z"/>
	<path fill="#FFFFFF" d="M73.594,70.678c-0.432,0.015-0.523,0.024-0.937,0.063l-0.051-0.049c0.009-0.103,0.009-0.213,0.009-0.316
		c0-0.144-0.009-0.271-0.017-0.429l0.059-0.049c0.438-0.031,0.514-0.039,0.937-0.079l0.05,0.048c-0.009,0.326-0.009,0.405,0,0.755
		L73.594,70.678L73.594,70.678z M73.584,75.959c-0.438,0.007-0.505,0.007-0.918,0.031l-0.042-0.056
		c0.025-0.421,0.051-0.786,0.051-1.668c0-1.517-0.025-1.803-0.085-2.271l0.042-0.056c0.362-0.057,0.489-0.071,0.911-0.16
		l0.084,0.049c-0.025,0.412-0.052,0.841-0.052,1.866c0,1.478,0.019,1.676,0.052,2.216L73.584,75.959L73.584,75.959z"/>
	<path fill="#FFFFFF" d="M77.866,72.925c-0.168-0.437-0.538-0.619-0.918-0.619c-0.472,0-1.027,0.302-1.112,1.096
		c1.02,0.008,1.34,0,2.115-0.008C77.943,73.282,77.935,73.107,77.866,72.925L77.866,72.925z M78.65,74.998
		c-0.042,0.316-0.051,0.397-0.066,0.706l-0.053,0.056c-0.142,0.071-0.597,0.302-1.348,0.302c-1.381,0-2.249-0.747-2.249-2.129
		c0-1.477,0.943-2.199,2.048-2.199c0.666,0,1.129,0.263,1.382,0.548c0.48,0.54,0.465,1.327,0.456,1.676l-0.061,0.048
		c-1.314-0.009-1.541-0.009-2.924,0c0.009,0.278,0.035,0.667,0.32,0.993c0.346,0.388,0.826,0.429,1.087,0.429
		c0.245,0,0.498-0.041,0.733-0.119c0.313-0.12,0.497-0.263,0.607-0.351L78.65,74.998L78.65,74.998z"/>
	<path fill="#FFFFFF" d="M82.946,72.408c-0.144-0.007-0.243-0.023-0.421-0.023c-0.261,0-0.817,0.017-1.222,0.374
		c-0.185,0.166-0.488,0.539-0.488,1.246c0,0.453,0.136,0.777,0.312,0.977c0.152,0.167,0.43,0.357,0.867,0.357
		c0.515,0,0.826-0.255,0.943-0.35C82.955,73.949,82.955,73.711,82.946,72.408L82.946,72.408z M82.938,69.796
		c0.432-0.072,0.515-0.088,0.895-0.166l0.059,0.047c-0.059,1.104-0.067,3.073-0.067,3.868c0,1.23,0.033,1.817,0.067,2.366
		l-0.042,0.055c-0.371,0-0.472,0.008-0.859,0.024l-0.06-0.048l0.017-0.294c-0.201,0.144-0.548,0.397-1.161,0.397
		c-1.121,0-1.896-0.834-1.896-2.041c0-0.865,0.388-1.414,0.74-1.707c0.616-0.524,1.417-0.549,1.854-0.549
		c0.178,0,0.262,0,0.489,0.017c0.009-0.985-0.035-1.461-0.076-1.922L82.938,69.796L82.938,69.796z"/>
	<path fill="#FFFFFF" d="M90.479,72.79c0.613,0.254,1.432,0.588,1.432,1.604c0,0.89-0.699,1.691-2.167,1.691
		c-0.892,0-1.465-0.254-1.668-0.349l-0.033-0.056c0.033-0.278,0.043-0.43,0.067-0.73l0.085-0.032c0.211,0.135,0.7,0.468,1.482,0.468
		c0.869,0,1.231-0.42,1.231-0.896c0-0.557-0.488-0.77-1.038-0.969l-0.42-0.175c-0.599-0.262-1.397-0.604-1.397-1.572
		c0-0.294,0.082-0.596,0.259-0.834c0.39-0.523,1.089-0.698,1.771-0.698c0.666,0,1.068,0.118,1.515,0.254l0.043,0.063
		c-0.033,0.302-0.043,0.413-0.067,0.699l-0.069,0.031c-0.36-0.174-0.755-0.364-1.388-0.364c-0.699,0-1.139,0.31-1.139,0.778
		c0,0.357,0.253,0.524,0.43,0.627c0.109,0.063,0.143,0.079,0.649,0.286L90.479,72.79L90.479,72.79z"/>
	<path fill="#FFFFFF" d="M96.399,75.021c-0.033,0.341-0.042,0.381-0.067,0.707l-0.059,0.055c-0.245,0.111-0.573,0.271-1.164,0.271
		c-1.271,0-2.097-0.866-2.097-2.104c0-1.263,0.809-2.216,2.113-2.216c0.548,0,0.936,0.167,1.155,0.254l0.033,0.057
		c-0.033,0.285-0.041,0.389-0.059,0.626l-0.067,0.032c-0.277-0.19-0.598-0.31-0.936-0.31c-0.699,0-1.314,0.508-1.314,1.524
		c0,1.081,0.648,1.469,1.306,1.469c0.574,0,0.928-0.277,1.088-0.396L96.399,75.021L96.399,75.021z"/>
	<path fill="#FFFFFF" d="M98.413,70.678c-0.43,0.015-0.522,0.024-0.936,0.063l-0.05-0.049c0.007-0.103,0.007-0.213,0.007-0.316
		c0-0.144-0.007-0.271-0.017-0.429l0.06-0.049c0.439-0.031,0.514-0.039,0.936-0.079l0.051,0.048c-0.008,0.326-0.008,0.405,0,0.755
		L98.413,70.678L98.413,70.678z M98.403,75.959c-0.437,0.007-0.506,0.007-0.918,0.031l-0.041-0.056
		c0.023-0.421,0.051-0.786,0.051-1.668c0-1.517-0.027-1.803-0.084-2.271l0.041-0.056c0.362-0.057,0.489-0.071,0.911-0.16
		l0.084,0.049c-0.026,0.412-0.051,0.841-0.051,1.866c0,1.478,0.017,1.676,0.051,2.216L98.403,75.959L98.403,75.959z"/>
	<path fill="#FFFFFF" d="M102.689,72.925c-0.17-0.437-0.539-0.619-0.919-0.619c-0.473,0-1.028,0.302-1.111,1.096
		c1.018,0.008,1.338,0,2.113-0.008C102.766,73.282,102.756,73.107,102.689,72.925L102.689,72.925z M103.472,74.998
		c-0.04,0.316-0.051,0.397-0.066,0.706l-0.05,0.056c-0.144,0.071-0.6,0.302-1.349,0.302c-1.382,0-2.25-0.747-2.25-2.129
		c0-1.477,0.944-2.199,2.047-2.199c0.666,0,1.128,0.263,1.382,0.548c0.481,0.54,0.465,1.327,0.455,1.676l-0.059,0.048
		c-1.315-0.009-1.542-0.009-2.923,0c0.01,0.278,0.032,0.667,0.318,0.993c0.347,0.388,0.826,0.429,1.089,0.429
		c0.243,0,0.496-0.041,0.732-0.119c0.313-0.12,0.496-0.263,0.606-0.351L103.472,74.998L103.472,74.998z"/>
	<path fill="#FFFFFF" d="M108.67,75.959c-0.404,0.007-0.454,0.007-0.842,0.031l-0.06-0.056c0-0.088,0.008-0.175,0.008-0.263
		c0.008-0.389,0.008-0.778,0.008-1.167c0-1.223-0.008-1.303-0.05-1.469c-0.159-0.604-0.64-0.604-0.759-0.604
		c-0.504,0-0.893,0.277-1.12,0.444c-0.008,1.382,0.009,2.104,0.068,3.034l-0.052,0.048c-0.412,0.007-0.479,0.007-0.884,0.031
		l-0.043-0.056c0.01-0.444,0.026-0.873,0.026-1.461c0-1.271-0.06-1.945-0.101-2.478l0.049-0.056c0.421-0.071,0.498-0.088,0.895-0.16
		l0.058,0.057l-0.008,0.413c0.219-0.144,0.741-0.492,1.483-0.492c0.21,0,0.472,0.031,0.698,0.15c0.22,0.119,0.396,0.302,0.489,0.517
		c0.109,0.238,0.117,0.476,0.127,0.969v0.929c0.024,0.929,0.033,1.286,0.058,1.589L108.67,75.959L108.67,75.959z"/>
	<path fill="#FFFFFF" d="M113.41,75.021c-0.033,0.341-0.041,0.381-0.067,0.707l-0.059,0.055c-0.244,0.111-0.573,0.271-1.163,0.271
		c-1.271,0-2.098-0.866-2.098-2.104c0-1.263,0.81-2.216,2.115-2.216c0.546,0,0.935,0.167,1.155,0.254l0.033,0.057
		c-0.033,0.285-0.043,0.389-0.061,0.626l-0.066,0.032c-0.28-0.19-0.6-0.31-0.936-0.31c-0.699,0-1.314,0.508-1.314,1.524
		c0,1.081,0.648,1.469,1.304,1.469c0.576,0,0.929-0.277,1.089-0.396L113.41,75.021L113.41,75.021z"/>
	<path fill="#FFFFFF" d="M117.207,72.925c-0.167-0.437-0.54-0.619-0.918-0.619c-0.471,0-1.027,0.302-1.113,1.096
		c1.021,0.008,1.341,0,2.116-0.008C117.282,73.282,117.276,73.107,117.207,72.925L117.207,72.925z M117.991,74.998
		c-0.042,0.316-0.05,0.397-0.067,0.706l-0.051,0.056c-0.145,0.071-0.597,0.302-1.349,0.302c-1.383,0-2.249-0.747-2.249-2.129
		c0-1.477,0.944-2.199,2.048-2.199c0.666,0,1.129,0.263,1.382,0.548c0.479,0.54,0.463,1.327,0.455,1.676l-0.059,0.048
		c-1.314-0.009-1.541-0.009-2.926,0c0.01,0.278,0.036,0.667,0.322,0.993c0.343,0.388,0.825,0.429,1.085,0.429
		c0.246,0,0.499-0.041,0.732-0.119c0.313-0.12,0.5-0.263,0.608-0.351L117.991,74.998L117.991,74.998z"/>
	<path fill="#FFFFFF" d="M121.232,73.552c0.338,0.104,1.104,0.35,1.104,1.191c0,0.318-0.127,0.675-0.473,0.938
		c-0.446,0.357-1.045,0.381-1.348,0.381c-0.455,0-0.834-0.079-1.154-0.198c-0.042-0.017-0.085-0.032-0.126-0.048l-0.043-0.072
		c0.035-0.309,0.035-0.348,0.051-0.666l0.084-0.024c0.152,0.111,0.521,0.382,1.171,0.382c0.665,0,0.91-0.351,0.91-0.596
		c0-0.365-0.363-0.484-0.877-0.645l-0.269-0.086c-0.346-0.104-1.104-0.334-1.104-1.151c0-0.819,0.759-1.224,1.703-1.224
		c0.622,0,1.062,0.167,1.213,0.223l0.042,0.055c-0.033,0.295-0.042,0.326-0.066,0.628l-0.078,0.031
		c-0.209-0.127-0.538-0.316-1.086-0.316c-0.117,0-0.236,0.008-0.363,0.039c-0.252,0.063-0.462,0.23-0.462,0.477
		c0,0.342,0.345,0.445,0.867,0.596L121.232,73.552L121.232,73.552z"/>
	<path fill="#FFFFFF" d="M82.487,85.443c-0.572,0-0.657,0-1.214,0.023l-0.058-0.055c-0.136-0.794-0.187-1.024-0.305-1.604
		l-0.69-3.424l-0.699,3.24c-0.042,0.215-0.084,0.438-0.135,0.65c-0.067,0.343-0.193,0.922-0.227,1.113l-0.052,0.055
		c-0.606,0-0.641,0.009-1.222,0.023l-0.058-0.055c-0.153-0.715-0.853-3.725-1.307-5.519l0.041-0.057
		c0.472,0,0.548-0.008,0.961-0.024l0.052,0.057c0.05,0.278,0.1,0.531,0.176,0.929c0.068,0.357,0.135,0.707,0.202,1.057l0.615,3.033
		l0.707-3.518c0.118-0.58,0.135-0.675,0.286-1.477l0.052-0.057c0.641-0.008,0.749-0.008,1.34-0.024l0.05,0.057
		c0.009,0.063,0.018,0.127,0.025,0.198c0.034,0.207,0.229,1.223,0.278,1.493l0.665,3.351l0.658-3.136
		c0.313-1.533,0.32-1.564,0.361-1.882l0.051-0.057c0.389,0,0.473-0.008,0.825-0.024l0.044,0.057
		c-0.195,0.619-0.245,0.833-0.708,2.763c-0.212,0.865-0.438,1.725-0.624,2.59c-0.008,0.055-0.024,0.11-0.033,0.167L82.487,85.443
		L82.487,85.443z"/>
	<path fill="#FFFFFF" d="M87.447,82.401c-0.168-0.437-0.54-0.619-0.917-0.619c-0.472,0-1.028,0.302-1.114,1.097
		c1.021,0.008,1.341,0,2.116-0.009C87.522,82.759,87.516,82.585,87.447,82.401L87.447,82.401z M88.231,84.475
		c-0.043,0.317-0.05,0.397-0.066,0.706l-0.052,0.056c-0.145,0.071-0.598,0.303-1.349,0.303c-1.382,0-2.248-0.747-2.248-2.129
		c0-1.478,0.942-2.199,2.047-2.199c0.666,0,1.129,0.263,1.382,0.548c0.479,0.54,0.463,1.326,0.456,1.676l-0.06,0.047
		c-1.314-0.008-1.541-0.008-2.926,0c0.01,0.278,0.036,0.667,0.322,0.993c0.344,0.389,0.825,0.43,1.086,0.43
		c0.245,0,0.498-0.041,0.732-0.12c0.313-0.119,0.499-0.261,0.608-0.35L88.231,84.475L88.231,84.475z"/>
	<path fill="#FFFFFF" d="M91.472,83.029c0.337,0.104,1.104,0.35,1.104,1.19c0,0.318-0.126,0.676-0.472,0.938
		c-0.446,0.357-1.046,0.381-1.349,0.381c-0.455,0-0.835-0.079-1.154-0.199c-0.043-0.015-0.084-0.032-0.127-0.047l-0.043-0.071
		c0.036-0.311,0.036-0.35,0.053-0.667l0.084-0.024c0.152,0.111,0.521,0.381,1.171,0.381c0.666,0,0.909-0.35,0.909-0.596
		c0-0.365-0.362-0.483-0.875-0.644l-0.27-0.086c-0.347-0.104-1.105-0.335-1.105-1.151c0-0.819,0.759-1.224,1.704-1.224
		c0.622,0,1.062,0.167,1.212,0.223l0.043,0.055c-0.033,0.294-0.043,0.325-0.066,0.628l-0.077,0.031
		c-0.21-0.127-0.539-0.317-1.087-0.317c-0.118,0-0.237,0.008-0.363,0.04c-0.254,0.063-0.463,0.229-0.463,0.477
		c0,0.342,0.346,0.444,0.869,0.596L91.472,83.029L91.472,83.029z"/>
	<path fill="#FFFFFF" d="M95.696,84.815c-0.026,0.263-0.026,0.318-0.034,0.549l-0.042,0.048c-0.177,0.04-0.32,0.072-0.632,0.072
		c-0.201,0-0.732,0-0.994-0.415c-0.151-0.229-0.151-0.42-0.151-1.356l0.017-1.748c-0.295,0-0.303,0.007-0.606,0.017l-0.034-0.049
		c0.017-0.253,0.017-0.317,0.017-0.571l0.052-0.047c0.185,0,0.294,0.008,0.572,0c-0.009-0.167-0.009-0.343-0.009-0.509
		c-0.008-0.151-0.016-0.301-0.024-0.452l0.042-0.056c0.379-0.087,0.473-0.111,0.86-0.223l0.059,0.04
		c-0.025,0.523-0.034,0.627-0.034,1.207c0.353-0.008,0.454-0.008,0.936-0.024l0.042,0.049c-0.018,0.205-0.025,0.293-0.025,0.563
		l-0.043,0.048c-0.421-0.007-0.471-0.017-0.917-0.017l-0.017,1.478c0.008,0.096,0.008,0.549,0.008,0.659
		c0,0.58,0.074,0.763,0.496,0.763c0.178,0,0.313-0.039,0.404-0.072L95.696,84.815L95.696,84.815z"/>
	<path fill="#FFFFFF" d="M99.509,82.401c-0.17-0.437-0.539-0.619-0.919-0.619c-0.473,0-1.028,0.302-1.114,1.097
		c1.021,0.008,1.341,0,2.116-0.009C99.583,82.759,99.576,82.585,99.509,82.401L99.509,82.401z M100.291,84.475
		c-0.042,0.317-0.05,0.397-0.066,0.706l-0.053,0.056c-0.143,0.071-0.596,0.303-1.349,0.303c-1.382,0-2.248-0.747-2.248-2.129
		c0-1.478,0.943-2.199,2.048-2.199c0.666,0,1.129,0.263,1.382,0.548c0.48,0.54,0.463,1.326,0.455,1.676l-0.06,0.047
		c-1.314-0.008-1.541-0.008-2.925,0c0.01,0.278,0.035,0.667,0.322,0.993c0.344,0.389,0.825,0.43,1.085,0.43
		c0.247,0,0.5-0.041,0.733-0.12c0.313-0.119,0.499-0.261,0.608-0.35L100.291,84.475L100.291,84.475z"/>
	<path fill="#FFFFFF" d="M103.718,82.14c-0.086-0.031-0.195-0.072-0.339-0.072c-0.16,0-0.276,0.057-0.354,0.104
		c-0.346,0.229-0.346,0.58-0.346,1.405c0,0.897,0.026,1.365,0.059,1.812l-0.042,0.055c-0.396,0-0.486,0.009-0.893,0.023
		l-0.042-0.047c0.009-0.604,0.019-1.151,0.019-1.89c0-1.271-0.026-1.598-0.076-2.057l0.05-0.056c0.319-0.057,0.522-0.096,0.876-0.16
		l0.05,0.048l-0.041,0.676c0.1-0.254,0.311-0.763,1.028-0.763c0.108,0,0.167,0.008,0.234,0.024l0.036,0.047
		c-0.086,0.381-0.104,0.461-0.162,0.81L103.718,82.14L103.718,82.14z"/>
	<path fill="#FFFFFF" d="M108.683,85.436c-0.402,0.008-0.453,0.008-0.842,0.031l-0.061-0.055c0-0.087,0.01-0.176,0.01-0.263
		c0.008-0.389,0.008-0.778,0.008-1.168c0-1.223-0.008-1.302-0.05-1.469c-0.16-0.604-0.641-0.604-0.76-0.604
		c-0.503,0-0.892,0.278-1.118,0.444c-0.01,1.383,0.008,2.105,0.067,3.035l-0.051,0.047c-0.413,0.008-0.48,0.008-0.885,0.031
		l-0.044-0.055c0.011-0.444,0.026-0.874,0.026-1.462c0-1.271-0.06-1.945-0.1-2.477l0.049-0.056c0.421-0.071,0.497-0.089,0.894-0.16
		l0.06,0.057l-0.009,0.413c0.219-0.144,0.741-0.493,1.482-0.493c0.211,0,0.474,0.032,0.7,0.151c0.22,0.119,0.396,0.302,0.488,0.516
		c0.11,0.238,0.117,0.477,0.127,0.969v0.93c0.024,0.929,0.033,1.286,0.058,1.589L108.683,85.436L108.683,85.436z"/>
	<path fill="#FFFFFF" d="M115.314,82.268c0.613,0.254,1.431,0.587,1.431,1.604c0,0.889-0.698,1.69-2.165,1.69
		c-0.894,0-1.467-0.255-1.669-0.349l-0.033-0.056c0.033-0.279,0.042-0.43,0.066-0.73l0.087-0.032
		c0.209,0.135,0.698,0.468,1.481,0.468c0.868,0,1.23-0.421,1.23-0.896c0-0.557-0.488-0.771-1.037-0.969l-0.42-0.176
		c-0.6-0.261-1.399-0.604-1.399-1.571c0-0.295,0.085-0.597,0.26-0.834c0.39-0.523,1.089-0.699,1.771-0.699
		c0.666,0,1.069,0.119,1.516,0.254l0.043,0.063c-0.033,0.303-0.043,0.413-0.066,0.7l-0.069,0.031
		c-0.36-0.176-0.757-0.366-1.39-0.366c-0.699,0-1.139,0.31-1.139,0.778c0,0.357,0.254,0.524,0.43,0.628
		c0.111,0.063,0.145,0.08,0.649,0.285L115.314,82.268L115.314,82.268z"/>
	<path fill="#FFFFFF" d="M122.889,85.436c-0.564,0.008-0.633,0.008-1.146,0.031l-0.061-0.055c-0.1-0.484-0.26-1.129-0.401-1.691
		l-0.49-1.907l-0.496,1.954c-0.253,0.961-0.339,1.271-0.413,1.621l-0.053,0.047c-0.589,0.008-0.629,0.008-1.162,0.031l-0.049-0.055
		c-0.371-1.423-1.003-3.503-1.179-4.026l0.032-0.057c0.404-0.023,0.514-0.023,0.92-0.063l0.049,0.048
		c0.051,0.262,0.11,0.509,0.474,1.977l0.402,1.637l0.549-2.137c0.253-1.057,0.271-1.159,0.32-1.413l0.057-0.056
		c0.499,0,0.642,0,1.198-0.024l0.05,0.056c0.12,0.548,0.319,1.311,0.473,1.914l0.446,1.684l0.472-1.851
		c0.067-0.278,0.135-0.556,0.204-0.833c0.143-0.54,0.159-0.604,0.209-0.906l0.06-0.047c0.134,0,0.277,0.008,0.413,0.008
		c0.127,0,0.252-0.008,0.378-0.008l0.051,0.047c-0.159,0.452-0.901,2.668-1.247,4.027L122.889,85.436L122.889,85.436z"/>
	<path fill="#FFFFFF" d="M126.071,80.155c-0.431,0.015-0.522,0.023-0.936,0.063l-0.051-0.048c0.008-0.103,0.008-0.214,0.008-0.317
		c0-0.144-0.008-0.271-0.016-0.43l0.059-0.046c0.438-0.032,0.515-0.04,0.936-0.08l0.051,0.048c-0.009,0.325-0.009,0.404,0,0.754
		L126.071,80.155L126.071,80.155z M126.063,85.436c-0.438,0.008-0.506,0.008-0.918,0.031l-0.042-0.055
		c0.024-0.422,0.05-0.786,0.05-1.668c0-1.518-0.025-1.804-0.083-2.271l0.041-0.056c0.362-0.057,0.488-0.071,0.91-0.16l0.086,0.048
		c-0.027,0.414-0.053,0.842-0.053,1.867c0,1.477,0.018,1.675,0.053,2.216L126.063,85.436L126.063,85.436z"/>
	<path fill="#FFFFFF" d="M129.56,84.815c-0.023,0.263-0.023,0.318-0.033,0.549l-0.044,0.048c-0.176,0.04-0.319,0.072-0.632,0.072
		c-0.201,0-0.732,0-0.992-0.415c-0.152-0.229-0.152-0.42-0.152-1.356l0.016-1.748c-0.294,0-0.303,0.007-0.606,0.017l-0.033-0.049
		c0.018-0.253,0.018-0.317,0.018-0.571l0.05-0.047c0.186,0,0.296,0.008,0.572,0c-0.008-0.167-0.008-0.343-0.008-0.509
		c-0.008-0.151-0.017-0.301-0.026-0.452l0.043-0.056c0.38-0.087,0.473-0.111,0.859-0.223l0.06,0.04
		c-0.026,0.523-0.033,0.627-0.033,1.207c0.354-0.008,0.453-0.008,0.936-0.024l0.041,0.049c-0.017,0.205-0.023,0.293-0.023,0.563
		l-0.043,0.048c-0.423-0.007-0.473-0.017-0.919-0.017l-0.018,1.478c0.011,0.096,0.011,0.549,0.011,0.659
		c0,0.58,0.074,0.763,0.495,0.763c0.178,0,0.314-0.039,0.404-0.072L129.56,84.815L129.56,84.815z"/>
	<path fill="#FFFFFF" d="M133.47,85.443c-0.233,0-1.389,0.009-1.65,0.009c-0.986,0-1.095,0-1.608,0.015l-0.033-0.071
		c0.639-1,1.657-2.7,2.088-3.463c-1.113,0.008-1.313,0.008-1.853,0.032l-0.042-0.047c0.033-0.262,0.042-0.326,0.06-0.548
		l0.049-0.048c1.416,0,1.575,0,3.044-0.024l0.039,0.063c-0.748,1.16-1.819,3.049-2.047,3.454c0.725-0.007,1.451-0.023,2.023-0.048
		l0.041,0.048c-0.033,0.247-0.041,0.351-0.057,0.588L133.47,85.443L133.47,85.443z"/>
	<path fill="#FFFFFF" d="M137.443,82.401c-0.167-0.437-0.539-0.619-0.917-0.619c-0.472,0-1.028,0.302-1.112,1.097
		c1.02,0.008,1.34,0,2.115-0.009C137.521,82.759,137.512,82.585,137.443,82.401L137.443,82.401z M138.229,84.475
		c-0.043,0.317-0.051,0.397-0.068,0.706l-0.05,0.056c-0.144,0.071-0.599,0.303-1.349,0.303c-1.381,0-2.248-0.747-2.248-2.129
		c0-1.478,0.942-2.199,2.046-2.199c0.666,0,1.129,0.263,1.382,0.548c0.481,0.54,0.464,1.326,0.456,1.676l-0.06,0.047
		c-1.314-0.008-1.541-0.008-2.924,0c0.009,0.278,0.034,0.667,0.32,0.993c0.345,0.389,0.825,0.43,1.088,0.43
		c0.243,0,0.496-0.041,0.732-0.12c0.312-0.119,0.497-0.261,0.605-0.35L138.229,84.475L138.229,84.475z"/>
	<path fill="#FFFFFF" d="M141.654,82.14c-0.086-0.031-0.193-0.072-0.338-0.072c-0.16,0-0.278,0.057-0.354,0.104
		c-0.346,0.229-0.346,0.58-0.346,1.405c0,0.897,0.026,1.365,0.06,1.812l-0.044,0.055c-0.396,0-0.487,0.009-0.892,0.023l-0.044-0.047
		c0.011-0.604,0.021-1.151,0.021-1.89c0-1.271-0.027-1.598-0.077-2.057l0.05-0.056c0.32-0.057,0.522-0.096,0.875-0.16l0.052,0.048
		l-0.041,0.676c0.101-0.254,0.31-0.763,1.029-0.763c0.106,0,0.167,0.008,0.232,0.024l0.036,0.047
		c-0.086,0.381-0.102,0.461-0.162,0.81L141.654,82.14L141.654,82.14z"/>
	<path fill="#FFFFFF" d="M143.793,85.436c-0.404,0.008-0.487,0.017-0.884,0.031l-0.042-0.055c0.017-0.564,0.042-1.278,0.042-2.804
		c0-1.096,0-2.271-0.085-3.287l0.043-0.049c0.413-0.063,0.496-0.078,0.918-0.166l0.05,0.055c-0.06,1.041-0.06,2.09-0.06,3.129
		c0,1.739,0.026,2.343,0.069,3.099L143.793,85.436L143.793,85.436z"/>
	<path fill="#FFFFFF" d="M147.654,83.229c-0.85,0.118-1.643,0.229-1.643,0.938c0,0.038,0,0.722,0.801,0.722
		c0.521,0,0.825-0.27,0.919-0.35v-1.326L147.654,83.229L147.654,83.229z M148.598,83.809c0,0.983,0.009,1.07,0.052,1.587
		l-0.043,0.04c-0.396,0.008-0.464,0.017-0.851,0.031l-0.033-0.047l0.009-0.286c-0.161,0.119-0.54,0.405-1.181,0.405
		c-0.842,0-1.433-0.54-1.433-1.327c0-1.063,0.944-1.406,2.461-1.571l0.144-0.016c0-0.215,0-0.366-0.076-0.493
		c-0.085-0.143-0.278-0.294-0.7-0.294c-0.547,0-0.927,0.158-1.28,0.302l-0.067-0.04c0.017-0.365,0.017-0.412,0.025-0.579
		l0.051-0.047c0.471-0.159,0.96-0.263,1.457-0.263c0.624,0,1.23,0.198,1.408,0.817c0.058,0.223,0.058,0.66,0.058,0.993V83.809
		L148.598,83.809z"/>
	<path fill="#FFFFFF" d="M153.897,85.436c-0.404,0.008-0.454,0.008-0.843,0.031l-0.06-0.055c0-0.087,0.009-0.176,0.009-0.263
		c0.01-0.389,0.01-0.778,0.01-1.168c0-1.223-0.01-1.302-0.052-1.469c-0.16-0.604-0.641-0.604-0.757-0.604
		c-0.507,0-0.894,0.278-1.121,0.444c-0.009,1.383,0.008,2.105,0.067,3.035l-0.052,0.047c-0.412,0.008-0.479,0.008-0.884,0.031
		l-0.043-0.055c0.009-0.444,0.026-0.874,0.026-1.462c0-1.271-0.06-1.945-0.102-2.477l0.051-0.056
		c0.421-0.071,0.496-0.089,0.893-0.16l0.059,0.057l-0.008,0.413c0.22-0.144,0.741-0.493,1.482-0.493
		c0.212,0,0.472,0.032,0.699,0.151c0.22,0.119,0.396,0.302,0.489,0.516c0.11,0.238,0.118,0.477,0.126,0.969v0.93
		c0.025,0.929,0.033,1.286,0.059,1.589L153.897,85.436L153.897,85.436z"/>
	<path fill="#FFFFFF" d="M158.303,81.887c-0.144-0.009-0.244-0.025-0.423-0.025c-0.261,0-0.816,0.017-1.222,0.374
		c-0.184,0.166-0.486,0.539-0.486,1.246c0,0.454,0.134,0.779,0.31,0.978c0.153,0.167,0.429,0.356,0.868,0.356
		c0.514,0,0.826-0.254,0.942-0.349C158.311,83.427,158.311,83.188,158.303,81.887L158.303,81.887z M158.292,79.272
		c0.433-0.071,0.517-0.086,0.895-0.166l0.059,0.048c-0.059,1.104-0.066,3.072-0.066,3.867c0,1.23,0.032,1.818,0.066,2.367
		l-0.04,0.055c-0.373,0-0.474,0.009-0.86,0.023l-0.06-0.047l0.018-0.293c-0.203,0.142-0.549,0.396-1.162,0.396
		c-1.121,0-1.897-0.834-1.897-2.041c0-0.865,0.39-1.414,0.741-1.706c0.617-0.524,1.416-0.549,1.854-0.549
		c0.178,0,0.261,0,0.489,0.017c0.009-0.985-0.036-1.462-0.076-1.922L158.292,79.272L158.292,79.272z"/>
</g>
</svg>
